<?xml version="1.0" encoding="utf-8"?>
<!-- Generator: Adobe Illustrator 21.1.0, SVG Export Plug-In . SVG Version: 6.00 Build 0)  -->
<svg version="1.1" id="Layer_1" xmlns="http://www.w3.org/2000/svg" xmlns:xlink="http://www.w3.org/1999/xlink" x="0px" y="0px"
	 viewBox="0 0 800 600" style="enable-background:new 0 0 800 600;" xml:space="preserve">
<style type="text/css">
	.st0{fill:#EDEEF1;}
	.st1{fill:#A0A6D1;}
	.st2{fill:#133E8A;}
	.st3{fill:#5B6CAC;}
	.st4{fill:#EF7D1A;}
	.st5{fill:#F7B479;}
</style>
<rect x="0" class="st0" width="800" height="600"/>
<g>
	<path class="st1" d="M334,336.2c0-19.2,15.2-34.4,34.4-34.4s34.4,15.2,34.4,34.4c0,19.2-15.2,34.4-34.4,34.4
		C349.2,370.6,334,354.8,334,336.2"/>
	<path class="st2" d="M313.7,425.8c0-37.8-3.4-40.6-40.6-40.6c-19.2,0-34.4-15.2-34.4-34.4s15.2-34.4,34.4-34.4s34.4,15.2,34.4,34.4
		c0,37.8,3.4,40.6,40.6,40.6c19.2,0,34.4,15.2,34.4,34.4s-15.2,34.4-34.4,34.4C328.9,460.2,313.7,445,313.7,425.8"/>
	<path class="st3" d="M474.4,348.6c0-37.8-3.4-40.6-40.6-40.6c-19.2,0-34.4-15.2-34.4-34.4s15.2-34.4,34.4-34.4
		c19.2,0,34.4,15.2,34.4,34.4c0,37.8,3.4,40.6,40.6,40.6c19.2,0,34.4,15.2,34.4,34.4S528,383,508.8,383
		C489.7,383,474.4,367.7,474.4,348.6"/>
	<path class="st4" d="M492.5,255.5c0-37.8-3.4-40.6-40.6-40.6c-19.2,0-34.4-15.2-34.4-34.4s15.2-34.4,34.4-34.4
		c19.2,0,34.4,15.2,34.4,34.4c0,37.8,3.4,40.6,40.6,40.6c19.2,0,34.4,15.2,34.4,34.4s-15.2,34.4-34.4,34.4
		C507.7,289.9,492.5,274.7,492.5,255.5"/>
	<path class="st4" d="M403.4,418.5c0-19.2,15.2-34.4,34.4-34.4c19.2,0,34.4,15.2,34.4,34.4c0,19.2-15.2,34.4-34.4,34.4
		C419.2,452.9,403.4,437.7,403.4,418.5"/>
	<path class="st5" d="M253.4,258.9c0-19.2,15.2-34.4,34.4-34.4s34.4,15.2,34.4,34.4c0,19.2-15.2,34.4-34.4,34.4
		S253.4,278.1,253.4,258.9"/>
	<path class="st2" d="M318.2,188.4c0-19.2,15.2-34.4,34.4-34.4c19.2,0,34.4,15.2,34.4,34.4s-15.2,34.4-34.4,34.4
		C334,223.4,318.2,207.6,318.2,188.4"/>
</g>
</svg>
