<?xml version="1.0" encoding="utf-8"?>
<!-- Generator: Adobe Illustrator 21.1.0, SVG Export Plug-In . SVG Version: 6.00 Build 0)  -->
<svg version="1.1" id="Layer_1" xmlns="http://www.w3.org/2000/svg" xmlns:xlink="http://www.w3.org/1999/xlink" x="0px" y="0px"
	 viewBox="0 0 800 600" style="enable-background:new 0 0 800 600;" xml:space="preserve">
<style type="text/css">
	.st0{fill:#EDEEF1;}
	.st1{fill:#A0A6D1;}
	.st2{fill:#133E8A;}
	.st3{fill:#5B6CAC;}
	.st4{fill:#EF7D1A;}
	.st5{fill:#F7B479;}
	.st6{fill:#8990C3;}
	.st7{fill:#8991C4;}
	.st8{fill:#F88726;}
	.st9{font-family:'ArialNarrow-Bold';}
	.st10{font-size:14.8609px;}
	.st11{fill:#F58026;}
	.st12{fill:#858CBE;}
</style>
<rect x="0.3" class="st0" width="800" height="600"/>
<g>
	<g>
		<path class="st1" d="M118.4,309.5c0-3,2.4-5.3,5.3-5.3s5.3,2.4,5.3,5.3s-2.4,5.3-5.3,5.3C120.7,314.8,118.4,312.4,118.4,309.5"/>
		<path class="st2" d="M115.2,323.4c0-5.8-0.5-6.3-6.3-6.3c-3,0-5.3-2.4-5.3-5.3c0-3,2.4-5.3,5.3-5.3c3,0,5.3,2.4,5.3,5.3
			c0,5.8,0.5,6.3,6.3,6.3c3,0,5.3,2.4,5.3,5.3s-2.4,5.3-5.3,5.3C117.6,328.7,115.2,326.3,115.2,323.4"/>
		<path class="st3" d="M140.1,311.4c0-5.8-0.5-6.3-6.3-6.3c-3,0-5.3-2.4-5.3-5.3s2.4-5.3,5.3-5.3c3,0,5.3,2.4,5.3,5.3
			c0,5.8,0.5,6.3,6.3,6.3c3,0,5.3,2.4,5.3,5.3c0,3-2.4,5.3-5.3,5.3C142.5,316.7,140.1,314.4,140.1,311.4"/>
		<path class="st4" d="M142.9,297c0-5.8-0.5-6.3-6.3-6.3c-3,0-5.3-2.4-5.3-5.3s2.4-5.3,5.3-5.3c3,0,5.3,2.4,5.3,5.3
			c0,5.8,0.5,6.3,6.3,6.3c3,0,5.3,2.4,5.3,5.3s-2.4,5.3-5.3,5.3C145.2,302.3,142.9,300,142.9,297"/>
		<path class="st4" d="M129.1,322.2c0-3,2.4-5.3,5.3-5.3c3,0,5.3,2.4,5.3,5.3s-2.4,5.3-5.3,5.3C131.5,327.5,129.1,325.2,129.1,322.2
			"/>
		<path class="st5" d="M105.9,297.5c0-3,2.4-5.3,5.3-5.3c3,0,5.3,2.4,5.3,5.3s-2.4,5.3-5.3,5.3C108.3,302.9,105.9,300.5,105.9,297.5
			"/>
		<path class="st2" d="M115.9,286.6c0-3,2.4-5.3,5.3-5.3c3,0,5.3,2.4,5.3,5.3s-2.4,5.3-5.3,5.3C118.4,292,115.9,289.6,115.9,286.6"
			/>
		<path class="st2" d="M182.6,302.8c0-2-0.7-5.8-4.7-5.8c-4.2,0-5,4.3-5.1,5.8H182.6z M187.5,320.1c-2.3,0.9-4.3,1.5-7.5,1.5
			c-7.1,0-12.8-4.2-12.8-14.6c0-7.1,2.9-12.3,10.9-12.3c8.3,0,9.9,5.6,9.9,10.5h-15.4c0,5.1,2.3,13.4,9.9,13.4c1.7,0,3.3-0.3,4.9-1
			L187.5,320.1L187.5,320.1z"/>
		<path class="st2" d="M210.6,314.9L210.6,314.9c-1,1.9-3.4,6.6-9,6.6c-4.5,0-6.5-3.8-6.5-7.5v-18.8h5.4v16.1c0,3.2,0.5,6.1,3.2,6.1
			c5.4,0,6.9-8.4,6.9-11.6v-10.6h5.4v25.6h-5.5L210.6,314.9L210.6,314.9z"/>
		<path class="st2" d="M225.1,295.4h5.4v6.5h0.1c1.7-3.4,3.6-6.7,8.3-7.1v5.7c-5.2,0.2-8.4,1.9-8.4,8.8V321h-5.4V295.4z"/>
		<path class="st2" d="M253.5,319.3c4.9,0,5.4-6.5,5.4-11.2c0-4.7-0.6-11.2-5.4-11.2c-4.8,0-5.4,6.5-5.4,11.2
			C248.1,312.8,248.8,319.3,253.5,319.3 M242.3,308.2c0-8.6,3.8-13.4,11.3-13.4c7.5,0,11.3,4.7,11.3,13.4c0,8.7-3.8,13.4-11.3,13.4
			C246,321.5,242.3,316.8,242.3,308.2"/>
		<path class="st2" d="M273.5,298.1H269v-2.8h4.4v-2.4c0-4.7,1.1-9.7,9.8-9.7c2.2,0,4.1,0.3,5.4,0.6v3.8c-1.1-0.5-2.6-1.2-4.8-1.2
			c-4.4,0-5,3.1-5,5.9v3.1h7.2v2.8h-7.2V321h-5.4V298.1z"/>
		<path class="st2" d="M292.6,295.4h5.4V321h-5.4V295.4z M292.3,283.8h5.8v5.4h-5.8V283.8z"/>
		<path class="st2" d="M306.8,295.4h5.4v6.1h0.1c0.9-1.9,3.3-6.6,9-6.6c4.5,0,6.5,3.8,6.5,7.5v18.8h-5.4V305c0-3.2-0.5-6.1-3.2-6.1
			c-5.4,0-6.9,8.4-6.9,11.6v10.6h-5.4V295.4L306.8,295.4z"/>
		<path class="st2" d="M349.1,300.4c-1.8-1.2-3.8-2.5-6.5-2.5c-1.7,0-3.7,0.8-3.7,2.7c0,4.6,11.7,5.1,11.7,13.3
			c0,5.5-4.3,7.8-9.8,7.8c-3.3,0-5.6-0.7-6.8-1.1v-5c1.6,1,4.1,2.7,7.1,2.7c3.1,0,4.4-1.7,4.4-3.2c0-4.5-11.6-5.4-11.6-12.7
			c0-3.8,2.6-7.4,9-7.4c2.7,0,5.1,0.8,6,1L349.1,300.4L349.1,300.4z"/>
		<rect x="375.7" y="331.6" class="st6" width="1.7" height="33.9"/>
		<path class="st7" d="M413.6,355.6c-2.7,0.5-5.8,1-5.8,3.5c0,1.3,0.8,2,2,2c1.3,0,2.9-1,3.8-1.8L413.6,355.6L413.6,355.6z
			 M414,363.8l-0.3-1.5c-1.7,1.1-3.2,1.8-5.3,1.8c-3.1,0-4.6-2.2-4.6-4.5c0-3.9,3.1-5.9,9.9-6.7v-1.5c0-1.3-1-2-2.5-2
			c-1.9,0-3,1-3.8,2.1l-2.6-2c1-1.8,3.9-3.2,6.4-3.1c4.6,0.1,6.6,1.7,6.6,6.9v8.1c0,0.9,0.1,1.7,0.3,2.4H414L414,363.8z"/>
		<path class="st7" d="M427.6,349.4c-1.7,0-3,1.2-3,2.8s1.2,2.8,3,2.8c1.6,0,2.8-1.2,2.8-2.8C430.4,350.6,429.1,349.4,427.6,349.4
			 M423.9,365.4c0,1.3,1.1,1.9,4.5,1.9c2.6,0,3.5-1.3,3.5-1.9c0-0.8-1.2-2-5.1-2C424.6,363.4,423.9,364.6,423.9,365.4 M435.9,349
			c-1,0-2,0-2.6,0.4c0.5,0.7,1,1.7,1,3.1c0,3.2-2.2,5.5-6.5,5.5c-1.7,0-3.2,0.1-3.2,1c0,2.8,11.3-1,11.3,5.8c0,2.4-2.4,5.1-7.9,5.1
			c-4.6,0-7.7-1.4-7.7-4.1c0-2.2,1.7-3.1,3.1-3.1v0c-0.8-0.5-2.5-1-2.5-2.8c0-1.7,1.9-2.9,2.7-3.1c-1.4-1.1-2.5-2.4-2.5-4.5
			c0-3,2.3-5.9,6.7-5.9c1.5,0,3.1,0.6,4.2,1.5c0.8-1,2.1-1.6,4-1.5L435.9,349L435.9,349z"/>
		<path class="st7" d="M438.3,363.8v-17.1h3.8v3h0.1c1-2,2.4-3.2,4.8-3.2v4.3c-0.2,0-0.4,0-0.7,0c-2,0-3.8,2.4-3.8,2.8v10.4
			L438.3,363.8L438.3,363.8z"/>
		<path class="st7" d="M455.8,349.6c-2.3,0-3.4,1.7-3.4,5.6c0,3.8,1,5.6,3.4,5.6c2.3,0,3.4-1.7,3.4-5.6
			C459.1,351.4,458.1,349.6,455.8,349.6 M455.8,346.3c4.6,0,7.4,3.5,7.4,8.9s-2.8,8.9-7.4,8.9c-4.6,0-7.4-3.5-7.4-8.9
			C448.3,349.7,451.1,346.3,455.8,346.3"/>
		<path class="st7" d="M474.7,351.1c-0.8-0.9-1.9-1.8-3.2-1.8c-1.6,0-2.3,0.7-2.3,1.7c0,3,8.5,1.7,8.5,7.9c0,3.6-2.7,5.1-6.3,5.1
			c-2.7,0-5-1.2-6.5-3.5l2.7-2c1,1.3,2.3,2.4,4,2.4c1.5,0,2.4-0.8,2.4-1.9c0-3-8.5-1.9-8.5-7.9c0-3.2,2.7-5,5.7-5
			c2.3,0,4.5,0.9,6,2.6L474.7,351.1z"/>
		<path class="st7" d="M490.6,352.1c-0.7-1.5-1.4-2.6-3.4-2.6c-2.3,0-3.4,1.7-3.4,5.6c0,3.8,1,5.6,3.5,5.6c1.7,0,2.8-1.2,3.7-2.7
			l3.1,1.7c-1.7,3.1-3.8,4.3-6.9,4.3c-4.6,0-7.4-3.5-7.4-8.9c0-5.4,2.8-8.9,7.4-8.9c3.2,0,5.8,1.7,6.7,4.5L490.6,352.1z"/>
		<path class="st7" d="M502.2,363.8h-4.1v-17.1h4.1V363.8z M498.1,339.7h4.1v3.8h-4.1V339.7z"/>
		<path class="st7" d="M516.4,353.1c-0.1-2.4-1.3-3.8-3.3-3.8c-2,0-3.2,1.4-3.3,3.8H516.4z M509.8,355.8c0.1,3.6,1.7,5,3.6,5
			s2.8-0.9,3.8-2l3,1.8c-1.6,2.4-3.9,3.5-7.2,3.5c-4.4,0-7.2-3.5-7.2-8.9s2.8-8.9,7.4-8.9c4.4,0,7,3.8,7,7.9v1.7H509.8z"/>
		<path class="st7" d="M523.7,363.8v-17.1h3.8v1.8c1.5-1,3.2-2.2,5.2-2.2c3.4,0,5.1,2.3,5.1,5.8v11.7h-4.1v-11.2
			c0-2.3-0.7-3.1-2.1-3.1c-1.7,0-3.1,1-3.8,1.8v12.4L523.7,363.8L523.7,363.8z"/>
		<path class="st7" d="M551.6,352.1c-0.7-1.5-1.4-2.6-3.4-2.6c-2.3,0-3.3,1.7-3.3,5.6c0,3.8,1,5.6,3.5,5.6c1.7,0,2.8-1.2,3.7-2.7
			l3.1,1.7c-1.7,3.1-3.8,4.3-6.9,4.3c-4.6,0-7.4-3.5-7.4-8.9c0-5.4,2.8-8.9,7.4-8.9c3.2,0,5.8,1.7,6.7,4.5L551.6,352.1z"/>
		<path class="st7" d="M568.2,353.1c-0.1-2.4-1.3-3.8-3.3-3.8s-3.2,1.4-3.3,3.8H568.2z M561.6,355.8c0.1,3.6,1.7,5,3.6,5
			c1.9,0,2.8-0.9,3.8-2l3,1.8c-1.6,2.4-3.9,3.5-7.2,3.5c-4.4,0-7.2-3.5-7.2-8.9s2.8-8.9,7.4-8.9c4.4,0,7,3.8,7,7.9v1.7H561.6z"/>
		<path class="st7" d="M594,351.1c-0.8-0.9-1.9-1.8-3.2-1.8c-1.6,0-2.3,0.7-2.3,1.7c0,3,8.5,1.7,8.5,7.9c0,3.6-2.7,5.1-6.3,5.1
			c-2.7,0-5-1.2-6.5-3.5l2.7-2c1,1.3,2.3,2.4,4,2.4c1.5,0,2.4-0.8,2.4-1.9c0-3-8.5-1.9-8.5-7.9c0-3.2,2.7-5,5.7-5
			c2.3,0,4.5,0.9,6,2.6L594,351.1z"/>
		<path class="st7" d="M609.8,353.1c-0.1-2.4-1.3-3.8-3.3-3.8c-2,0-3.2,1.4-3.3,3.8H609.8z M603.2,355.8c0.1,3.6,1.7,5,3.6,5
			c1.9,0,2.8-0.9,3.8-2l3,1.8c-1.6,2.4-3.9,3.5-7.2,3.5c-4.4,0-7.2-3.5-7.2-8.9s2.8-8.9,7.4-8.9c4.4,0,7,3.8,7,7.9v1.7H603.2z"/>
		<path class="st7" d="M616.8,363.8v-17.1h3.8v3h0.1c1-2,2.4-3.2,4.8-3.2v4.3c-0.2,0-0.4,0-0.7,0c-2,0-3.8,2.4-3.8,2.8v10.4
			L616.8,363.8L616.8,363.8z"/>
		<polygon class="st7" points="626.5,346.7 630.5,346.7 633.4,358.2 633.5,358.2 636.3,346.7 640.4,346.7 635.5,363.8 631.2,363.8 
					"/>
		<path class="st7" d="M647.5,363.8h-4.1v-17.1h4.1V363.8z M643.4,339.7h4.1v3.8h-4.1V339.7z"/>
		<path class="st7" d="M661.8,352.1c-0.7-1.5-1.4-2.6-3.4-2.6c-2.3,0-3.3,1.7-3.3,5.6c0,3.8,1,5.6,3.5,5.6c1.7,0,2.8-1.2,3.7-2.7
			l3.1,1.7c-1.7,3.1-3.8,4.3-6.9,4.3c-4.6,0-7.4-3.5-7.4-8.9c0-5.4,2.8-8.9,7.4-8.9c3.2,0,5.8,1.7,6.7,4.5L661.8,352.1z"/>
		<path class="st7" d="M678.3,353.1c-0.1-2.4-1.3-3.8-3.3-3.8s-3.2,1.4-3.3,3.8H678.3z M671.8,355.8c0.1,3.6,1.7,5,3.6,5
			c1.9,0,2.8-0.9,3.8-2l3,1.8c-1.6,2.4-3.9,3.5-7.2,3.5c-4.4,0-7.2-3.5-7.2-8.9s2.8-8.9,7.4-8.9c4.4,0,7,3.8,7,7.9v1.7H671.8z"/>
		<path class="st7" d="M693.9,351.1c-0.8-0.9-1.9-1.8-3.2-1.8c-1.6,0-2.3,0.7-2.3,1.7c0,3,8.5,1.7,8.5,7.9c0,3.6-2.7,5.1-6.3,5.1
			c-2.7,0-5-1.2-6.5-3.5l2.7-2c1,1.3,2.3,2.4,4,2.4c1.5,0,2.4-0.8,2.4-1.9c0-3-8.5-1.9-8.5-7.9c0-3.2,2.7-5,5.7-5
			c2.3,0,4.5,0.9,6,2.6L693.9,351.1z"/>
	</g>
	<text transform="matrix(1 0 0 1 292.5412 346.464)" class="st8 st9 st10">10 YEARS</text>
	<g>
		<path class="st11" d="M342.5,299c-1,0-1.7-0.8-1.7-1.7v-3.7c0-1,0.8-1.7,1.7-1.7s1.7,0.8,1.7,1.7v3.7
			C344.2,298.1,343.5,299,342.5,299z"/>
		<circle class="st11" cx="342.5" cy="287.9" r="1.8"/>
		<circle class="st11" cx="342.5" cy="282.3" r="1.8"/>
		<path class="st11" d="M365.1,290.9c-0.8,0.6-1.9,0.5-2.5-0.3l-2.4-2.8c-0.6-0.8-0.5-1.9,0.3-2.5s1.9-0.5,2.5,0.3l2.4,2.8
			C365.9,289.1,365.8,290.2,365.1,290.9z"/>
		<ellipse transform="matrix(0.766 -0.6428 0.6428 0.766 -97.7542 296.229)" class="st11" cx="358" cy="282.4" rx="1.8" ry="1.8"/>
		<ellipse transform="matrix(0.766 -0.6428 0.6428 0.766 -95.7731 292.8036)" class="st11" cx="354.3" cy="278" rx="1.8" ry="1.8"/>
		<path class="st11" d="M377,270.2c-0.2,1-1.1,1.7-2.1,1.5l-3.7-0.6c-1-0.2-1.7-1.1-1.5-2.1c0.2-1,1.1-1.7,2.1-1.5l3.7,0.6
			C376.5,268.4,377.1,269.3,377,270.2z"/>
		
			<ellipse transform="matrix(0.1736 -0.9848 0.9848 0.1736 38.3364 582.2686)" class="st11" cx="366.1" cy="268.3" rx="1.8" ry="1.8"/>
		
			<ellipse transform="matrix(0.1736 -0.9848 0.9848 0.1736 34.6323 575.9814)" class="st11" cx="360.5" cy="267.4" rx="1.8" ry="1.8"/>
		<path class="st11" d="M372.9,246.8c0.5,0.9,0.2,1.9-0.6,2.4l-3.2,1.8c-0.9,0.5-1.9,0.2-2.4-0.6c-0.5-0.9-0.2-1.9,0.6-2.4l3.2-1.8
			C371.3,245.6,372.3,246,372.9,246.8z"/>
		<ellipse transform="matrix(0.866 -0.5 0.5 0.866 -77.473 215.4264)" class="st11" cx="363.2" cy="252.3" rx="1.8" ry="1.8"/>
		<ellipse transform="matrix(0.866 -0.5 0.5 0.866 -79.5504 213.3675)" class="st11" cx="358.4" cy="255.1" rx="1.8" ry="1.8"/>
		<path class="st11" d="M354.6,231.7c1,0.3,1.4,1.4,1,2.3l-1.2,3.5c-0.3,1-1.4,1.4-2.3,1c-1-0.3-1.4-1.4-1-2.3l1.2-3.5
			C352.7,231.8,353.8,231.3,354.6,231.7z"/>
		<ellipse transform="matrix(0.342 -0.9397 0.9397 0.342 3.4971 488.8735)" class="st11" cx="350.8" cy="241.9" rx="1.8" ry="1.8"/>
		<ellipse transform="matrix(0.342 -0.9397 0.9397 0.342 -2.874 490.635)" class="st11" cx="348.9" cy="247.4" rx="1.8" ry="1.8"/>
		<path class="st11" d="M330.8,231.7c1-0.3,1.9,0.2,2.3,1l1.2,3.5c0.3,1-0.2,1.9-1,2.3c-1,0.3-1.9-0.2-2.3-1l-1.2-3.5
			C329.4,233,329.9,231.9,330.8,231.7z"/>
		<ellipse transform="matrix(0.9397 -0.342 0.342 0.9397 -62.5832 129.0066)" class="st11" cx="334.5" cy="242" rx="1.8" ry="1.8"/>
		
			<ellipse transform="matrix(0.9397 -0.342 0.342 0.9397 -64.304 130.0219)" class="st11" cx="336.6" cy="247.4" rx="1.8" ry="1.8"/>
		<path class="st11" d="M312.3,246.8c0.5-0.9,1.6-1.1,2.4-0.6l3.2,1.8c0.9,0.5,1.1,1.6,0.6,2.4c-0.5,0.9-1.6,1.1-2.4,0.6l-3.2-1.8
			C312.1,248.7,311.8,247.6,312.3,246.8z"/>
		<ellipse transform="matrix(0.5 -0.866 0.866 0.5 -57.6041 404.8296)" class="st11" cx="321.8" cy="252.3" rx="1.8" ry="1.8"/>
		<ellipse transform="matrix(0.5 -0.866 0.866 0.5 -57.5743 410.5623)" class="st11" cx="326.8" cy="255.1" rx="1.8" ry="1.8"/>
		<path class="st11" d="M308.5,270.4c-0.2-1,0.4-1.9,1.5-2.1l3.7-0.6c1-0.2,1.9,0.4,2.1,1.5c0.2,1-0.4,1.9-1.5,2.1l-3.7,0.6
			C309.6,272,308.7,271.4,308.5,270.4z"/>
		
			<ellipse transform="matrix(0.9848 -0.1736 0.1736 0.9848 -41.7606 59.5203)" class="st11" cx="319.4" cy="268.5" rx="1.8" ry="1.8"/>
		
			<ellipse transform="matrix(0.9848 -0.1736 0.1736 0.9848 -41.5102 60.4762)" class="st11" cx="325" cy="267.5" rx="1.8" ry="1.8"/>
		<path class="st11" d="M320.3,291c-0.8-0.6-0.9-1.7-0.3-2.5l2.4-2.8c0.6-0.8,1.7-0.9,2.5-0.3c0.8,0.6,0.9,1.7,0.3,2.5l-2.4,2.8
			C322.2,291.5,321,291.6,320.3,291z"/>
		
			<ellipse transform="matrix(0.6428 -0.766 0.766 0.6428 -99.4968 351.7058)" class="st11" cx="327.4" cy="282.5" rx="1.8" ry="1.8"/>
		
			<ellipse transform="matrix(0.6428 -0.766 0.766 0.6428 -94.8431 352.9619)" class="st11" cx="331.1" cy="278.2" rx="1.8" ry="1.8"/>
	</g>
	<g>
		<path class="st12" d="M383.9,318.6c-0.6,0-1.1-0.5-1.1-1.1v-2.4c0-0.6,0.5-1.1,1.1-1.1s1.1,0.5,1.1,1.1v2.4
			C385,318.1,384.5,318.6,383.9,318.6z"/>
		<circle class="st12" cx="383.9" cy="311.5" r="1.2"/>
		<circle class="st12" cx="383.9" cy="307.7" r="1.2"/>
		<path class="st12" d="M398.6,313.3c-0.5,0.4-1.2,0.3-1.7-0.2l-1.6-1.8c-0.4-0.5-0.3-1.2,0.2-1.7c0.5-0.4,1.2-0.3,1.7,0.2l1.6,1.8
			C399.1,312.2,399,313,398.6,313.3z"/>
		
			<ellipse transform="matrix(0.766 -0.6428 0.6428 0.766 -105.6772 325.2602)" class="st12" cx="394" cy="307.8" rx="1.2" ry="1.2"/>
		
			<ellipse transform="matrix(0.766 -0.6428 0.6428 0.766 -104.4229 323.0219)" class="st12" cx="391.5" cy="305" rx="1.2" ry="1.2"/>
		<path class="st12" d="M406.4,299.9c-0.1,0.6-0.7,1-1.3,1l-2.4-0.4c-0.6-0.1-1-0.7-1-1.3c0.1-0.6,0.7-1,1.3-1l2.4,0.4
			C406,298.7,406.5,299.3,406.4,299.9z"/>
		
			<ellipse transform="matrix(0.1736 -0.9848 0.9848 0.1736 35.9079 639.9716)" class="st12" cx="399.3" cy="298.6" rx="1.2" ry="1.2"/>
		
			<ellipse transform="matrix(0.1736 -0.9848 0.9848 0.1736 33.3885 635.8198)" class="st12" cx="395.5" cy="298" rx="1.2" ry="1.2"/>
		<path class="st12" d="M403.7,284.6c0.3,0.5,0.1,1.3-0.4,1.6l-2.1,1.2c-0.5,0.3-1.3,0.1-1.6-0.4c-0.3-0.5-0.1-1.3,0.4-1.6l2.1-1.2
			C402.6,283.8,403.3,284,403.7,284.6z"/>
		<ellipse transform="matrix(0.866 -0.5 0.5 0.866 -90.8649 237.3114)" class="st12" cx="397.4" cy="288.2" rx="1.2" ry="1.2"/>
		<ellipse transform="matrix(0.866 -0.5 0.5 0.866 -92.2179 235.936)" class="st12" cx="394.1" cy="290" rx="1.2" ry="1.2"/>
		<path class="st12" d="M391.8,274.7c0.6,0.3,0.9,0.9,0.7,1.5l-0.8,2.3c-0.3,0.6-0.9,0.9-1.5,0.7c-0.6-0.3-0.9-0.9-0.7-1.5l0.8-2.3
			C390.5,274.8,391.2,274.5,391.8,274.7z"/>
		
			<ellipse transform="matrix(0.342 -0.9397 0.9397 0.342 -8.3297 551.0319)" class="st12" cx="389.3" cy="281.5" rx="1.2" ry="1.2"/>
		<ellipse transform="matrix(0.342 -0.9397 0.9397 0.342 -12.4029 552.1099)" class="st12" cx="388" cy="284.9" rx="1.2" ry="1.2"/>
		<path class="st12" d="M376.2,274.7c0.6-0.3,1.3,0.1,1.5,0.7l0.8,2.3c0.3,0.6-0.1,1.3-0.7,1.5c-0.6,0.3-1.3-0.1-1.5-0.7l-0.8-2.3
			C375.3,275.5,375.7,274.9,376.2,274.7z"/>
		
			<ellipse transform="matrix(0.9397 -0.342 0.342 0.9397 -73.4428 146.4656)" class="st12" cx="378.6" cy="281.5" rx="1.2" ry="1.2"/>
		<ellipse transform="matrix(0.9397 -0.342 0.342 0.9397 -74.554 147.1208)" class="st12" cx="379.9" cy="285" rx="1.2" ry="1.2"/>
		<path class="st12" d="M364.1,284.5c0.3-0.5,1-0.8,1.6-0.4l2.1,1.2c0.5,0.3,0.8,1,0.4,1.6c-0.3,0.5-1,0.8-1.6,0.4l-2.1-1.2
			C364,285.8,363.8,285.1,364.1,284.5z"/>
		<ellipse transform="matrix(0.5 -0.866 0.866 0.5 -64.4236 464.8356)" class="st12" cx="370.4" cy="288.2" rx="1.2" ry="1.2"/>
		<ellipse transform="matrix(0.5 -0.866 0.866 0.5 -64.4224 468.5306)" class="st12" cx="373.6" cy="290.1" rx="1.2" ry="1.2"/>
		<path class="st12" d="M361.6,300c-0.1-0.6,0.3-1.2,1-1.3l2.4-0.4c0.6-0.1,1.2,0.3,1.3,1c0.1,0.6-0.3,1.2-1,1.3l-2.4,0.4
			C362.3,301,361.7,300.6,361.6,300z"/>
		
			<ellipse transform="matrix(0.9848 -0.1736 0.1736 0.9848 -46.2704 68.5376)" class="st12" cx="368.7" cy="298.8" rx="1.2" ry="1.2"/>
		
			<ellipse transform="matrix(0.9848 -0.1736 0.1736 0.9848 -46.0901 69.1764)" class="st12" cx="372.4" cy="298.1" rx="1.2" ry="1.2"/>
		<path class="st12" d="M369.4,313.4c-0.5-0.4-0.5-1.1-0.2-1.7l1.6-1.8c0.4-0.5,1.1-0.5,1.7-0.2s0.5,1.1,0.2,1.7l-1.6,1.8
			C370.6,313.8,369.8,313.8,369.4,313.4z"/>
		
			<ellipse transform="matrix(0.6428 -0.766 0.766 0.6428 -102.2943 396.4572)" class="st12" cx="374" cy="307.9" rx="1.2" ry="1.2"/>
		
			<ellipse transform="matrix(0.6428 -0.766 0.766 0.6428 -99.2792 397.2435)" class="st12" cx="376.3" cy="305.1" rx="1.2" ry="1.2"/>
	</g>
</g>
</svg>
