<?xml version="1.0" encoding="utf-8"?>
<!-- Generator: Adobe Illustrator 21.0.0, SVG Export Plug-In . SVG Version: 6.00 Build 0)  -->
<svg version="1.1" id="Layer_1" xmlns="http://www.w3.org/2000/svg" xmlns:xlink="http://www.w3.org/1999/xlink" x="0px" y="0px"
	 width="480px" height="480px" viewBox="0 0 480 480" style="enable-background:new 0 0 480 480;" xml:space="preserve">
<style type="text/css">
	.st0{fill:#FFFFFF;}
	.st1{fill:#E11C84;}
</style>
<rect class="st1" width="480" height="480"/>
<g>
	<path class="st0" d="M79.5,368.8l17.4,9.7c0.1,0.1,0.2,0.1,0.3,0.1c0.1,0,0.2,0,0.3-0.1L115,370c0.2-0.1,0.4-0.3,0.4-0.6
		c0-0.3-0.1-0.5-0.4-0.6L97.6,359c-0.2-0.1-0.4-0.1-0.6,0l-17.4,8.5c-0.2,0.1-0.4,0.3-0.4,0.6C79.2,368.4,79.3,368.6,79.5,368.8z
		 M97.3,360.4l15.9,8.9l-15.9,7.8l-15.9-8.9L97.3,360.4z"/>
	<path class="st0" d="M115,376.8l-4-2.2c-0.3-0.2-0.8-0.1-0.9,0.3c-0.2,0.3-0.1,0.8,0.3,0.9l2.8,1.6l-15.9,7.8l-15.9-8.9l0.9-0.4
		c0.3-0.2,0.5-0.6,0.3-0.9c-0.2-0.3-0.6-0.5-0.9-0.3l-2.1,1c-0.2,0.1-0.4,0.3-0.4,0.6c0,0.3,0.1,0.5,0.4,0.6l17.4,9.7
		c0.1,0.1,0.2,0.1,0.3,0.1c0.1,0,0.2,0,0.3-0.1L115,378c0.2-0.1,0.4-0.3,0.4-0.6C115.4,377.2,115.3,376.9,115,376.8z"/>
	<path class="st0" d="M115,384.9l-4-2.2c-0.3-0.2-0.8-0.1-0.9,0.3c-0.2,0.3-0.1,0.8,0.3,0.9l2.8,1.6l-15.9,7.8l-15.9-8.9l0.9-0.4
		c0.3-0.2,0.5-0.6,0.3-0.9c-0.2-0.3-0.6-0.5-0.9-0.3l-2.1,1c-0.2,0.1-0.4,0.3-0.4,0.6c0,0.3,0.1,0.5,0.4,0.6l17.4,9.7
		c0.1,0.1,0.2,0.1,0.3,0.1c0.1,0,0.2,0,0.3-0.1l17.4-8.5c0.2-0.1,0.4-0.3,0.4-0.6C115.4,385.2,115.3,385,115,384.9z"/>
	<path class="st0" d="M97.3,223.5c-8.8,0-15.9,7.1-15.9,15.9s7.1,15.9,15.9,15.9c8.8,0,15.9-7.1,15.9-15.9S106.1,223.5,97.3,223.5
		 M97.3,256.6c-9.5,0-17.2-7.7-17.2-17.2s7.7-17.2,17.2-17.2c9.5,0,17.2,7.7,17.2,17.2S106.8,256.6,97.3,256.6"/>
	<path class="st0" d="M95.2,245.7h-6.8c-0.3,0-0.5-0.2-0.6-0.4c-0.1-0.2,0-0.5,0.1-0.7l5.8-5.8c0.5-0.5,0.8-1.2,0.8-1.9
		c0-1.5-1.2-2.6-2.6-2.6c-1.5,0-2.6,1.2-2.6,2.6c0,0.4-0.3,0.6-0.6,0.6c-0.4,0-0.6-0.3-0.6-0.6c0-2.2,1.8-3.9,3.9-3.9
		c2.2,0,3.9,1.8,3.9,3.9c0,1-0.4,2-1.1,2.8l-4.7,4.7h5.2c0.4,0,0.6,0.3,0.6,0.6S95.5,245.7,95.2,245.7"/>
	<path class="st0" d="M102.1,245.7c-1.8,0-3.5-1.1-4.3-2.7c-0.1-0.3,0-0.7,0.3-0.8c0.3-0.1,0.7,0,0.8,0.3c0.6,1.2,1.8,2,3.1,2
		c1.9,0,3.4-1.5,3.4-3.4c0-1.9-1.5-3.4-3.4-3.4c-1,0-1.9,0.4-2.5,1.1c-0.2,0.2-0.5,0.3-0.8,0.1c-0.3-0.1-0.4-0.4-0.4-0.7l0.8-4.6
		c0.1-0.3,0.3-0.5,0.6-0.5h5.6c0.4,0,0.6,0.3,0.6,0.6c0,0.4-0.3,0.6-0.6,0.6h-5.1l-0.4,2.5c0.7-0.3,1.4-0.5,2.1-0.5
		c2.6,0,4.7,2.1,4.7,4.7C106.8,243.6,104.7,245.7,102.1,245.7"/>
	<path class="st0" d="M228.8,224.8c-7.6,0-9.6,6.6-9.6,10.6c0,8,10.1,16.2,17.4,18.6c7.3-2.4,17.4-10.6,17.4-18.6
		c0-3.9-2-10.6-9.6-10.6c-4.1,0-7.2,4.3-7.3,4.3c-0.2,0.3-0.8,0.3-1,0C236,229.1,232.9,224.8,228.8,224.8 M236.6,255.3
		c-0.1,0-0.1,0-0.2,0c-7.7-2.5-18.5-11.2-18.5-19.9c0-8.2,5.5-11.8,10.9-11.8c3.7,0,6.6,2.9,7.8,4.2c1.1-1.3,4-4.2,7.8-4.2
		c5.4,0,10.9,3.7,10.9,11.8c0,8.7-10.8,17.4-18.5,19.9C236.7,255.3,236.7,255.3,236.6,255.3"/>
	<g>
		<path class="st0" d="M390.7,220.3h-13.4c-0.2,0-0.3,0.1-0.5,0.2l-16.2,16.2c-0.3,0.3-0.3,0.7,0,0.9l3.2,3.2l-3.2,3.2
			c-0.3,0.3-0.3,0.7,0,0.9l13.4,13.4c0.1,0.1,0.3,0.2,0.5,0.2s0.3-0.1,0.5-0.2l16.2-16.2c0.1-0.1,0.2-0.3,0.2-0.5v-7.2v-6.1V221
			C391.3,220.6,391,220.3,390.7,220.3z M377.6,221.6l12.4,0v6.6v5.9l-15.6,15.6L362,237.2L377.6,221.6z M374.4,256.9L362,244.4
			l2.7-2.7l9.3,9.3c0.1,0.1,0.3,0.2,0.5,0.2s0.3-0.1,0.5-0.2l15.1-15.1v5.4L374.4,256.9z"/>
		
			<ellipse transform="matrix(0.7071 -0.7071 0.7071 0.7071 -46.5786 339.0116)" class="st0" cx="385.9" cy="225.7" rx="1.1" ry="1.1"/>
	</g>
	<g>
		<path class="st0" d="M218,109.4c0.4,0,0.6-0.3,0.7-0.6c0.2-9.8,8.1-17.4,17.9-17.4c9.8,0,17.6,7.7,17.9,17.4
			c0,0.3,0.3,0.6,0.6,0.6h0c0.4,0,0.6-0.3,0.6-0.7c-0.2-8.8-6.2-15.9-14.2-18c0,0,0,0,0,0c0-2.7-2.2-4.9-4.9-4.9
			c-2.7,0-4.9,2.2-4.9,4.9c0,0,0,0,0,0c-8.1,2.1-14,9.3-14.2,18C217.4,109.1,217.7,109.4,218,109.4z M236.6,87.1
			c1.9,0,3.5,1.5,3.6,3.4c-1.2-0.2-2.4-0.3-3.6-0.3c-1.2,0-2.5,0.1-3.6,0.3C233.1,88.5,234.7,87.1,236.6,87.1z"/>
		<path class="st0" d="M259.7,107.2c-0.3-0.2-0.7,0-0.9,0.3l-1.1,2.1c-0.8,1.5-2.4,2.5-4.2,2.5h-34.1c-1.7,0-3.3-1-4.2-2.5l-1.1-2.1
			c-0.2-0.3-0.6-0.4-0.9-0.3c-0.3,0.2-0.4,0.6-0.3,0.9l1.1,2.1c1,2,3.1,3.2,5.3,3.2h4l0.9,1.7c1,2,3.1,3.2,5.3,3.2h13.7
			c2.2,0,4.2-1.2,5.3-3.2l0.9-1.7h4c2.2,0,4.2-1.2,5.3-3.2l1.1-2.1C260.2,107.8,260,107.4,259.7,107.2z M247.6,114.4
			c-0.8,1.5-2.4,2.5-4.2,2.5h-13.7c-1.7,0-3.3-1-4.2-2.5l-0.6-1.1h23.2L247.6,114.4z"/>
	</g>
	<g>
		<path class="st0" d="M115.2,99.3h-1.8v-9c0-0.4-0.3-0.6-0.6-0.6H111l-0.6-4.8c0-0.2-0.1-0.3-0.3-0.4c-0.1-0.1-0.3-0.1-0.5-0.1
			l-28,4.3c-0.3,0.1-0.6,0.4-0.5,0.7l0,0.3h-1.8c-0.4,0-0.6,0.3-0.6,0.6v28.6c0,0.4,0.3,0.6,0.6,0.6h33.4c0.4,0,0.6-0.3,0.6-0.6v-9
			h1.8c0.4,0,0.6-0.3,0.6-0.6V100C115.9,99.6,115.6,99.3,115.2,99.3z M109.2,85.7l0.5,4H83.5L109.2,85.7z M112.2,118.3H80V91h30.4
			c0,0,0,0,0,0c0,0,0,0,0,0h1.7v8.4h-11.5c-0.4,0-0.6,0.3-0.6,0.6v9.2c0,0.4,0.3,0.6,0.6,0.6h11.5V118.3z M114.6,108.6h-1.8
			c0,0,0,0,0,0s0,0,0,0h-11.5v-8h13.2V108.6z"/>
		<circle class="st0" cx="105.6" cy="104.6" r="1.1"/>
	</g>
	<path class="st0" d="M391.8,93.2C391.8,93.1,391.8,93.1,391.8,93.2c0-0.2-0.1-0.3-0.2-0.3l0,0l0,0l-7.4-7.4l0,0l0,0c0,0,0,0,0,0
		c-0.1-0.1-0.2-0.1-0.3-0.1c0,0,0,0-0.1,0c0,0,0,0-0.1,0h-12.7c-1.3,0-2.3,1-2.3,2.3v2.9h-6.7c-1.3,0-2.3,1-2.3,2.3v23.7
		c0,1.3,1,2.3,2.3,2.3h18.4c1.3,0,2.3-1,2.3-2.3v-2.9h6.7c1.3,0,2.3-1,2.3-2.3L391.8,93.2C391.8,93.2,391.8,93.2,391.8,93.2z
		 M384.4,87.3l5.4,5.4h-4.3c-0.6,0-1.1-0.5-1.1-1.1V87.3z M380.6,117.5h-18.4c-0.6,0-1.1-0.5-1.1-1.1V92.7c0-0.6,0.5-1.1,1.1-1.1
		h12.1v5.1c0,1.3,1,2.3,2.3,2.3h5.1v17.4C381.7,117,381.2,117.5,380.6,117.5z M380.8,97.8h-4.3c-0.6,0-1.1-0.5-1.1-1.1v-4.3
		L380.8,97.8z M389.6,112.3h-6.7V98.4c0,0,0-0.1,0-0.1c0,0,0,0,0-0.1c0-0.1-0.1-0.2-0.1-0.3c0,0,0,0,0,0l-7.4-7.4c0,0,0,0,0,0
		c-0.1-0.1-0.2-0.1-0.3-0.1c0,0,0,0-0.1,0c0,0,0,0-0.1,0h-4.8v-2.9c0-0.6,0.5-1.1,1.1-1.1h12.1v5.1c0,1.3,1,2.3,2.3,2.3h5.1v17.4
		C390.6,111.8,390.2,112.3,389.6,112.3z"/>
	<path class="st0" d="M385.9,389l-11.1,3.3v-19.6l4.6,6.5c0.1,0.2,0.3,0.3,0.5,0.3c0.1,0,0.1,0,0.2,0l4.2-1.2
		c0.3-0.1,0.5-0.4,0.4-0.8c-0.1-0.3-0.4-0.5-0.8-0.4l-3.8,1.1l-4.9-7l7.4-2.2l8.7-2.6l2.9,4.1c0.2,0.3,0.6,0.3,0.9,0.1
		c0.3-0.2,0.3-0.6,0.1-0.9l-3.1-4.4c-0.1-0.2-0.2-0.3-0.4-0.4l-17.5-5.1c-0.1,0-0.2,0-0.3,0l-17.4,5.1c0,0,0,0,0,0
		c-0.1,0-0.1,0.1-0.2,0.1c0,0-0.1,0-0.1,0.1c0,0,0,0,0,0l-5.7,8.1c-0.1,0.2-0.1,0.4-0.1,0.6c0.1,0.2,0.2,0.3,0.4,0.4l5.2,1.5V388
		c0,0.3,0.2,0.5,0.4,0.6l17.4,5.1c0.1,0,0.1,0,0.2,0s0.1,0,0.2,0l11.9-3.5c0.3-0.1,0.5-0.4,0.4-0.8
		C386.6,389.1,386.2,388.9,385.9,389z M374.2,361.1l15.3,4.5l-6.4,1.9l-8.9,2.6l-0.7-0.2l-14.6-4.3L374.2,361.1z M357,366.4
		l16.2,4.8l-4.9,7l-16.2-4.8L357,366.4z M357.4,376.2l11,3.2c0.1,0,0.1,0,0.2,0c0.2,0,0.4-0.1,0.5-0.3l4.5-6.4v19.6l-16.2-4.8V376.2
		z"/>
	<path class="st0" d="M393.6,371.7c-4.3,0-7.7,3.5-7.7,7.7c0,3,1.7,5.5,4.1,6.8l-2.9,6.7c-0.1,0.3,0,0.7,0.3,0.8c0.1,0,0.2,0,0.2,0
		c0.2,0,0.5-0.1,0.6-0.4l2.9-6.7c0.8,0.3,1.6,0.4,2.4,0.4c4.3,0,7.7-3.5,7.7-7.7C401.3,375.1,397.8,371.7,393.6,371.7z M393.6,385.9
		c-3.6,0-6.5-2.9-6.5-6.5c0-3.6,2.9-6.5,6.5-6.5c3.6,0,6.5,2.9,6.5,6.5C400,383,397.1,385.9,393.6,385.9z"/>
	<path class="st0" d="M246.1,394.4h-27.3v-4.5l14.3-7.2c0.2-0.1,0.4-0.3,0.4-0.6c0-0.2-0.2-0.5-0.4-0.6c-0.1,0-5.2-2.4-5.2-8.3v-4.8
		c0,0,0-0.1,0-0.1c0-1,0.1-4.3,2.3-6.7c1.5-1.6,3.7-2.4,6.6-2.4c2.8,0,5.1,0.8,6.6,2.4c2.1,2.3,2.3,5.7,2.3,6.7c0,0,0,0.1,0,0.1v4.8
		c0,5.8-5,8.2-5.2,8.3c-0.2,0.1-0.4,0.3-0.4,0.6c0,0.2,0.1,0.5,0.4,0.6l5.6,2.8c0.3,0.2,0.7,0,0.9-0.3c0.2-0.3,0-0.7-0.3-0.9
		l-4.5-2.3c1.7-1.1,4.9-3.9,4.9-8.8v-4.5c0-0.4,0.3-4.8-2.6-7.9c-1.8-1.9-4.3-2.9-7.5-2.9c-3.2,0-5.7,1-7.5,2.9
		c-2.8,3.1-2.6,7.5-2.6,7.9v4.5c0,5,3.2,7.7,4.9,8.8l-13.6,6.9c-0.2,0.1-0.4,0.3-0.4,0.6v5.5c0,0.4,0.3,0.6,0.6,0.6h28
		c0.4,0,0.6-0.3,0.6-0.6C246.7,394.7,246.5,394.4,246.1,394.4z"/>
	<path class="st0" d="M255,389.2h-4.6v-4.6c0-0.4-0.3-0.6-0.6-0.6s-0.6,0.3-0.6,0.6v4.6h-4.6c-0.4,0-0.6,0.3-0.6,0.6
		s0.3,0.6,0.6,0.6h4.6v4.6c0,0.4,0.3,0.6,0.6,0.6s0.6-0.3,0.6-0.6v-4.6h4.6c0.4,0,0.6-0.3,0.6-0.6S255.4,389.2,255,389.2z"/>
</g>
</svg>
