<?xml version="1.0" encoding="utf-8"?>
<!-- Generator: Adobe Illustrator 21.0.0, SVG Export Plug-In . SVG Version: 6.00 Build 0)  -->
<svg version="1.1" id="Layer_1" xmlns="http://www.w3.org/2000/svg" xmlns:xlink="http://www.w3.org/1999/xlink" x="0px" y="0px"
	 width="480px" height="480px" viewBox="0 0 480 480" style="enable-background:new 0 0 480 480;" xml:space="preserve">
<style type="text/css">
	.st0{fill:#FFFFFF;}
	.st1{fill:#E11C84;}
</style>
<rect class="st1" width="480" height="480"/>
<g>
	<path class="st0" d="M109.3,86.5H85.2c-2.7,0-4.8,2.2-4.8,4.9v24.1c0,2.7,2.2,4.8,4.8,4.8h24.1c2.7,0,4.8-2.2,4.8-4.8V91.3
		C114.1,88.6,112,86.5,109.3,86.5z M112.9,115.4c0,2-1.6,3.6-3.6,3.6H85.2c-2,0-3.6-1.6-3.6-3.6V91.3c0-2,1.6-3.6,3.6-3.6h24.1
		c2,0,3.6,1.6,3.6,3.6V115.4z"/>
	<path class="st0" d="M94.1,96.4h-2.7v-2.7c0-0.4-0.3-0.6-0.6-0.6c-0.4,0-0.6,0.3-0.6,0.6v2.7h-2.7c-0.4,0-0.6,0.3-0.6,0.6
		s0.3,0.6,0.6,0.6h2.7v2.7c0,0.4,0.3,0.6,0.6,0.6c0.4,0,0.6-0.3,0.6-0.6v-2.7h2.7c0.4,0,0.6-0.3,0.6-0.6S94.4,96.4,94.1,96.4z"/>
	<path class="st0" d="M91.6,110l2.6-2.6c0.2-0.2,0.2-0.7,0-0.9c-0.2-0.2-0.7-0.2-0.9,0l-2.6,2.6l-2.6-2.6c-0.2-0.2-0.7-0.2-0.9,0
		c-0.2,0.2-0.2,0.7,0,0.9l2.6,2.6l-2.6,2.6c-0.2,0.2-0.2,0.7,0,0.9c0.1,0.1,0.3,0.2,0.5,0.2c0.2,0,0.3-0.1,0.5-0.2l2.6-2.6l2.6,2.6
		c0.1,0.1,0.3,0.2,0.5,0.2c0.2,0,0.3-0.1,0.5-0.2c0.2-0.2,0.2-0.7,0-0.9L91.6,110z"/>
	<path class="st0" d="M107.2,96.4h-6.8c-0.4,0-0.6,0.3-0.6,0.6s0.3,0.6,0.6,0.6h6.8c0.4,0,0.6-0.3,0.6-0.6S107.6,96.4,107.2,96.4z"
		/>
	<path class="st0" d="M107.2,107.3h-6.8c-0.4,0-0.6,0.3-0.6,0.6c0,0.4,0.3,0.6,0.6,0.6h6.8c0.4,0,0.6-0.3,0.6-0.6
		C107.9,107.6,107.6,107.3,107.2,107.3z"/>
	<path class="st0" d="M107.2,111.6h-6.8c-0.4,0-0.6,0.3-0.6,0.6s0.3,0.6,0.6,0.6h6.8c0.4,0,0.6-0.3,0.6-0.6S107.6,111.6,107.2,111.6
		z"/>
	<g>
		<path class="st0" d="M391.4,227.9L391.4,227.9c-0.4,0-0.7,0.3-0.7,0.7c0,0.4,0.3,0.7,0.7,0.7h0c1.1,0,2.2,0.4,3,1.3
			c0.8,0.8,1.3,1.9,1.3,3c0,0.4,0.3,0.7,0.7,0.7c0.4,0,0.7-0.3,0.7-0.7c0-1.5-0.6-2.9-1.6-4C394.4,228.4,392.9,227.9,391.4,227.9z"
			/>
		<path class="st0" d="M398,226.9c-1.7-1.7-4.1-2.7-6.5-2.7h0c-0.4,0-0.7,0.3-0.7,0.7c0,0.4,0.3,0.7,0.7,0.7h0
			c2.1,0,4.1,0.8,5.6,2.3c1.5,1.5,2.3,3.5,2.3,5.6c0,0.4,0.3,0.7,0.7,0.7c0.4,0,0.7-0.3,0.7-0.7C400.7,231,399.8,228.6,398,226.9z"
			/>
		<path class="st0" d="M393.3,234.2c0-1.4-1.1-2.5-2.5-2.5h-31.1c-1.4,0-2.5,1.1-2.5,2.5v20.2c0,1.4,1.1,2.5,2.5,2.5h31.1
			c1.4,0,2.5-1.1,2.5-2.5v-11.1c0,0,0,0,0,0v-4.4l0,0V234.2z M359.6,233h31.1c0.6,0,1.2,0.5,1.2,1.2v4.1h-33.5v-4.1
			C358.5,233.5,359,233,359.6,233z M391.9,239.6v3h-33.4v-3H391.9z M390.8,255.5h-31.1c-0.6,0-1.2-0.5-1.2-1.2v-10.4h33.5v10.4
			C391.9,255,391.4,255.5,390.8,255.5z"/>
		<path class="st0" d="M387.5,249.8h-10.4c-0.4,0-0.7,0.3-0.7,0.7c0,0.4,0.3,0.7,0.7,0.7h10.4c0.4,0,0.7-0.3,0.7-0.7
			C388.2,250.1,387.9,249.8,387.5,249.8z"/>
	</g>
	<g>
		<path class="st0" d="M356.5,93.9v8.7h2.4v19.1h32.7v-19.1h2.4v-8.7H356.5z M373,120.4h-12.8v-17.8H373V120.4z M373,101.3h-14.1
			h-1.1v-6.1H373V101.3z M376.2,120.4h-1.9v-17.8h1.9V120.4z M376.2,101.3h-1.9v-6.1h1.9V101.3z M390.4,120.4h-12.8v-17.8h12.8
			V120.4z M392.7,101.3h-1.1h-14.1v-6.1h15.2V101.3z"/>
		<path class="st0" d="M364.4,91.3c0.2,0.1,0.4,0.1,0.7,0.1c0.2,0,0.5,0,0.7,0h0l9.5,0l9.5,0h0c0.2,0,0.5,0,0.7,0
			c0.2,0,0.4-0.1,0.7-0.1c1.2-0.3,2.1-1,2.5-2c0.3-0.7,0.3-1.6,0-2.3c-0.8-1.7-3.1-2.5-5.2-1.9c-0.5,0.1-1,0.4-1.4,0.6
			c-0.1,0.1-2.4,1.5-4.3,2.7c-0.6-0.7-1.6-1.1-2.5-1.1c-1,0-1.9,0.4-2.5,1.1c-2-1.2-4.2-2.7-4.3-2.7c-0.4-0.3-0.9-0.5-1.4-0.7
			c-2.1-0.6-4.4,0.3-5.2,1.9c-0.4,0.7-0.4,1.6,0,2.3C362.3,90.2,363.2,91,364.4,91.3z M382.8,86.8c0.3-0.2,0.6-0.4,1-0.5
			c1.5-0.4,3.2,0.2,3.7,1.2c0.2,0.4,0.2,0.8,0,1.2c-0.3,0.6-0.9,1-1.7,1.3c-0.2,0-0.3,0.1-0.5,0.1c-0.2,0-0.3,0-0.5,0l-7.3,0
			C379.6,88.9,382.7,86.9,382.8,86.8z M375.3,88.6c0.5,0,1,0.2,1.4,0.5c-0.6,0.4-1.1,0.7-1.4,0.9c-0.3-0.2-0.8-0.5-1.4-0.9
			C374.3,88.8,374.7,88.6,375.3,88.6z M363.1,87.6c0.4-0.8,1.5-1.4,2.7-1.4c0.3,0,0.7,0,1,0.1c0.4,0.1,0.7,0.3,1,0.5
			c0.1,0.1,3.2,2,5.3,3.3l-7.3,0c-0.2,0-0.3,0-0.5,0c-0.2,0-0.3-0.1-0.5-0.1c-0.8-0.2-1.4-0.7-1.7-1.3
			C362.9,88.4,362.9,88,363.1,87.6z"/>
	</g>
	<g>
		<path class="st0" d="M253.2,230.6h-1.1l-1.8-5c-0.2-0.4-0.5-0.8-0.9-1c-0.4-0.2-0.9-0.2-1.3-0.1l-16.7,6h-11.7
			c-1,0-1.8,0.8-1.8,1.8V255c0,1,0.8,1.8,1.8,1.8h33.5c1,0,1.8-0.8,1.8-1.8v-22.6C255,231.4,254.2,230.6,253.2,230.6z M248.5,225.8
			c0.1,0,0.2,0,0.3,0c0.1,0,0.2,0.1,0.2,0.2l1.6,4.5h-15.4L248.5,225.8z M253.7,255c0,0.3-0.2,0.5-0.5,0.5h-33.5
			c-0.3,0-0.5-0.2-0.5-0.5v-22.6c0-0.3,0.2-0.5,0.5-0.5h33.5c0.3,0,0.5,0.2,0.5,0.5V255z"/>
		<path class="st0" d="M240.3,248.5c0,0-1.8,0.1-3.6-1.1c-0.6-0.4-1.1-0.5-1.7-0.5c0.2-0.5,0.3-0.9,0.3-1.4h2.3
			c0.4,0,0.7-0.3,0.7-0.7s-0.3-0.7-0.7-0.7h-2.3c0-0.3-0.1-0.5-0.1-0.7h2.4c0.4,0,0.7-0.3,0.7-0.7c0-0.4-0.3-0.7-0.7-0.7h-2.8
			c0-0.3-0.1-0.5-0.1-0.9c0-0.6,0.2-1.1,0.6-1.6c0.4-0.4,1-0.7,1.7-0.7c1.3,0,2.3,1,2.3,2.3c0,0.4,0.3,0.7,0.7,0.7
			c0.4,0,0.7-0.3,0.7-0.7c0-2-1.6-3.6-3.6-3.6c-1,0-1.9,0.4-2.6,1.1c-0.7,0.7-1,1.6-1,2.5c0,0.3,0,0.6,0.1,0.8h-0.9
			c-0.4,0-0.7,0.3-0.7,0.7c0,0.4,0.3,0.7,0.7,0.7h1.2c0,0.1,0,0.1,0,0.1c0,0,0.1,0.2,0.1,0.6h-1.4c-0.4,0-0.7,0.3-0.7,0.7
			s0.3,0.7,0.7,0.7h1.4c-0.1,0.7-0.4,1.5-1,2.2c-0.4,0.3-0.7,0.6-0.9,0.9c-0.2,0.3-0.1,0.7,0.2,0.9c0.3,0.2,0.7,0.1,0.9-0.1
			c0.1-0.1,0.3-0.4,0.6-0.7c0,0,0.1,0,0.1-0.1c0,0,0,0,0,0c0.5-0.4,1.3-0.7,2-0.1c1.8,1.2,3.6,1.3,4.2,1.3c0.1,0,0.2,0,0.2,0
			c0.4,0,0.6-0.3,0.6-0.7C241,248.7,240.7,248.4,240.3,248.5z"/>
	</g>
	<g>
		<path class="st0" d="M107.4,221.7H87.1c-1.2,0-2.2,1-2.2,2.2v33.6c0,1.2,1,2.2,2.2,2.2h20.3c1.2,0,2.2-1,2.2-2.2v-33.6
			C109.6,222.7,108.6,221.7,107.4,221.7z M108.3,257.5c0,0.5-0.4,0.8-0.8,0.8H87.1c-0.5,0-0.8-0.4-0.8-0.8v-5.7h22V257.5z
			 M108.3,250.4h-22v-21.5h22V250.4z M108.3,227.5h-22v-3.6c0-0.5,0.4-0.8,0.8-0.8h20.3c0.5,0,0.8,0.4,0.8,0.8V227.5z"/>
		<circle class="st0" cx="97.3" cy="255" r="1.5"/>
	</g>
	<path class="st0" d="M255,386.9v-4.4l0,0l0,0v-11.5c0-1.3-1.1-2.4-2.4-2.4h-12.1v-6.2c0-0.4-0.3-0.7-0.7-0.7h-6.8
		c-0.4,0-0.7,0.3-0.7,0.7v6.2h-12.1c-1.3,0-2.4,1.1-2.4,2.4V392c0,1.3,1.1,2.4,2.4,2.4h32.4c1.3,0,2.4-1.1,2.4-2.4V386.9L255,386.9
		L255,386.9z M219.3,383.1h34.4v3.1h-34.4V383.1z M233.1,372.1C233.1,372.1,233.1,372.1,233.1,372.1l6.8,0c0,0,0,0,0,0h0.7v0.9h-8.3
		v-0.9H233.1z M233.8,363h5.4v7.7h-5.4V363z M220.3,369.9h12.1v0.8h-0.7c-0.4,0-0.7,0.3-0.7,0.7v2.3c0,0.4,0.3,0.7,0.7,0.7h9.7
		c0.4,0,0.7-0.3,0.7-0.7v-2.3c0-0.4-0.3-0.7-0.7-0.7h-0.7v-0.8h12.1c0.6,0,1,0.4,1,1v10.8h-34.4v-10.8
		C219.3,370.4,219.7,369.9,220.3,369.9z M252.6,393h-32.4c-0.6,0-1-0.4-1-1v-4.4h34.4v4.4C253.6,392.6,253.2,393,252.6,393z"/>
	<g>
		<path class="st0" d="M114.6,375.5h-1.7v-8.8c0-0.3-0.3-0.6-0.6-0.6h-1.7l-0.6-4.7c0-0.2-0.1-0.3-0.2-0.4c-0.1-0.1-0.3-0.1-0.5-0.1
			l-27.2,4.2c-0.3,0.1-0.6,0.4-0.5,0.7l0,0.3h-1.7c-0.3,0-0.6,0.3-0.6,0.6v27.7c0,0.3,0.3,0.6,0.6,0.6h32.4c0.3,0,0.6-0.3,0.6-0.6
			v-8.8h1.7c0.3,0,0.6-0.3,0.6-0.6v-9C115.3,375.8,115,375.5,114.6,375.5z M108.8,362.3l0.5,3.9H83.9L108.8,362.3z M111.7,393.8
			H80.5v-26.5H110c0,0,0,0,0,0c0,0,0,0,0,0h1.7v8.1h-11.1c-0.3,0-0.6,0.3-0.6,0.6v9c0,0.3,0.3,0.6,0.6,0.6h11.1V393.8z M114,384.5
			h-1.7c0,0,0,0,0,0s0,0,0,0h-11.1v-7.7h11.1c0,0,0,0,0,0l0,0h1.7V384.5z"/>
		<circle class="st0" cx="105.3" cy="380.6" r="1"/>
	</g>
	<g>
		<circle class="st0" cx="366.2" cy="392.1" r="2.1"/>
		<circle class="st0" cx="386.8" cy="392.1" r="2.1"/>
		<path class="st0" d="M389.1,382L389.1,382c0.3,0,0.5-0.2,0.6-0.4l4.8-14.3c0.1-0.2,0-0.4-0.1-0.6c-0.1-0.2-0.3-0.3-0.5-0.3h-31.4
			l-1-4.2c-0.1-0.3-0.3-0.5-0.6-0.5h-3.3c-0.4,0-0.6,0.3-0.6,0.6c0,0.4,0.3,0.6,0.6,0.6h2.8l1,4.2c0,0,0,0,0,0l3.3,14.1l-1.1,4.6
			c0,0.2,0,0.4,0.1,0.5c0.1,0.2,0.3,0.2,0.5,0.2H391c0.4,0,0.6-0.3,0.6-0.6c0-0.4-0.3-0.6-0.6-0.6h-26.1l0.8-3.5L389.1,382z
			 M392.9,367.7l-4.3,13.1l-22.9-0.1l-3-13H392.9z"/>
	</g>
	<path class="st0" d="M251.3,101.6c0-9.1-7.4-16.6-16.6-16.6c-9.1,0-16.6,7.4-16.6,16.6c0,9.1,7.4,16.6,16.6,16.6
		c0.4,0,0.6-0.3,0.6-0.6v-15.3h15.3C251.1,102.3,251.3,102,251.3,101.6z M234.8,101c-0.4,0-0.6,0.3-0.6,0.6v15.3
		c-8.1-0.3-14.7-7.1-14.7-15.3c0-8.4,6.9-15.3,15.3-15.3c8.2,0,15,6.5,15.3,14.7H234.8z"/>
	<path class="st0" d="M250.6,116c1.4-1.5,2.4-3.3,3.1-5.3c0-0.1,0.1-0.1,0.1-0.2c0.6-1.7,0.9-3.5,0.9-5.4c0-0.4-0.3-0.6-0.6-0.6
		h-15.9c-0.4,0-0.6,0.3-0.6,0.6V121c0,0.4,0.3,0.6,0.6,0.6c4.9,0,9.2-2.1,12.2-5.4C250.5,116.1,250.6,116.1,250.6,116z M238.8,115
		v-4h13.4c-0.6,1.5-1.5,2.8-2.5,4H238.8z M253.5,105.7c-0.1,1.4-0.3,2.8-0.7,4h-13.9v-4H253.5z M238.8,116.3h9.7
		c-2.6,2.4-6,3.9-9.7,4V116.3z"/>
</g>
</svg>
