<?xml version="1.0" encoding="utf-8"?>
<!-- Generator: Adobe Illustrator 21.1.0, SVG Export Plug-In . SVG Version: 6.00 Build 0)  -->
<svg version="1.1" id="Layer_1" xmlns="http://www.w3.org/2000/svg" xmlns:xlink="http://www.w3.org/1999/xlink" x="0px" y="0px"
	 viewBox="0 0 800 755" style="enable-background:new 0 0 800 755;" xml:space="preserve">
<style type="text/css">
	.st0{fill:#F1F4F6;}
	.st1{fill:#4D4F5B;}
	.st2{clip-path:url(#SVGID_2_);fill:#F4A48F;}
	.st3{fill:#FFFFFF;}
	.st4{clip-path:url(#SVGID_4_);fill:#DBE2E6;}
	.st5{fill:#D1D9DE;}
	.st6{fill:#787C89;}
	.st7{clip-path:url(#SVGID_6_);fill:#787C89;}
	.st8{clip-path:url(#SVGID_8_);fill:#787C89;}
	.st9{clip-path:url(#SVGID_10_);fill:#787C89;}
	.st10{clip-path:url(#SVGID_12_);fill:#787C89;}
	.st11{clip-path:url(#SVGID_14_);fill:#787C89;}
	.st12{fill:#DBE2E6;}
	.st13{fill:#F4A48F;}
	.st14{clip-path:url(#SVGID_16_);fill:#DBE2E6;}
	.st15{clip-path:url(#SVGID_18_);fill:#787C89;}
	.st16{clip-path:url(#SVGID_20_);fill:#787C89;}
	.st17{clip-path:url(#SVGID_22_);fill:#787C89;}
	.st18{clip-path:url(#SVGID_24_);fill:#787C89;}
	.st19{clip-path:url(#SVGID_26_);fill:#787C89;}
	.st20{clip-path:url(#SVGID_28_);fill:#787C89;}
</style>
<rect class="st0" width="800" height="755"/>
<g>
	<rect x="411.4" y="81.8" class="st1" width="343.6" height="486"/>
	<g>
		<g>
			<defs>
				<rect id="SVGID_1_" x="411.4" y="81.8" width="343.6" height="486"/>
			</defs>
			<clipPath id="SVGID_2_">
				<use xlink:href="#SVGID_1_"  style="overflow:visible;"/>
			</clipPath>
			<path class="st2" d="M585,306.4c-0.1,0-0.2,0.1-0.2,0.2v15c0,0.1,0.1,0.2,0.2,0.1c3.6-1.5,6.9-4.1,6.9-8.6c0-2.1-1-4-2.6-5.2
				C588.1,307,586.6,306.5,585,306.4 M581.9,346.3c-2.3,0-4.5-0.6-6.3-1.8c-3-2-4.7-5.3-4.5-9c0.3-5.2,4.3-10,10.1-12.4
				c0.1,0,0.2-0.1,0.2-0.3V304c0-0.2,0.2-0.4,0.4-0.4l1-0.2c3.2-0.5,6.3,0.2,8.8,2c2.4,1.9,3.8,4.6,3.8,7.6c0,5.5-3.7,9.7-10.4,12
				c-0.1,0-0.2,0.1-0.2,0.3v7.8c0,0.2-0.1,0.3-0.3,0.4l-2.7,0.7c-0.2,0-0.4-0.1-0.4-0.3v-7.1c0-0.1-0.1-0.2-0.3-0.1
				c-3.9,2-6.4,5.4-6.6,9c-0.1,2.6,1,4.9,3.1,6.3c1.8,1.2,4.2,1.5,6.8,0.9c0.2,0,0.4,0.1,0.4,0.3v2.5c0,0.2-0.1,0.4-0.3,0.4
				C583.6,346.2,582.7,346.3,581.9,346.3"/>
		</g>
	</g>
</g>
<g>
	<g>
		<rect x="46" y="42" class="st3" width="343.6" height="486"/>
		<g>
			<g>
				<defs>
					<rect id="SVGID_3_" x="46" y="42" width="343.6" height="486"/>
				</defs>
				<clipPath id="SVGID_4_">
					<use xlink:href="#SVGID_3_"  style="overflow:visible;"/>
				</clipPath>
				<path class="st4" d="M69.1,492.2c-0.1,0-0.1,0-0.1,0.1v7.3c0,0.1,0.1,0.1,0.1,0.1c1.7-0.7,3.4-2,3.4-4.2c0-1-0.5-1.9-1.3-2.6
					C70.7,492.5,69.9,492.2,69.1,492.2 M67.6,511.6c-1.1,0-2.2-0.3-3.1-0.9c-1.5-1-2.3-2.6-2.2-4.4c0.1-2.5,2.1-4.9,4.9-6
					c0.1,0,0.1-0.1,0.1-0.1V491c0-0.1,0.1-0.2,0.2-0.2l0.5-0.1c1.6-0.3,3.1,0.1,4.3,1c1.2,0.9,1.9,2.3,1.9,3.7
					c0,2.7-1.8,4.7-5.1,5.9c-0.1,0-0.1,0.1-0.1,0.1v3.8c0,0.1-0.1,0.2-0.2,0.2l-1.3,0.3c-0.1,0-0.2,0-0.2-0.1v-3.5
					c0-0.1-0.1-0.1-0.1-0.1c-1.9,1-3.1,2.6-3.2,4.4c-0.1,1.3,0.5,2.4,1.5,3.1c0.9,0.6,2.1,0.8,3.3,0.5c0.1,0,0.2,0,0.2,0.1v1.2
					c0,0.1-0.1,0.2-0.2,0.2C68.4,511.6,68,511.6,67.6,511.6"/>
			</g>
		</g>
		<g>
			<path class="st5" d="M226.3,491.8l-0.5,0.5l-0.3-0.3l0.8-0.8h0.4v3.1h-0.5v-2.5H226.3z"/>
			<path class="st5" d="M227.8,494c1.2-0.9,1.7-1.3,1.7-1.8c0-0.4-0.3-0.5-0.6-0.5c-0.4,0-0.6,0.2-0.8,0.4l-0.3-0.3
				c0.3-0.3,0.7-0.5,1.1-0.5c0.6,0,1.1,0.3,1.1,0.9s-0.6,1.1-1.4,1.8h1.4v0.4h-2.2V494z"/>
			<path class="st5" d="M231.1,493.6c0.2,0.2,0.5,0.4,0.9,0.4s0.7-0.2,0.7-0.5s-0.3-0.5-0.7-0.5c-0.1,0-0.3,0-0.3,0v-0.4
				c0.1,0,0.2,0,0.3,0c0.4,0,0.7-0.1,0.7-0.5c0-0.3-0.3-0.5-0.7-0.5c-0.3,0-0.6,0.1-0.8,0.4l-0.2-0.3c0.2-0.3,0.6-0.5,1.1-0.5
				c0.6,0,1.1,0.3,1.1,0.8c0,0.4-0.4,0.7-0.7,0.7c0.3,0,0.7,0.3,0.7,0.8s-0.4,0.9-1.1,0.9c-0.5,0-0.9-0.2-1.1-0.5L231.1,493.6z"/>
			<path class="st5" d="M235.9,493.5c0.2,0.2,0.5,0.4,1,0.4s0.7-0.3,0.7-0.5c0-0.3-0.4-0.4-0.7-0.5c-0.5-0.1-1.1-0.3-1.1-0.9
				c0-0.5,0.4-0.9,1.1-0.9c0.5,0,0.8,0.2,1.1,0.4l-0.3,0.3c-0.2-0.2-0.6-0.4-0.9-0.4c-0.3,0-0.6,0.2-0.6,0.4c0,0.3,0.3,0.4,0.7,0.5
				c0.5,0.1,1.1,0.3,1.1,0.9c0,0.5-0.3,0.9-1.2,0.9c-0.5,0-1-0.2-1.2-0.5L235.9,493.5z"/>
			<path class="st5" d="M240.4,491.2c0.9,0,1.6,0.7,1.6,1.6s-0.6,1.6-1.6,1.6c-0.9,0-1.6-0.7-1.6-1.6
				C238.9,491.9,239.5,491.2,240.4,491.2z M240.4,491.6c-0.7,0-1.1,0.5-1.1,1.2s0.4,1.2,1.1,1.2c0.7,0,1.1-0.5,1.1-1.2
				S241.1,491.6,240.4,491.6z"/>
			<path class="st5" d="M245.6,491.9l-1,2.4h-0.2l-1-2.4v2.4H243v-3.1h0.7l0.9,2.2l0.9-2.2h0.7v3.1h-0.5L245.6,491.9L245.6,491.9z"
				/>
			<path class="st5" d="M247.2,491.2h2.1v0.4h-1.6v0.9h1.6v0.4h-1.6v1h1.6v0.4h-2.1V491.2z"/>
			<path class="st5" d="M252.1,491.9l-0.6,2.4H251l-0.9-3.1h0.5l0.6,2.5l0.7-2.5h0.4l0.7,2.5l0.6-2.5h0.5l-0.9,3.1h-0.5L252.1,491.9
				z"/>
			<path class="st5" d="M257.1,492.9h-1.7v1.4h-0.5v-3.1h0.5v1.3h1.7v-1.3h0.5v3.1h-0.5V492.9z"/>
			<path class="st5" d="M258.7,491.2h2.1v0.4h-1.6v0.9h1.6v0.4h-1.6v1h1.6v0.4h-2.1V491.2z"/>
			<path class="st5" d="M262.8,493.1h-0.6v1.2h-0.5v-3.1h1.3c0.6,0,1,0.4,1,0.9c0,0.6-0.4,0.8-0.8,0.9l0.8,1.2h-0.5L262.8,493.1z
				 M263,491.6h-0.8v1.1h0.8c0.3,0,0.6-0.2,0.6-0.5C263.6,491.9,263.4,491.6,263,491.6z"/>
			<path class="st5" d="M265.1,491.2h2.1v0.4h-1.6v0.9h1.6v0.4h-1.6v1h1.6v0.4h-2.1V491.2z"/>
		</g>
		<g>
			<path class="st5" d="M235,499.9h1.4c0.5,0,0.9,0.3,0.9,0.8c0,0.4-0.3,0.6-0.5,0.7c0.3,0.1,0.6,0.4,0.6,0.8c0,0.5-0.3,0.8-0.9,0.8
				H235V499.9z M236.3,501.2c0.3,0,0.5-0.2,0.5-0.4c0-0.3-0.2-0.5-0.5-0.5h-0.9v0.9H236.3z M236.3,502.6c0.3,0,0.5-0.2,0.5-0.5
				s-0.2-0.5-0.5-0.5h-0.9v1H236.3z"/>
			<path class="st5" d="M238.4,499.9h0.5v3.1h-0.5V499.9z"/>
			<path class="st5" d="M241,501.8h-0.6v1.2H240v-3.1h1.3c0.6,0,1,0.4,1,0.9c0,0.6-0.4,0.8-0.8,0.9l0.8,1.2h-0.5L241,501.8z
				 M241.2,500.3h-0.8v1.1h0.8c0.3,0,0.6-0.2,0.6-0.5C241.8,500.5,241.6,500.3,241.2,500.3z"/>
			<path class="st5" d="M245.9,500.5l-1,2.4h-0.2l-1-2.4v2.4h-0.5v-3.1h0.7l0.9,2.2l0.9-2.2h0.7v3.1h-0.5L245.9,500.5L245.9,500.5z"
				/>
			<path class="st5" d="M247.6,499.9h0.5v3.1h-0.5V499.9z"/>
			<path class="st5" d="M249.6,500.6v2.4h-0.5v-3.1h0.5l1.7,2.3v-2.3h0.5v3.1h-0.4L249.6,500.6z"/>
			<path class="st5" d="M254.4,499.8c0.6,0,1,0.3,1.2,0.6l-0.4,0.2c-0.2-0.2-0.5-0.4-0.8-0.4c-0.6,0-1.1,0.5-1.1,1.2
				s0.5,1.2,1.1,1.2c0.3,0,0.6-0.2,0.8-0.3v-0.6h-1v-0.4h1.4v1.1c-0.3,0.3-0.7,0.5-1.2,0.5c-0.9,0-1.6-0.6-1.6-1.6
				S253.5,499.8,254.4,499.8z"/>
			<path class="st5" d="M258.8,501.6h-1.7v1.4h-0.5v-3.1h0.5v1.3h1.7v-1.3h0.5v3.1h-0.5V501.6z"/>
			<path class="st5" d="M262.4,502.3h-1.5l-0.2,0.6h-0.5l1.2-3.1h0.6l1.2,3.1h-0.5L262.4,502.3z M261,501.9h1.2l-0.6-1.6L261,501.9z
				"/>
			<path class="st5" d="M266.6,500.5l-1,2.4h-0.2l-1-2.4v2.4H264v-3.1h0.7l0.9,2.2l0.9-2.2h0.7v3.1h-0.5v-2.4H266.6z"/>
		</g>
		<g>
			<path class="st5" d="M249,511h-1.5l-0.2,0.6h-0.5l1.2-3.1h0.6l1.2,3.1h-0.5L249,511z M247.6,510.6h1.2l-0.6-1.6L247.6,510.6z"/>
			<path class="st5" d="M250.6,508.6h1.4c0.5,0,0.9,0.3,0.9,0.8c0,0.4-0.3,0.6-0.5,0.7c0.3,0.1,0.6,0.4,0.6,0.8
				c0,0.5-0.3,0.8-0.9,0.8h-1.5V508.6z M251.9,509.9c0.3,0,0.5-0.2,0.5-0.4c0-0.3-0.2-0.5-0.5-0.5H251v0.9H251.9z M252,511.2
				c0.3,0,0.5-0.2,0.5-0.5s-0.2-0.5-0.5-0.5h-1v1H252z"/>
			<path class="st5" d="M254.5,509.2l-0.5,0.5l-0.3-0.3l0.8-0.8h0.4v3.1h-0.5v-2.5H254.5z"/>
			<path class="st5" d="M257.6,511.3c1.2-0.9,1.7-1.3,1.7-1.8c0-0.4-0.3-0.5-0.6-0.5c-0.4,0-0.6,0.2-0.8,0.4l-0.3-0.3
				c0.3-0.3,0.7-0.5,1.1-0.5c0.6,0,1.1,0.3,1.1,0.9s-0.6,1.1-1.4,1.8h1.4v0.4h-2.2L257.6,511.3L257.6,511.3z"/>
			<path class="st5" d="M260.8,510.1c0-0.9,0.7-1.6,1.6-1.6c0.6,0,1,0.3,1.2,0.7l-0.4,0.2c-0.2-0.3-0.5-0.4-0.8-0.4
				c-0.6,0-1.1,0.5-1.1,1.2s0.5,1.2,1.1,1.2c0.4,0,0.7-0.2,0.8-0.4l0.4,0.2c-0.2,0.4-0.6,0.7-1.2,0.7
				C261.5,511.7,260.8,511,260.8,510.1z"/>
			<path class="st5" d="M264.5,508.6h1.1c1,0,1.6,0.7,1.6,1.5c0,0.9-0.6,1.5-1.6,1.5h-1.1V508.6z M265.6,511.2
				c0.7,0,1.1-0.5,1.1-1.1s-0.4-1.1-1.1-1.1H265v2.3L265.6,511.2L265.6,511.2z"/>
		</g>
		<path class="st5" d="M311.8,491.2h1.3c0.6,0,1,0.4,1,0.9s-0.4,0.9-1,0.9h-0.8v1.2h-0.5V491.2z M313.1,491.6h-0.8v1.1h0.8
			c0.3,0,0.6-0.2,0.6-0.5S313.4,491.6,313.1,491.6z M317.2,492.9h-1.7v1.4H315v-3.1h0.5v1.3h1.7v-1.3h0.5v3.1h-0.5V492.9z
			 M320.8,493.7h-1.5l-0.2,0.6h-0.5l1.2-3.1h0.6l1.2,3.1H321L320.8,493.7z M319.4,493.3h1.2l-0.6-1.6L319.4,493.3z M322.8,492v2.4
			h-0.5v-3.1h0.5l1.7,2.3v-2.3h0.5v3.1h-0.4L322.8,492z M326.9,491.6h-1v-0.4h2.4v0.4h-1v2.7h-0.5v-2.7H326.9z M330.5,491.2
			c0.9,0,1.6,0.7,1.6,1.6s-0.6,1.6-1.6,1.6s-1.6-0.7-1.6-1.6S329.6,491.2,330.5,491.2z M330.5,491.6c-0.7,0-1.1,0.5-1.1,1.2
			s0.4,1.2,1.1,1.2s1.1-0.5,1.1-1.2S331.2,491.6,330.5,491.6z M335.8,491.9l-1,2.4h-0.2l-1-2.4v2.4h-0.5v-3.1h0.7l0.9,2.2l0.9-2.2
			h0.7v3.1h-0.5V491.9z M337.2,492.6h1.1v0.4h-1.1V492.6z M339.1,492.8c0-0.9,0.7-1.6,1.6-1.6c0.6,0,1,0.3,1.2,0.7l-0.4,0.2
			c-0.2-0.3-0.5-0.4-0.8-0.4c-0.6,0-1.1,0.5-1.1,1.2s0.5,1.2,1.1,1.2c0.4,0,0.7-0.2,0.8-0.4l0.4,0.2c-0.2,0.4-0.6,0.7-1.2,0.7
			C339.8,494.4,339.1,493.7,339.1,492.8z M344.8,493.7h-1.5l-0.2,0.6h-0.5l1.2-3.1h0.6l1.2,3.1H345L344.8,493.7z M343.4,493.3h1.2
			l-0.6-1.6L343.4,493.3z M346.8,492v2.4h-0.5v-3.1h0.5l1.7,2.3v-2.3h0.5v3.1h-0.4L346.8,492z M350.1,491.2h1.1c1,0,1.6,0.7,1.6,1.5
			c0,0.9-0.6,1.5-1.6,1.5h-1.1V491.2z M351.2,493.9c0.7,0,1.1-0.5,1.1-1.1s-0.4-1.1-1.1-1.1h-0.6v2.3L351.2,493.9L351.2,493.9z
			 M354.5,493l-1.2-1.8h0.5l0.9,1.4l0.9-1.4h0.5L355,493v1.3h-0.5V493z M356.8,493.8c0.2,0,0.3,0.1,0.3,0.3s-0.1,0.3-0.3,0.3
			c-0.2,0-0.3-0.1-0.3-0.3S356.6,493.8,356.8,493.8z M358,492.8c0-0.9,0.7-1.6,1.6-1.6c0.6,0,1,0.3,1.2,0.7l-0.4,0.2
			c-0.2-0.3-0.5-0.4-0.8-0.4c-0.6,0-1.1,0.5-1.1,1.2s0.5,1.2,1.1,1.2c0.4,0,0.7-0.2,0.8-0.4l0.4,0.2c-0.2,0.4-0.6,0.7-1.2,0.7
			C358.7,494.4,358,493.7,358,492.8z M363.2,491.2c0.9,0,1.6,0.7,1.6,1.6s-0.6,1.6-1.6,1.6s-1.6-0.7-1.6-1.6
			S362.3,491.2,363.2,491.2z M363.2,491.6c-0.7,0-1.1,0.5-1.1,1.2s0.4,1.2,1.1,1.2s1.1-0.5,1.1-1.2
			C364.3,492.1,363.8,491.6,363.2,491.6z M365.8,493.8c0.2,0,0.3,0.1,0.3,0.3s-0.1,0.3-0.3,0.3c-0.2,0-0.3-0.1-0.3-0.3
			S365.7,493.8,365.8,493.8z M367.1,491.2h0.5v1.9c0,0.5,0.3,0.9,0.8,0.9s0.8-0.3,0.8-0.9v-1.9h0.5v1.9c0,0.8-0.4,1.3-1.3,1.3
			s-1.3-0.5-1.3-1.3V491.2z M371.5,493l-0.3,0.3v1h-0.5v-3.1h0.5v1.5l1.3-1.5h0.6l-1.3,1.5l1.4,1.6h-0.6L371.5,493z"/>
		<path class="st5" d="M295.4,499.9h0.5v3.1h-0.5V499.9z M297.4,500.6v2.4H297v-3.1h0.5l1.7,2.3v-2.3h0.5v3.1h-0.4L297.4,500.6z
			 M300.7,499.9h2.1v0.4h-1.6v0.9h1.6v0.4h-1.6v1.4h-0.5V499.9z M305.2,499.8c0.9,0,1.6,0.7,1.6,1.6s-0.6,1.6-1.6,1.6
			s-1.6-0.7-1.6-1.6S304.3,499.8,305.2,499.8z M305.2,500.3c-0.7,0-1.1,0.5-1.1,1.2s0.4,1.2,1.1,1.2s1.1-0.5,1.1-1.2
			C306.3,500.8,305.8,500.3,305.2,500.3z M309.4,500c0.9,0,1.5,0.7,1.5,1.4c0,0.7-0.4,1.1-0.8,1.1c-0.3,0-0.4-0.2-0.4-0.4l0,0
			c-0.2,0.2-0.4,0.4-0.7,0.4c-0.4,0-0.7-0.3-0.7-0.8c0-0.6,0.5-1.1,1.1-1.1c0.3,0,0.5,0.2,0.6,0.3l0.1-0.3h0.4L310,502v0.1
			c0,0.2,0.1,0.2,0.2,0.2c0.2,0,0.5-0.2,0.5-0.8c0-0.7-0.5-1.3-1.3-1.3c-0.9,0-1.6,0.8-1.6,1.6c0,0.7,0.6,1.3,1.3,1.3
			c0.3,0,0.6-0.1,0.9-0.3l0.1,0.1c-0.3,0.2-0.6,0.3-1,0.3c-0.8,0-1.5-0.6-1.5-1.4C307.6,500.9,308.5,500,309.4,500z M309.8,501.3
			c-0.1-0.1-0.2-0.3-0.4-0.3c-0.4,0-0.8,0.4-0.8,0.8c0,0.3,0.2,0.5,0.4,0.5c0.3,0,0.5-0.2,0.6-0.4L309.8,501.3z M311.8,499.9h1.3
			c0.6,0,1,0.4,1,0.9s-0.4,0.9-1,0.9h-0.8v1.2h-0.5V499.9z M313.1,500.3h-0.8v1.1h0.8c0.3,0,0.6-0.2,0.6-0.5
			S313.4,500.3,313.1,500.3z M317.2,501.6h-1.7v1.4H315v-3.1h0.5v1.3h1.7v-1.3h0.5v3.1h-0.5V501.6z M320.8,502.3h-1.5L319,503h-0.5
			l1.2-3.1h0.6l1.2,3.1H321L320.8,502.3z M319.4,501.9h1.2l-0.6-1.6L319.4,501.9z M322.8,500.6v2.4h-0.5v-3.1h0.5l1.7,2.3v-2.3h0.5
			v3.1h-0.4L322.8,500.6z M326.9,500.3h-1v-0.4h2.4v0.4h-1v2.7h-0.5v-2.7H326.9z M330.5,499.8c0.9,0,1.6,0.7,1.6,1.6
			s-0.6,1.6-1.6,1.6s-1.6-0.7-1.6-1.6S329.6,499.8,330.5,499.8z M330.5,500.3c-0.7,0-1.1,0.5-1.1,1.2s0.4,1.2,1.1,1.2
			s1.1-0.5,1.1-1.2S331.2,500.3,330.5,500.3z M335.8,500.5l-1,2.4h-0.2l-1-2.4v2.4h-0.5v-3.1h0.7l0.9,2.2l0.9-2.2h0.7v3.1h-0.5
			V500.5z M337.2,501.2h1.1v0.4h-1.1V501.2z M339.1,501.4c0-0.9,0.7-1.6,1.6-1.6c0.6,0,1,0.3,1.2,0.7l-0.4,0.2
			c-0.2-0.3-0.5-0.4-0.8-0.4c-0.6,0-1.1,0.5-1.1,1.2s0.5,1.2,1.1,1.2c0.4,0,0.7-0.2,0.8-0.4l0.4,0.2c-0.2,0.4-0.6,0.7-1.2,0.7
			C339.8,503,339.1,502.4,339.1,501.4z M344.8,502.3h-1.5L343,503h-0.5l1.2-3.1h0.6l1.2,3.1H345L344.8,502.3z M343.4,501.9h1.2
			l-0.6-1.6L343.4,501.9z M346.8,500.6v2.4h-0.5v-3.1h0.5l1.7,2.3v-2.3h0.5v3.1h-0.4L346.8,500.6z M350.1,499.9h1.1
			c1,0,1.6,0.7,1.6,1.5c0,0.9-0.6,1.5-1.6,1.5h-1.1V499.9z M351.2,502.6c0.7,0,1.1-0.5,1.1-1.1s-0.4-1.1-1.1-1.1h-0.6v2.3
			L351.2,502.6L351.2,502.6z M354.5,501.7l-1.2-1.8h0.5l0.9,1.4l0.9-1.4h0.5l-1.2,1.8v1.3h-0.5v-1.3H354.5z M356.8,502.5
			c0.2,0,0.3,0.1,0.3,0.3s-0.1,0.3-0.3,0.3s-0.3-0.1-0.3-0.3S356.6,502.5,356.8,502.5z M358,501.4c0-0.9,0.7-1.6,1.6-1.6
			c0.6,0,1,0.3,1.2,0.7l-0.4,0.2c-0.2-0.3-0.5-0.4-0.8-0.4c-0.6,0-1.1,0.5-1.1,1.2s0.5,1.2,1.1,1.2c0.4,0,0.7-0.2,0.8-0.4l0.4,0.2
			c-0.2,0.4-0.6,0.7-1.2,0.7C358.7,503,358,502.4,358,501.4z M363.2,499.8c0.9,0,1.6,0.7,1.6,1.6s-0.6,1.6-1.6,1.6
			c-0.9,0-1.6-0.7-1.6-1.6S362.3,499.8,363.2,499.8z M363.2,500.3c-0.7,0-1.1,0.5-1.1,1.2s0.4,1.2,1.1,1.2s1.1-0.5,1.1-1.2
			C364.3,500.8,363.8,500.3,363.2,500.3z M365.8,502.5c0.2,0,0.3,0.1,0.3,0.3s-0.1,0.3-0.3,0.3s-0.3-0.1-0.3-0.3
			S365.7,502.5,365.8,502.5z M367.1,499.9h0.5v1.9c0,0.5,0.3,0.9,0.8,0.9s0.8-0.3,0.8-0.9v-1.9h0.5v1.9c0,0.8-0.4,1.3-1.3,1.3
			s-1.3-0.5-1.3-1.3V499.9z M371.5,501.6l-0.3,0.3v1h-0.5v-3.1h0.5v1.5l1.3-1.5h0.6l-1.3,1.5l1.4,1.6h-0.6L371.5,501.6z"/>
		<g>
			<path class="st5" d="M340.3,508.5c0.9,0,1.2,0.8,1.2,1.6c0,0.8-0.4,1.6-1.2,1.6c-0.9,0-1.2-0.8-1.2-1.6
				C339.1,509.3,339.5,508.5,340.3,508.5z M340.3,508.9c-0.5,0-0.7,0.6-0.7,1.2s0.2,1.2,0.7,1.2s0.7-0.6,0.7-1.2
				C341.1,509.5,340.9,508.9,340.3,508.9z"/>
			<path class="st5" d="M343.1,509.2l-0.5,0.5l-0.3-0.3l0.8-0.8h0.4v3.1H343v-2.5H343.1z"/>
			<path class="st5" d="M344.6,511.3c1.2-0.9,1.7-1.3,1.7-1.8c0-0.4-0.3-0.5-0.6-0.5c-0.4,0-0.6,0.2-0.8,0.4l-0.3-0.3
				c0.3-0.3,0.7-0.5,1.1-0.5c0.6,0,1.1,0.3,1.1,0.9s-0.6,1.1-1.4,1.8h1.4v0.4h-2.2L344.6,511.3L344.6,511.3z"/>
			<path class="st5" d="M348.4,509.2l-0.5,0.5l-0.3-0.3l0.8-0.8h0.4v3.1h-0.5v-2.5H348.4z"/>
			<path class="st5" d="M352.1,509.2l-0.5,0.5l-0.3-0.3l0.8-0.8h0.4v3.1H352v-2.5H352.1z"/>
			<path class="st5" d="M353.7,511.3c1.2-0.9,1.7-1.3,1.7-1.8c0-0.4-0.3-0.5-0.6-0.5c-0.4,0-0.6,0.2-0.8,0.4l-0.3-0.3
				c0.3-0.3,0.7-0.5,1.1-0.5c0.6,0,1.1,0.3,1.1,0.9s-0.6,1.1-1.4,1.8h1.4v0.4h-2.2L353.7,511.3L353.7,511.3z"/>
			<path class="st5" d="M357,510.9c0.2,0.2,0.5,0.4,0.9,0.4s0.7-0.2,0.7-0.5s-0.3-0.5-0.7-0.5c-0.1,0-0.3,0-0.3,0v-0.4
				c0.1,0,0.2,0,0.3,0c0.4,0,0.7-0.1,0.7-0.5c0-0.3-0.3-0.5-0.7-0.5c-0.3,0-0.6,0.1-0.8,0.4l-0.2-0.3c0.2-0.3,0.6-0.5,1.1-0.5
				c0.6,0,1.1,0.3,1.1,0.8c0,0.4-0.4,0.7-0.7,0.7c0.3,0,0.7,0.3,0.7,0.8s-0.4,0.9-1.1,0.9c-0.5,0-0.9-0.2-1.1-0.5L357,510.9z"/>
			<path class="st5" d="M361.3,510.9h-1.5v-0.4l1.3-2h0.6v1.9h0.4v0.4h-0.4v0.7h-0.5v-0.6H361.3z M360.3,510.5h1V509L360.3,510.5z"
				/>
			<path class="st5" d="M365,510.9c0.2,0.2,0.5,0.4,0.8,0.4c0.4,0,0.7-0.3,0.7-0.6c0-0.4-0.3-0.6-0.7-0.6c-0.3,0-0.5,0.1-0.7,0.3
				l-0.3-0.1v-1.7h1.9v0.4h-1.5v1c0.1-0.1,0.4-0.3,0.7-0.3c0.5,0,1,0.4,1,1s-0.5,1-1.1,1c-0.5,0-0.9-0.2-1.1-0.5L365,510.9z"/>
			<path class="st5" d="M369.1,508.5c0.4,0,0.7,0.1,0.9,0.4l-0.2,0.4c-0.2-0.2-0.3-0.3-0.6-0.3c-0.6,0-0.8,0.5-0.8,1.1v0.1
				c0.1-0.2,0.5-0.5,0.8-0.5c0.6,0,1,0.3,1,1c0,0.6-0.4,1-1.1,1c-0.9,0-1.2-0.7-1.2-1.6C367.8,509.2,368.3,508.5,369.1,508.5z
				 M369,510.1c-0.3,0-0.6,0.2-0.7,0.4c0,0.4,0.2,0.8,0.7,0.8c0.4,0,0.7-0.3,0.7-0.6C369.7,510.3,369.4,510.1,369,510.1z"/>
			<path class="st5" d="M372.6,509H371v-0.4h2.2v0.3l-1.2,2.8h-0.5L372.6,509z"/>
		</g>
		<polygon class="st6" points="205.2,99.4 203.5,104.1 204.9,104.1 204.4,105.5 203.1,105.5 202.4,107.3 200.7,107.3 204.2,98 
			206.2,98 209.7,107.3 208,107.3 		"/>
		<g>
			<g>
				<defs>
					<rect id="SVGID_5_" x="46" y="42" width="343.6" height="486"/>
				</defs>
				<clipPath id="SVGID_6_">
					<use xlink:href="#SVGID_5_"  style="overflow:visible;"/>
				</clipPath>
				<path class="st7" d="M193.9,84.5h-2.1v2.9h2.1c0.9,0,1.5-0.6,1.5-1.5C195.5,85.1,194.8,84.5,193.9,84.5 M190.3,83.1h3.9
					c1.9,0,2.9,1.3,2.9,2.9s-1.1,2.9-2.9,2.9h-2.3v3.5h-1.6L190.3,83.1L190.3,83.1z"/>
			</g>
		</g>
		<polygon class="st6" points="206.8,88.3 202.2,88.3 202.2,92.3 200.6,92.3 200.6,83.1 202.2,83.1 202.2,86.9 206.8,86.9 
			206.8,83.1 208.4,83.1 208.4,92.3 206.8,92.3 		"/>
		<polygon class="st6" points="216.2,84.4 214.5,89.1 215.9,89.1 215.4,90.6 214.1,90.6 213.4,92.3 211.7,92.3 215.2,83.1 
			217.2,83.1 220.6,92.3 218.9,92.3 		"/>
		<polygon class="st6" points="225.6,85.6 225.6,92.3 224,92.3 224,83.1 225.6,83.1 230.2,89.6 230.2,83.1 231.7,83.1 231.7,92.3 
			230.2,92.3 		"/>
		<polygon class="st6" points="238.1,84.5 235.4,84.5 235.4,83.1 242.4,83.1 242.4,84.5 239.7,84.5 239.7,92.3 238.1,92.3 		"/>
		<g>
			<g>
				<defs>
					<rect id="SVGID_7_" x="46" y="42" width="343.6" height="486"/>
				</defs>
				<clipPath id="SVGID_8_">
					<use xlink:href="#SVGID_7_"  style="overflow:visible;"/>
				</clipPath>
				<path class="st8" d="M249.9,84.4c-1.8,0-2.9,1.4-2.9,3.3s1.1,3.3,2.9,3.3c1.8,0,2.9-1.4,2.9-3.3
					C252.9,85.8,251.7,84.4,249.9,84.4 M249.9,82.9c2.7,0,4.5,2,4.5,4.8s-1.9,4.8-4.5,4.8c-2.7,0-4.5-2-4.5-4.8
					S247.2,82.9,249.9,82.9"/>
			</g>
		</g>
		<polygon class="st6" points="265.9,85.3 263.2,92.3 262.5,92.3 259.8,85.3 259.8,92.3 258.2,92.3 258.2,83.1 260.4,83.1 
			262.8,89.3 265.3,83.1 267.5,83.1 267.5,92.3 265.9,92.3 		"/>
		<g>
			<g>
				<defs>
					<rect id="SVGID_9_" x="46" y="42" width="343.6" height="486"/>
				</defs>
				<clipPath id="SVGID_10_">
					<use xlink:href="#SVGID_9_"  style="overflow:visible;"/>
				</clipPath>
				<path class="st9" d="M189.9,102.7c0-2.8,2-4.8,4.6-4.8c1.9,0,3,1,3.6,2.1l-1.3,0.7c-0.4-0.8-1.3-1.3-2.3-1.3c-1.7,0-3,1.4-3,3.3
					s1.3,3.3,3,3.3c1,0,1.9-0.6,2.3-1.3l1.3,0.7c-0.7,1.1-1.8,2.1-3.6,2.1C191.9,107.5,189.9,105.5,189.9,102.7"/>
			</g>
		</g>
		<polygon class="st6" points="214.6,100.5 214.6,107.3 213,107.3 213,98 214.6,98 219.2,104.6 219.2,98 220.7,98 220.7,107.3 
			219.2,107.3 		"/>
		<g>
			<g>
				<defs>
					<rect id="SVGID_11_" x="46" y="42" width="343.6" height="486"/>
				</defs>
				<clipPath id="SVGID_12_">
					<use xlink:href="#SVGID_11_"  style="overflow:visible;"/>
				</clipPath>
				<path class="st10" d="M228.5,105.9c1.9,0,3.1-1.4,3.1-3.2c0-1.8-1.1-3.2-3.1-3.2h-1.7v6.4C226.8,105.9,228.5,105.9,228.5,105.9z
					 M225.2,98h3.3c2.8,0,4.7,1.9,4.7,4.6s-1.9,4.6-4.7,4.6h-3.3V98z"/>
			</g>
		</g>
		<polygon class="st6" points="238.9,103.4 235.4,98 237.2,98 239.7,102 242.1,98 243.9,98 240.4,103.4 240.4,107.3 238.9,107.3 		
			"/>
		<g>
			<g>
				<defs>
					<rect id="SVGID_13_" x="46" y="42" width="343.6" height="486"/>
				</defs>
				<clipPath id="SVGID_14_">
					<use xlink:href="#SVGID_13_"  style="overflow:visible;"/>
				</clipPath>
				<path class="st11" d="M175.2,84.7c-0.1,0-0.1,0.1-0.1,0.1v8.6c0,0.1,0.1,0.1,0.1,0.1c1.8-0.9,3.5-2.3,3.5-5c0-1.2-0.5-2.3-1.3-3
					C176.8,85,176,84.7,175.2,84.7 M173.6,107.7c-1.2,0-2.3-0.4-3.2-1.1c-1.5-1.1-2.4-3.1-2.3-5.2c0.1-3,2.2-5.8,5.1-7.1
					c0.1,0,0.1-0.1,0.1-0.1V83.3c0-0.1,0.1-0.2,0.2-0.2L174,83c1.6-0.3,3.2,0.1,4.4,1.2s1.9,2.7,1.9,4.4c0,3.2-1.9,5.6-5.3,6.9
					c-0.1,0-0.1,0.1-0.1,0.2v4.5c0,0.1-0.1,0.2-0.2,0.2l-1.4,0.4c-0.1,0-0.2,0-0.2-0.2v-4.2c0-0.1-0.1-0.1-0.1-0.1
					c-2,1.2-3.2,3.1-3.3,5.2c-0.1,1.5,0.5,2.8,1.5,3.6c0.9,0.7,2.1,0.9,3.4,0.5c0.1,0,0.2,0.1,0.2,0.2v1.5c0,0.1-0.1,0.2-0.2,0.2
					C174.5,107.6,174.1,107.7,173.6,107.7"/>
			</g>
		</g>
	</g>
	<rect x="46" y="42" class="st12" width="343.6" height="4.5"/>
</g>
<rect x="46" y="550" class="st3" width="343" height="162"/>
<rect x="440.5" y="588.1" class="st3" width="132.6" height="85.1"/>
<g>
	<rect x="593.1" y="588.1" class="st1" width="132.9" height="85.1"/>
	<g>
		<path class="st13" d="M648.2,633.9l-1.5,4h1.3l-0.5,1.2h-1.2l-0.6,1.5h-1.5l3.1-7.9h1.7l3.1,7.9h-1.5L648.2,633.9z"/>
		<path class="st13" d="M634.8,619.9h3.5c1.7,0,2.6,1.1,2.6,2.5c0,1.3-0.9,2.5-2.6,2.5h-2.1v3h-1.4V619.9z M638.1,621.1h-1.9v2.5
			h1.9c0.8,0,1.4-0.5,1.4-1.3C639.5,621.6,638.9,621.1,638.1,621.1z"/>
		<path class="st13" d="M649.6,624.3h-4.1v3.5h-1.4v-7.9h1.4v3.3h4.1v-3.3h1.4v7.9h-1.4V624.3z"/>
		<path class="st13" d="M658,621l-1.5,4h1.3l-0.5,1.2h-1.2l-0.6,1.5H654l3.1-7.9h1.7l3.1,7.9h-1.5L658,621z"/>
		<path class="st13" d="M666.4,622v5.8H665v-7.9h1.4l4.1,5.6v-5.6h1.4v7.9h-1.3L666.4,622z"/>
		<path class="st13" d="M677.7,621.1h-2.4v-1.2h6.2v1.2h-2.4v6.7h-1.4V621.1z"/>
		<path class="st13" d="M688.2,619.7c2.4,0,4.1,1.7,4.1,4.1c0,2.4-1.7,4.1-4.1,4.1c-2.4,0-4.1-1.7-4.1-4.1
			C684.1,621.5,685.8,619.7,688.2,619.7z M688.2,621c-1.6,0-2.6,1.2-2.6,2.9c0,1.6,1,2.9,2.6,2.9c1.6,0,2.6-1.2,2.6-2.9
			C690.8,622.2,689.8,621,688.2,621z"/>
		<path class="st13" d="M702.5,621.8l-2.4,6h-0.6l-2.4-6v6h-1.4v-7.9h2l2.2,5.4l2.2-5.4h2v7.9h-1.4V621.8z"/>
		<path class="st13" d="M634.5,636.7c0-2.4,1.8-4.1,4.1-4.1c1.7,0,2.7,0.8,3.3,1.8l-1.2,0.6c-0.4-0.7-1.1-1.2-2.1-1.2
			c-1.5,0-2.7,1.2-2.7,2.9s1.2,2.9,2.7,2.9c0.9,0,1.7-0.5,2.1-1.2l1.2,0.6c-0.6,1-1.6,1.8-3.3,1.8
			C636.3,640.8,634.5,639.1,634.5,636.7z"/>
		<path class="st13" d="M656.6,634.8v5.8h-1.4v-7.9h1.4l4.1,5.6v-5.6h1.4v7.9h-1.3L656.6,634.8z"/>
		<path class="st13" d="M666.1,632.7h3c2.5,0,4.2,1.6,4.2,4c0,2.3-1.7,4-4.2,4h-3V632.7z M669,639.4c1.7,0,2.7-1.2,2.7-2.7
			c0-1.5-1-2.8-2.7-2.8h-1.6v5.5H669z"/>
		<path class="st13" d="M678.3,637.3l-3.1-4.6h1.6l2.2,3.4l2.2-3.4h1.6l-3.1,4.6v3.3h-1.4V637.3z"/>
		<path class="st13" d="M620,641c-1.1,0-2-0.3-2.9-0.9c-1.3-1-2.1-2.6-2-4.4c0.1-2.6,1.9-4.9,4.6-6.1c0.1,0,0.1-0.1,0.1-0.1v-9.3
			c0-0.1,0.1-0.2,0.2-0.2l0.5-0.1c1.5-0.3,2.9,0.1,4,1c1.1,0.9,1.7,2.3,1.7,3.8c0,2.7-1.7,4.8-4.7,5.9c-0.1,0-0.1,0.1-0.1,0.1v3.9
			c0,0.1-0.1,0.2-0.1,0.2l-1.2,0.3c-0.1,0-0.2,0-0.2-0.1v-3.6c0-0.1-0.1-0.1-0.1-0.1c-1.7,1-2.9,2.7-3,4.4c-0.1,1.3,0.5,2.4,1.4,3.1
			c0.8,0.6,1.9,0.8,3.1,0.5c0.1,0,0.2,0,0.2,0.1l0,1.2c0,0.1-0.1,0.2-0.2,0.2C620.7,640.9,620.4,641,620,641z M621.4,621.3
			c-0.1,0-0.1,0-0.1,0.1l0,7.4c0,0.1,0.1,0.1,0.1,0.1c1.6-0.7,3.1-2,3.1-4.3c0-1-0.4-2-1.2-2.6C622.8,621.5,622.1,621.3,621.4,621.3
			z"/>
	</g>
</g>
<g>
	<g>
		<defs>
			<rect id="SVGID_15_" x="46" y="550.1" width="343.2" height="161.8"/>
		</defs>
		<clipPath id="SVGID_16_">
			<use xlink:href="#SVGID_15_"  style="overflow:visible;"/>
		</clipPath>
		<path class="st14" d="M69.1,676.1c-0.1,0-0.1,0-0.1,0.1l0,7.3c0,0.1,0.1,0.1,0.1,0.1c1.7-0.7,3.4-2,3.4-4.2c0-1-0.5-1.9-1.3-2.6
			C70.6,676.4,69.9,676.1,69.1,676.1 M67.6,695.5c-1.1,0-2.2-0.3-3.1-0.9c-1.5-1-2.3-2.6-2.2-4.4c0.1-2.5,2.1-4.9,4.9-6
			c0.1,0,0.1-0.1,0.1-0.1V675c0-0.1,0.1-0.2,0.2-0.2l0.5-0.1c1.6-0.3,3.1,0.1,4.3,1c1.2,0.9,1.9,2.3,1.9,3.7c0,2.7-1.8,4.7-5.1,5.8
			c-0.1,0-0.1,0.1-0.1,0.1v3.8c0,0.1-0.1,0.2-0.2,0.2l-1.3,0.3c-0.1,0-0.2,0-0.2-0.1V686c0-0.1-0.1-0.1-0.1-0.1
			c-1.9,1-3.1,2.6-3.2,4.4c-0.1,1.3,0.5,2.4,1.5,3.1c0.9,0.6,2.1,0.8,3.3,0.5c0.1,0,0.2,0,0.2,0.1l0,1.2c0,0.1-0.1,0.2-0.2,0.2
			C68.4,695.5,68,695.5,67.6,695.5"/>
	</g>
	<g>
		<path class="st5" d="M226,675.8l-0.5,0.5l-0.3-0.3l0.8-0.8h0.4v3.1H226V675.8z"/>
		<path class="st5" d="M227.5,677.9c1.2-0.9,1.7-1.3,1.7-1.8c0-0.4-0.3-0.5-0.6-0.5c-0.4,0-0.6,0.2-0.8,0.4l-0.3-0.3
			c0.3-0.3,0.7-0.5,1.1-0.5c0.6,0,1.1,0.3,1.1,0.9c0,0.6-0.6,1.1-1.4,1.8h1.4v0.4h-2.2V677.9z"/>
		<path class="st5" d="M230.9,677.5c0.2,0.2,0.5,0.4,0.9,0.4c0.4,0,0.7-0.2,0.7-0.5c0-0.3-0.3-0.5-0.7-0.5c-0.1,0-0.3,0-0.3,0v-0.4
			c0.1,0,0.2,0,0.3,0c0.4,0,0.7-0.1,0.7-0.5c0-0.3-0.3-0.5-0.7-0.5c-0.3,0-0.6,0.1-0.8,0.4l-0.2-0.3c0.2-0.3,0.6-0.5,1.1-0.5
			c0.6,0,1.1,0.3,1.1,0.8c0,0.4-0.4,0.7-0.7,0.7c0.3,0,0.7,0.3,0.7,0.8c0,0.5-0.4,0.9-1.1,0.9c-0.5,0-0.9-0.2-1.1-0.5L230.9,677.5z"
			/>
		<path class="st5" d="M235.6,677.5c0.2,0.2,0.5,0.4,1,0.4c0.5,0,0.7-0.3,0.7-0.5c0-0.3-0.4-0.4-0.7-0.5c-0.5-0.1-1.1-0.3-1.1-0.9
			c0-0.5,0.4-0.9,1.1-0.9c0.5,0,0.8,0.2,1.1,0.4l-0.3,0.3c-0.2-0.2-0.6-0.4-0.9-0.4c-0.3,0-0.6,0.2-0.6,0.4c0,0.3,0.3,0.4,0.7,0.5
			c0.5,0.1,1.1,0.3,1.1,0.9c0,0.5-0.3,0.9-1.2,0.9c-0.5,0-0.9-0.2-1.2-0.5L235.6,677.5z"/>
		<path class="st5" d="M240.1,675.1c0.9,0,1.5,0.7,1.5,1.6c0,0.9-0.6,1.6-1.5,1.6c-0.9,0-1.5-0.7-1.5-1.6
			C238.6,675.8,239.2,675.1,240.1,675.1z M240.1,675.5c-0.7,0-1.1,0.5-1.1,1.2c0,0.7,0.4,1.2,1.1,1.2c0.6,0,1.1-0.5,1.1-1.2
			C241.2,676,240.8,675.5,240.1,675.5z"/>
		<path class="st5" d="M245.4,675.8l-1,2.4h-0.2l-1-2.4v2.4h-0.5v-3.1h0.7l0.9,2.2l0.9-2.2h0.7v3.1h-0.5V675.8z"/>
		<path class="st5" d="M247,675.2h2.1v0.4h-1.6v0.9h1.6v0.4h-1.6v1h1.6v0.4H247V675.2z"/>
		<path class="st5" d="M251.8,675.9l-0.6,2.4h-0.5l-0.9-3.1h0.5l0.6,2.5l0.7-2.5h0.4l0.7,2.5l0.6-2.5h0.5l-0.9,3.1h-0.5L251.8,675.9
			z"/>
		<path class="st5" d="M256.8,676.9h-1.7v1.4h-0.5v-3.1h0.5v1.3h1.7v-1.3h0.5v3.1h-0.5V676.9z"/>
		<path class="st5" d="M258.4,675.2h2.1v0.4h-1.6v0.9h1.6v0.4h-1.6v1h1.6v0.4h-2.1V675.2z"/>
		<path class="st5" d="M262.5,677.1H262v1.2h-0.5v-3.1h1.3c0.6,0,1,0.4,1,0.9c0,0.6-0.4,0.8-0.8,0.9l0.8,1.2h-0.5L262.5,677.1z
			 M262.7,675.6H262v1.1h0.8c0.3,0,0.6-0.2,0.6-0.5C263.3,675.8,263.1,675.6,262.7,675.6z"/>
		<path class="st5" d="M264.8,675.2h2.1v0.4h-1.6v0.9h1.6v0.4h-1.6v1h1.6v0.4h-2.1V675.2z"/>
	</g>
	<g>
		<path class="st5" d="M234.7,683.8h1.4c0.5,0,0.9,0.3,0.9,0.8c0,0.4-0.3,0.6-0.5,0.7c0.3,0.1,0.6,0.4,0.6,0.8
			c0,0.5-0.3,0.8-0.9,0.8h-1.5V683.8z M236,685.1c0.3,0,0.5-0.2,0.5-0.4c0-0.3-0.2-0.5-0.5-0.5h-0.9v0.9H236z M236.1,686.5
			c0.3,0,0.5-0.2,0.5-0.5c0-0.3-0.2-0.5-0.5-0.5h-0.9v1H236.1z"/>
		<path class="st5" d="M238.1,683.8h0.5v3.1h-0.5V683.8z"/>
		<path class="st5" d="M240.7,685.7h-0.6v1.2h-0.5v-3.1h1.3c0.6,0,1,0.4,1,0.9c0,0.6-0.4,0.8-0.8,0.9l0.8,1.2h-0.5L240.7,685.7z
			 M240.9,684.2h-0.8v1.1h0.8c0.3,0,0.6-0.2,0.6-0.5C241.5,684.4,241.3,684.2,240.9,684.2z"/>
		<path class="st5" d="M245.7,684.5l-1,2.4h-0.2l-1-2.4v2.4H243v-3.1h0.7l0.9,2.2l0.9-2.2h0.7v3.1h-0.5V684.5z"/>
		<path class="st5" d="M247.3,683.8h0.5v3.1h-0.5V683.8z"/>
		<path class="st5" d="M249.3,684.5v2.4h-0.5v-3.1h0.5l1.7,2.3v-2.3h0.5v3.1H251L249.3,684.5z"/>
		<path class="st5" d="M254.1,683.8c0.6,0,1,0.3,1.2,0.6l-0.4,0.2c-0.2-0.2-0.5-0.4-0.8-0.4c-0.6,0-1.1,0.5-1.1,1.2
			c0,0.7,0.5,1.2,1.1,1.2c0.3,0,0.6-0.2,0.8-0.3v-0.6h-1v-0.4h1.4v1.1c-0.3,0.3-0.7,0.5-1.2,0.5c-0.9,0-1.6-0.6-1.6-1.6
			S253.2,683.8,254.1,683.8z"/>
		<path class="st5" d="M258.5,685.5h-1.7v1.4h-0.5v-3.1h0.5v1.3h1.7v-1.3h0.5v3.1h-0.5V685.5z"/>
		<path class="st5" d="M262.1,686.3h-1.5l-0.2,0.6h-0.5l1.2-3.1h0.6l1.2,3.1h-0.5L262.1,686.3z M260.7,685.9h1.2l-0.6-1.6
			L260.7,685.9z"/>
		<path class="st5" d="M266.3,684.5l-1,2.4h-0.2l-1-2.4v2.4h-0.5v-3.1h0.7l0.9,2.2l0.9-2.2h0.7v3.1h-0.5V684.5z"/>
	</g>
	<g>
		<path class="st5" d="M248.7,694.9h-1.5l-0.2,0.6h-0.5l1.2-3.1h0.6l1.2,3.1h-0.5L248.7,694.9z M247.3,694.5h1.2l-0.6-1.6
			L247.3,694.5z"/>
		<path class="st5" d="M250.3,692.5h1.4c0.5,0,0.9,0.3,0.9,0.8c0,0.4-0.3,0.6-0.5,0.7c0.3,0.1,0.6,0.4,0.6,0.8
			c0,0.5-0.3,0.8-0.9,0.8h-1.5V692.5z M251.6,693.8c0.3,0,0.5-0.2,0.5-0.4c0-0.3-0.2-0.5-0.5-0.5h-0.9v0.9H251.6z M251.7,695.1
			c0.3,0,0.5-0.2,0.5-0.5c0-0.3-0.2-0.5-0.5-0.5h-0.9v1H251.7z"/>
		<path class="st5" d="M254.2,693.1l-0.5,0.5l-0.3-0.3l0.8-0.8h0.4v3.1h-0.5V693.1z"/>
		<path class="st5" d="M257.3,695.2c1.2-0.9,1.7-1.3,1.7-1.8c0-0.4-0.3-0.5-0.6-0.5c-0.4,0-0.6,0.2-0.8,0.4l-0.3-0.3
			c0.3-0.3,0.7-0.5,1.1-0.5c0.6,0,1.1,0.3,1.1,0.9c0,0.6-0.6,1.1-1.4,1.8h1.4v0.4h-2.2V695.2z"/>
		<path class="st5" d="M260.5,694c0-0.9,0.7-1.6,1.6-1.6c0.6,0,1,0.3,1.2,0.6l-0.4,0.2c-0.2-0.3-0.5-0.4-0.8-0.4
			c-0.6,0-1.1,0.5-1.1,1.2c0,0.7,0.5,1.2,1.1,1.2c0.4,0,0.7-0.2,0.8-0.4l0.4,0.2c-0.2,0.4-0.6,0.6-1.2,0.6
			C261.2,695.6,260.5,695,260.5,694z"/>
		<path class="st5" d="M264.2,692.5h1.1c1,0,1.6,0.7,1.6,1.5c0,0.9-0.6,1.5-1.6,1.5h-1.1V692.5z M265.3,695.1c0.7,0,1.1-0.5,1.1-1.1
			c0-0.6-0.4-1.1-1.1-1.1h-0.6v2.3H265.3z"/>
	</g>
	<path class="st5" d="M311.5,675.2h1.3c0.6,0,1,0.4,1,0.9c0,0.5-0.4,0.9-1,0.9h-0.8v1.2h-0.5V675.2z M312.7,675.6h-0.8v1.1h0.8
		c0.3,0,0.6-0.2,0.6-0.5C313.3,675.8,313,675.6,312.7,675.6z M316.8,676.9h-1.7v1.4h-0.5v-3.1h0.5v1.3h1.7v-1.3h0.5v3.1h-0.5V676.9z
		 M320.4,677.6h-1.5l-0.2,0.6h-0.5l1.2-3.1h0.6l1.2,3.1h-0.5L320.4,677.6z M319,677.2h1.2l-0.6-1.6L319,677.2z M322.4,675.9v2.4H322
		v-3.1h0.5l1.7,2.3v-2.3h0.5v3.1h-0.4L322.4,675.9z M326.5,675.6h-1v-0.4h2.4v0.4H327v2.7h-0.5V675.6z M330.1,675.1
		c0.9,0,1.5,0.7,1.5,1.6s-0.6,1.6-1.5,1.6c-0.9,0-1.5-0.7-1.5-1.6S329.2,675.1,330.1,675.1z M330.1,675.5c-0.7,0-1.1,0.5-1.1,1.2
		c0,0.7,0.4,1.2,1.1,1.2c0.6,0,1.1-0.5,1.1-1.2C331.2,676,330.8,675.5,330.1,675.5z M335.4,675.8l-1,2.4h-0.2l-1-2.4v2.4h-0.5v-3.1
		h0.7l0.9,2.2l0.9-2.2h0.7v3.1h-0.5V675.8z M336.8,676.5h1.1v0.4h-1.1V676.5z M338.7,676.7c0-0.9,0.7-1.6,1.6-1.6
		c0.6,0,1,0.3,1.2,0.6l-0.4,0.2c-0.2-0.3-0.5-0.4-0.8-0.4c-0.6,0-1.1,0.5-1.1,1.2c0,0.7,0.5,1.2,1.1,1.2c0.4,0,0.7-0.2,0.8-0.4
		l0.4,0.2c-0.2,0.4-0.6,0.6-1.2,0.6C339.4,678.3,338.7,677.7,338.7,676.7z M344.3,677.6h-1.5l-0.2,0.6h-0.5l1.2-3.1h0.6l1.2,3.1
		h-0.5L344.3,677.6z M343,677.2h1.2l-0.6-1.6L343,677.2z M346.4,675.9v2.4h-0.5v-3.1h0.5l1.7,2.3v-2.3h0.5v3.1h-0.4L346.4,675.9z
		 M349.7,675.2h1.1c1,0,1.6,0.7,1.6,1.5c0,0.9-0.6,1.5-1.6,1.5h-1.1V675.2z M350.8,677.8c0.7,0,1.1-0.5,1.1-1.1
		c0-0.6-0.4-1.1-1.1-1.1h-0.6v2.3H350.8z M354.1,677l-1.2-1.8h0.5l0.9,1.4l0.9-1.4h0.5l-1.2,1.8v1.3h-0.5V677z M356.4,677.7
		c0.2,0,0.3,0.1,0.3,0.3c0,0.2-0.1,0.3-0.3,0.3s-0.3-0.1-0.3-0.3C356.1,677.9,356.2,677.7,356.4,677.7z M357.6,676.7
		c0-0.9,0.7-1.6,1.6-1.6c0.6,0,1,0.3,1.2,0.6L360,676c-0.2-0.3-0.5-0.4-0.8-0.4c-0.6,0-1.1,0.5-1.1,1.2c0,0.7,0.5,1.2,1.1,1.2
		c0.4,0,0.7-0.2,0.8-0.4l0.4,0.2c-0.2,0.4-0.6,0.6-1.2,0.6C358.3,678.3,357.6,677.7,357.6,676.7z M362.7,675.1
		c0.9,0,1.5,0.7,1.5,1.6s-0.6,1.6-1.5,1.6c-0.9,0-1.5-0.7-1.5-1.6S361.8,675.1,362.7,675.1z M362.7,675.5c-0.7,0-1.1,0.5-1.1,1.2
		c0,0.7,0.4,1.2,1.1,1.2c0.6,0,1.1-0.5,1.1-1.2C363.8,676,363.4,675.5,362.7,675.5z M365.4,677.7c0.2,0,0.3,0.1,0.3,0.3
		c0,0.2-0.1,0.3-0.3,0.3s-0.3-0.1-0.3-0.3C365.1,677.9,365.2,677.7,365.4,677.7z M366.6,675.2h0.5v1.9c0,0.5,0.3,0.9,0.8,0.9
		s0.8-0.3,0.8-0.9v-1.9h0.5v1.9c0,0.8-0.4,1.3-1.3,1.3s-1.3-0.5-1.3-1.3V675.2z M371.1,676.9l-0.3,0.3v1h-0.5v-3.1h0.5v1.5l1.3-1.5
		h0.6l-1.3,1.5l1.4,1.6h-0.6L371.1,676.9z"/>
	<path class="st5" d="M295,683.8h0.5v3.1H295V683.8z M297.1,684.5v2.4h-0.5v-3.1h0.5l1.7,2.3v-2.3h0.5v3.1h-0.4L297.1,684.5z
		 M300.4,683.8h2.1v0.4h-1.6v0.9h1.6v0.4h-1.6v1.4h-0.5V683.8z M304.8,683.8c0.9,0,1.5,0.7,1.5,1.6c0,0.9-0.6,1.6-1.5,1.6
		c-0.9,0-1.5-0.7-1.5-1.6C303.3,684.5,303.9,683.8,304.8,683.8z M304.8,684.2c-0.7,0-1.1,0.5-1.1,1.2c0,0.7,0.4,1.2,1.1,1.2
		c0.6,0,1.1-0.5,1.1-1.2C305.9,684.7,305.5,684.2,304.8,684.2z M309,684c0.9,0,1.5,0.7,1.5,1.4c0,0.7-0.4,1.1-0.8,1.1
		c-0.3,0-0.4-0.2-0.4-0.4l0,0c-0.2,0.2-0.4,0.4-0.7,0.4c-0.4,0-0.7-0.3-0.7-0.8c0-0.6,0.5-1.1,1.1-1.1c0.3,0,0.5,0.2,0.6,0.3
		l0.1-0.3h0.4l-0.3,1.2c0,0,0,0.1,0,0.1c0,0.2,0.1,0.2,0.2,0.2c0.2,0,0.5-0.2,0.5-0.8c0-0.7-0.5-1.3-1.3-1.3c-0.9,0-1.6,0.8-1.6,1.6
		c0,0.7,0.6,1.3,1.3,1.3c0.3,0,0.6-0.1,0.9-0.3l0.1,0.1c-0.3,0.2-0.6,0.3-1,0.3c-0.8,0-1.5-0.6-1.5-1.4
		C307.2,684.8,308.1,684,309,684z M309.4,685.2c-0.1-0.1-0.2-0.3-0.4-0.3c-0.4,0-0.8,0.4-0.8,0.8c0,0.3,0.2,0.5,0.4,0.5
		c0.3,0,0.5-0.2,0.6-0.4L309.4,685.2z M311.5,683.8h1.3c0.6,0,1,0.4,1,0.9s-0.4,0.9-1,0.9h-0.8v1.2h-0.5V683.8z M312.7,684.2h-0.8
		v1.1h0.8c0.3,0,0.6-0.2,0.6-0.5S313,684.2,312.7,684.2z M316.8,685.5h-1.7v1.4h-0.5v-3.1h0.5v1.3h1.7v-1.3h0.5v3.1h-0.5V685.5z
		 M320.4,686.3h-1.5l-0.2,0.6h-0.5l1.2-3.1h0.6l1.2,3.1h-0.5L320.4,686.3z M319,685.9h1.2l-0.6-1.6L319,685.9z M322.4,684.5v2.4H322
		v-3.1h0.5l1.7,2.3v-2.3h0.5v3.1h-0.4L322.4,684.5z M326.5,684.2h-1v-0.4h2.4v0.4H327v2.7h-0.5V684.2z M330.1,683.8
		c0.9,0,1.5,0.7,1.5,1.6c0,0.9-0.6,1.6-1.5,1.6c-0.9,0-1.5-0.7-1.5-1.6C328.6,684.5,329.2,683.8,330.1,683.8z M330.1,684.2
		c-0.7,0-1.1,0.5-1.1,1.2c0,0.7,0.4,1.2,1.1,1.2c0.6,0,1.1-0.5,1.1-1.2C331.2,684.7,330.8,684.2,330.1,684.2z M335.4,684.5l-1,2.4
		h-0.2l-1-2.4v2.4h-0.5v-3.1h0.7l0.9,2.2l0.9-2.2h0.7v3.1h-0.5V684.5z M336.8,685.1h1.1v0.4h-1.1V685.1z M338.7,685.4
		c0-0.9,0.7-1.6,1.6-1.6c0.6,0,1,0.3,1.2,0.6l-0.4,0.2c-0.2-0.3-0.5-0.4-0.8-0.4c-0.6,0-1.1,0.5-1.1,1.2c0,0.7,0.5,1.2,1.1,1.2
		c0.4,0,0.7-0.2,0.8-0.4l0.4,0.2c-0.2,0.4-0.6,0.6-1.2,0.6C339.4,687,338.7,686.3,338.7,685.4z M344.3,686.3h-1.5l-0.2,0.6h-0.5
		l1.2-3.1h0.6l1.2,3.1h-0.5L344.3,686.3z M343,685.9h1.2l-0.6-1.6L343,685.9z M346.4,684.5v2.4h-0.5v-3.1h0.5l1.7,2.3v-2.3h0.5v3.1
		h-0.4L346.4,684.5z M349.7,683.8h1.1c1,0,1.6,0.7,1.6,1.5c0,0.9-0.6,1.5-1.6,1.5h-1.1V683.8z M350.8,686.5c0.7,0,1.1-0.5,1.1-1.1
		c0-0.6-0.4-1.1-1.1-1.1h-0.6v2.3H350.8z M354.1,685.6l-1.2-1.8h0.5l0.9,1.4l0.9-1.4h0.5l-1.2,1.8v1.3h-0.5V685.6z M356.4,686.4
		c0.2,0,0.3,0.1,0.3,0.3c0,0.2-0.1,0.3-0.3,0.3s-0.3-0.1-0.3-0.3C356.1,686.5,356.2,686.4,356.4,686.4z M357.6,685.4
		c0-0.9,0.7-1.6,1.6-1.6c0.6,0,1,0.3,1.2,0.6l-0.4,0.2c-0.2-0.3-0.5-0.4-0.8-0.4c-0.6,0-1.1,0.5-1.1,1.2c0,0.7,0.5,1.2,1.1,1.2
		c0.4,0,0.7-0.2,0.8-0.4l0.4,0.2c-0.2,0.4-0.6,0.6-1.2,0.6C358.3,687,357.6,686.3,357.6,685.4z M362.7,683.8c0.9,0,1.5,0.7,1.5,1.6
		c0,0.9-0.6,1.6-1.5,1.6c-0.9,0-1.5-0.7-1.5-1.6C361.2,684.5,361.8,683.8,362.7,683.8z M362.7,684.2c-0.7,0-1.1,0.5-1.1,1.2
		c0,0.7,0.4,1.2,1.1,1.2c0.6,0,1.1-0.5,1.1-1.2C363.8,684.7,363.4,684.2,362.7,684.2z M365.4,686.4c0.2,0,0.3,0.1,0.3,0.3
		c0,0.2-0.1,0.3-0.3,0.3s-0.3-0.1-0.3-0.3C365.1,686.5,365.2,686.4,365.4,686.4z M366.6,683.8h0.5v1.9c0,0.5,0.3,0.9,0.8,0.9
		s0.8-0.3,0.8-0.9v-1.9h0.5v1.9c0,0.8-0.4,1.3-1.3,1.3s-1.3-0.5-1.3-1.3V683.8z M371.1,685.6l-0.3,0.3v1h-0.5v-3.1h0.5v1.5l1.3-1.5
		h0.6l-1.3,1.5l1.4,1.6h-0.6L371.1,685.6z"/>
	<g>
		<path class="st5" d="M339.9,692.4c0.9,0,1.2,0.8,1.2,1.6s-0.4,1.6-1.2,1.6c-0.9,0-1.2-0.8-1.2-1.6S339.1,692.4,339.9,692.4z
			 M339.9,692.8c-0.5,0-0.7,0.6-0.7,1.2c0,0.6,0.2,1.2,0.7,1.2c0.5,0,0.7-0.6,0.7-1.2C340.7,693.4,340.5,692.8,339.9,692.8z"/>
		<path class="st5" d="M342.7,693.1l-0.5,0.5l-0.3-0.3l0.8-0.8h0.4v3.1h-0.5V693.1z"/>
		<path class="st5" d="M344.2,695.2c1.2-0.9,1.7-1.3,1.7-1.8c0-0.4-0.3-0.5-0.6-0.5c-0.4,0-0.6,0.2-0.8,0.4l-0.3-0.3
			c0.3-0.3,0.7-0.5,1.1-0.5c0.6,0,1.1,0.3,1.1,0.9c0,0.6-0.6,1.1-1.4,1.8h1.4v0.4h-2.2V695.2z"/>
		<path class="st5" d="M348,693.1l-0.5,0.5l-0.3-0.3l0.8-0.8h0.4v3.1H348V693.1z"/>
		<path class="st5" d="M351.7,693.1l-0.5,0.5l-0.3-0.3l0.8-0.8h0.4v3.1h-0.5V693.1z"/>
		<path class="st5" d="M353.2,695.2c1.2-0.9,1.7-1.3,1.7-1.8c0-0.4-0.3-0.5-0.6-0.5c-0.4,0-0.6,0.2-0.8,0.4l-0.3-0.3
			c0.3-0.3,0.7-0.5,1.1-0.5c0.6,0,1.1,0.3,1.1,0.9c0,0.6-0.6,1.1-1.4,1.8h1.4v0.4h-2.2V695.2z"/>
		<path class="st5" d="M356.5,694.8c0.2,0.2,0.5,0.4,0.9,0.4c0.4,0,0.7-0.2,0.7-0.5c0-0.3-0.3-0.5-0.7-0.5c-0.1,0-0.3,0-0.3,0v-0.4
			c0.1,0,0.2,0,0.3,0c0.4,0,0.7-0.1,0.7-0.5c0-0.3-0.3-0.5-0.7-0.5c-0.3,0-0.6,0.1-0.8,0.4l-0.2-0.3c0.2-0.3,0.6-0.5,1.1-0.5
			c0.6,0,1.1,0.3,1.1,0.8c0,0.4-0.4,0.7-0.7,0.7c0.3,0,0.7,0.3,0.7,0.8c0,0.5-0.4,0.9-1.1,0.9c-0.5,0-0.9-0.2-1.1-0.5L356.5,694.8z"
			/>
		<path class="st5" d="M360.8,694.8h-1.5v-0.4l1.3-2h0.6v1.9h0.4v0.4h-0.4v0.7h-0.5V694.8z M359.8,694.4h1v-1.5L359.8,694.4z"/>
		<path class="st5" d="M364.5,694.8c0.2,0.2,0.5,0.4,0.8,0.4c0.4,0,0.7-0.3,0.7-0.6c0-0.4-0.3-0.6-0.7-0.6c-0.3,0-0.5,0.1-0.7,0.3
			l-0.3-0.1v-1.7h1.9v0.4h-1.5v1c0.1-0.1,0.4-0.3,0.7-0.3c0.5,0,1,0.4,1,1c0,0.6-0.5,1-1.1,1c-0.5,0-0.9-0.2-1.1-0.5L364.5,694.8z"
			/>
		<path class="st5" d="M368.7,692.4c0.4,0,0.7,0.1,0.9,0.4l-0.2,0.4c-0.2-0.2-0.3-0.3-0.6-0.3c-0.6,0-0.8,0.5-0.8,1.1
			c0,0,0,0.1,0,0.1c0.1-0.2,0.5-0.5,0.8-0.5c0.6,0,1,0.3,1,1c0,0.6-0.4,1-1.1,1c-0.9,0-1.2-0.7-1.2-1.6
			C367.4,693.2,367.8,692.4,368.7,692.4z M368.6,694c-0.3,0-0.6,0.2-0.7,0.4c0,0.4,0.2,0.8,0.7,0.8c0.4,0,0.7-0.3,0.7-0.6
			C369.2,694.2,368.9,694,368.6,694z"/>
		<path class="st5" d="M372.1,692.9h-1.6v-0.4h2.2v0.3l-1.2,2.8h-0.5L372.1,692.9z"/>
	</g>
	<polygon class="st6" points="310.6,582.9 309,587.6 310.4,587.6 309.9,589 308.5,589 307.9,590.8 306.2,590.8 309.7,581.5 
		311.6,581.5 315.1,590.8 313.4,590.8 	"/>
	<g>
		<defs>
			<rect id="SVGID_17_" x="46" y="550.1" width="343.2" height="161.8"/>
		</defs>
		<clipPath id="SVGID_18_">
			<use xlink:href="#SVGID_17_"  style="overflow:visible;"/>
		</clipPath>
		<path class="st15" d="M299.4,568h-2.1v2.9h2.1c0.9,0,1.5-0.6,1.5-1.5C300.9,568.6,300.3,568,299.4,568 M295.7,566.6h3.9
			c1.9,0,2.9,1.3,2.9,2.9c0,1.6-1.1,2.9-2.9,2.9h-2.3v3.5h-1.6V566.6z"/>
	</g>
	<polygon class="st6" points="312.2,571.8 307.6,571.8 307.6,575.9 306.1,575.9 306.1,566.6 307.6,566.6 307.6,570.4 312.2,570.4 
		312.2,566.6 313.8,566.6 313.8,575.9 312.2,575.9 	"/>
	<polygon class="st6" points="321.6,568 319.9,572.7 321.4,572.7 320.8,574.1 319.5,574.1 318.9,575.9 317.2,575.9 320.6,566.6 
		322.6,566.6 326.1,575.9 324.4,575.9 	"/>
	<polygon class="st6" points="331,569.1 331,575.9 329.4,575.9 329.4,566.6 331,566.6 335.6,573.2 335.6,566.6 337.1,566.6 
		337.1,575.9 335.6,575.9 	"/>
	<polygon class="st6" points="343.5,568 340.8,568 340.8,566.6 347.8,566.6 347.8,568 345.1,568 345.1,575.9 343.5,575.9 	"/>
	<g>
		<defs>
			<rect id="SVGID_19_" x="46" y="550.1" width="343.2" height="161.8"/>
		</defs>
		<clipPath id="SVGID_20_">
			<use xlink:href="#SVGID_19_"  style="overflow:visible;"/>
		</clipPath>
		<path class="st16" d="M355.3,567.9c-1.8,0-2.9,1.4-2.9,3.3c0,1.9,1.1,3.3,2.9,3.3c1.8,0,2.9-1.4,2.9-3.3
			C358.2,569.3,357.1,567.9,355.3,567.9 M355.3,566.5c2.7,0,4.5,2,4.5,4.8c0,2.8-1.9,4.8-4.5,4.8c-2.7,0-4.5-2-4.5-4.8
			C350.8,568.5,352.6,566.5,355.3,566.5"/>
	</g>
	<polygon class="st6" points="371.3,568.9 368.5,575.9 367.9,575.9 365.1,568.9 365.1,575.9 363.6,575.9 363.6,566.6 365.8,566.6 
		368.2,572.8 370.6,566.6 372.8,566.6 372.8,575.9 371.3,575.9 	"/>
	<g>
		<defs>
			<rect id="SVGID_21_" x="46" y="550.1" width="343.2" height="161.8"/>
		</defs>
		<clipPath id="SVGID_22_">
			<use xlink:href="#SVGID_21_"  style="overflow:visible;"/>
		</clipPath>
		<path class="st17" d="M295.3,586.2c0-2.8,2-4.8,4.6-4.8c1.9,0,3,1,3.6,2.1l-1.3,0.7c-0.4-0.8-1.3-1.3-2.3-1.3c-1.7,0-3,1.4-3,3.3
			s1.3,3.3,3,3.3c1,0,1.9-0.6,2.3-1.3l1.3,0.7c-0.7,1.1-1.8,2.1-3.6,2.1C297.4,591,295.3,589,295.3,586.2"/>
	</g>
	<polygon class="st6" points="320,584.1 320,590.8 318.5,590.8 318.5,581.5 320.1,581.5 324.6,588.1 324.6,581.5 326.2,581.5 
		326.2,590.8 324.7,590.8 	"/>
	<g>
		<defs>
			<rect id="SVGID_23_" x="46" y="550.1" width="343.2" height="161.8"/>
		</defs>
		<clipPath id="SVGID_24_">
			<use xlink:href="#SVGID_23_"  style="overflow:visible;"/>
		</clipPath>
		<path class="st18" d="M333.9,589.4c1.9,0,3-1.4,3-3.2c0-1.8-1.1-3.2-3-3.2h-1.7v6.4H333.9z M330.6,581.5h3.3
			c2.8,0,4.6,1.9,4.6,4.6c0,2.7-1.9,4.6-4.6,4.6h-3.3V581.5z"/>
	</g>
	<polygon class="st6" points="344.3,587 340.8,581.5 342.6,581.5 345.1,585.5 347.5,581.5 349.3,581.5 345.8,587 345.8,590.8 
		344.3,590.8 	"/>
	<g>
		<defs>
			<rect id="SVGID_25_" x="46" y="550.1" width="343.2" height="161.8"/>
		</defs>
		<clipPath id="SVGID_26_">
			<use xlink:href="#SVGID_25_"  style="overflow:visible;"/>
		</clipPath>
		<path class="st19" d="M280.7,568.3c-0.1,0-0.1,0.1-0.1,0.1l0,8.6c0,0.1,0.1,0.1,0.1,0.1c1.8-0.9,3.5-2.3,3.5-5
			c0-1.2-0.5-2.3-1.3-3C282.3,568.6,281.5,568.3,280.7,568.3 M279.1,591.2c-1.2,0-2.3-0.4-3.2-1.1c-1.5-1.1-2.3-3.1-2.3-5.2
			c0.1-3,2.2-5.8,5.1-7.1c0.1,0,0.1-0.1,0.1-0.1v-10.8c0-0.1,0.1-0.2,0.2-0.2l0.5-0.1c1.6-0.3,3.2,0.1,4.4,1.2
			c1.2,1.1,1.9,2.7,1.9,4.4c0,3.1-1.9,5.6-5.2,6.9c-0.1,0-0.1,0.1-0.1,0.2v4.5c0,0.1-0.1,0.2-0.2,0.2l-1.4,0.4c-0.1,0-0.2,0-0.2-0.2
			V580c0-0.1-0.1-0.1-0.1-0.1c-1.9,1.2-3.2,3.1-3.3,5.2c-0.1,1.5,0.5,2.8,1.5,3.6c0.9,0.7,2.1,0.9,3.4,0.5c0.1,0,0.2,0.1,0.2,0.2
			l0,1.5c0,0.1-0.1,0.2-0.2,0.2C280,591.2,279.6,591.2,279.1,591.2"/>
	</g>
</g>
<g>
	<g>
		<path class="st5" d="M453.8,658.9l-0.5,0.5l-0.3-0.3l0.8-0.8h0.4v2.9h-0.4V658.9z"/>
		<path class="st5" d="M455.3,660.9c1.1-0.8,1.6-1.3,1.6-1.8c0-0.3-0.3-0.5-0.6-0.5c-0.3,0-0.6,0.1-0.8,0.4l-0.3-0.3
			c0.2-0.3,0.6-0.5,1.1-0.5c0.5,0,1,0.3,1,0.9c0,0.6-0.6,1.1-1.4,1.7h1.4v0.4h-2.1V660.9z"/>
		<path class="st5" d="M458.4,660.5c0.2,0.2,0.5,0.4,0.8,0.4c0.4,0,0.6-0.2,0.6-0.5c0-0.3-0.3-0.5-0.7-0.5c-0.1,0-0.3,0-0.3,0v-0.4
			c0,0,0.2,0,0.3,0c0.4,0,0.6-0.1,0.6-0.4c0-0.3-0.3-0.5-0.6-0.5c-0.3,0-0.6,0.1-0.8,0.3l-0.2-0.3c0.2-0.3,0.6-0.5,1-0.5
			c0.6,0,1,0.3,1,0.8c0,0.4-0.3,0.6-0.6,0.7c0.3,0,0.7,0.3,0.7,0.7c0,0.5-0.4,0.9-1.1,0.9c-0.5,0-0.9-0.2-1.1-0.5L458.4,660.5z"/>
		<path class="st5" d="M463,660.5c0.2,0.2,0.5,0.4,0.9,0.4c0.5,0,0.6-0.2,0.6-0.5c0-0.3-0.3-0.4-0.7-0.5c-0.5-0.1-1-0.3-1-0.9
			c0-0.5,0.4-0.8,1-0.8c0.5,0,0.8,0.1,1.1,0.4l-0.3,0.3c-0.2-0.2-0.5-0.3-0.9-0.3c-0.3,0-0.6,0.2-0.6,0.4c0,0.3,0.3,0.3,0.7,0.4
			c0.5,0.1,1,0.3,1,0.9c0,0.5-0.3,0.9-1.1,0.9c-0.5,0-0.9-0.2-1.2-0.5L463,660.5z"/>
		<path class="st5" d="M467.3,658.2c0.9,0,1.5,0.6,1.5,1.5c0,0.9-0.6,1.5-1.5,1.5c-0.9,0-1.5-0.6-1.5-1.5
			C465.8,658.9,466.5,658.2,467.3,658.2z M467.3,658.6c-0.6,0-1,0.5-1,1.1c0,0.6,0.4,1.1,1,1.1c0.6,0,1-0.5,1-1.1
			C468.4,659.1,468,658.6,467.3,658.6z"/>
		<path class="st5" d="M472.3,658.9l-1,2.3h-0.2l-1-2.3v2.3h-0.4v-2.9h0.6l0.9,2.1l0.9-2.1h0.6v2.9h-0.4V658.9z"/>
		<path class="st5" d="M473.9,658.3h2v0.4h-1.5v0.9h1.5v0.4h-1.5v0.9h1.5v0.4h-2V658.3z"/>
		<path class="st5" d="M478.5,659l-0.6,2.3h-0.5l-0.8-2.9h0.5l0.6,2.4l0.6-2.4h0.4l0.6,2.4l0.6-2.4h0.5l-0.8,2.9h-0.5L478.5,659z"/>
		<path class="st5" d="M483.3,659.9h-1.6v1.3h-0.4v-2.9h0.4v1.2h1.6v-1.2h0.4v2.9h-0.4V659.9z"/>
		<path class="st5" d="M484.8,658.3h2v0.4h-1.5v0.9h1.5v0.4h-1.5v0.9h1.5v0.4h-2V658.3z"/>
		<path class="st5" d="M488.8,660.1h-0.6v1.1h-0.4v-2.9h1.2c0.6,0,0.9,0.4,0.9,0.9c0,0.5-0.4,0.8-0.7,0.9l0.8,1.2h-0.5L488.8,660.1z
			 M489,658.7h-0.7v1h0.7c0.3,0,0.5-0.2,0.5-0.5C489.6,658.9,489.3,658.7,489,658.7z"/>
		<path class="st5" d="M491,658.3h2v0.4h-1.5v0.9h1.5v0.4h-1.5v0.9h1.5v0.4h-2V658.3z"/>
		<path class="st5" d="M493.9,661.7c0.1-0.1,0.3-0.3,0.3-0.4c0,0,0,0-0.1,0c-0.1,0-0.2-0.1-0.2-0.3c0-0.2,0.1-0.3,0.3-0.3
			c0.2,0,0.3,0.1,0.3,0.4c0,0.3-0.2,0.6-0.4,0.7L493.9,661.7z"/>
	</g>
	<g>
		<path class="st5" d="M497.1,658.3h1.4c0.5,0,0.8,0.3,0.8,0.8c0,0.4-0.2,0.6-0.5,0.7c0.3,0,0.6,0.4,0.6,0.7c0,0.5-0.3,0.8-0.9,0.8
			h-1.4V658.3z M498.4,659.5c0.3,0,0.5-0.2,0.5-0.4c0-0.2-0.2-0.4-0.5-0.4h-0.9v0.9H498.4z M498.4,660.8c0.3,0,0.5-0.2,0.5-0.5
			c0-0.2-0.2-0.5-0.5-0.5h-0.9v0.9H498.4z"/>
		<path class="st5" d="M500.3,658.3h0.4v2.9h-0.4V658.3z"/>
		<path class="st5" d="M502.9,660.1h-0.6v1.1h-0.4v-2.9h1.2c0.6,0,0.9,0.4,0.9,0.9c0,0.5-0.4,0.8-0.7,0.9l0.8,1.2h-0.5L502.9,660.1z
			 M503.1,658.7h-0.7v1h0.7c0.3,0,0.5-0.2,0.5-0.5C503.6,658.9,503.4,658.7,503.1,658.7z"/>
		<path class="st5" d="M507.6,658.9l-1,2.3h-0.2l-1-2.3v2.3h-0.4v-2.9h0.6l0.9,2.1l0.9-2.1h0.6v2.9h-0.4V658.9z"/>
		<path class="st5" d="M509.1,658.3h0.4v2.9h-0.4V658.3z"/>
		<path class="st5" d="M511.1,659v2.3h-0.4v-2.9h0.5l1.6,2.2v-2.2h0.4v2.9h-0.4L511.1,659z"/>
		<path class="st5" d="M515.7,658.2c0.6,0,0.9,0.3,1.2,0.6l-0.4,0.2c-0.2-0.2-0.5-0.4-0.8-0.4c-0.6,0-1.1,0.5-1.1,1.1
			c0,0.7,0.5,1.1,1.1,1.1c0.3,0,0.6-0.2,0.7-0.3v-0.5h-0.9v-0.4h1.4v1.1c-0.3,0.3-0.7,0.5-1.2,0.5c-0.8,0-1.5-0.6-1.5-1.5
			C514.1,658.8,514.8,658.2,515.7,658.2z"/>
		<path class="st5" d="M519.9,659.9h-1.6v1.3h-0.4v-2.9h0.4v1.2h1.6v-1.2h0.4v2.9h-0.4V659.9z"/>
		<path class="st5" d="M523.3,660.6h-1.4l-0.2,0.6h-0.5l1.2-2.9h0.6l1.2,2.9h-0.5L523.3,660.6z M522,660.2h1.2l-0.6-1.6L522,660.2z"
			/>
		<path class="st5" d="M527.4,658.9l-1,2.3h-0.2l-1-2.3v2.3h-0.4v-2.9h0.6l0.9,2.1l0.9-2.1h0.6v2.9h-0.4V658.9z"/>
	</g>
	<g>
		<path class="st5" d="M528.9,661.7c0.1-0.1,0.3-0.3,0.3-0.4c0,0,0,0-0.1,0c-0.1,0-0.2-0.1-0.2-0.3c0-0.2,0.1-0.3,0.3-0.3
			c0.2,0,0.3,0.1,0.3,0.4c0,0.3-0.2,0.6-0.4,0.7L528.9,661.7z"/>
		<path class="st5" d="M533.9,660.6h-1.4l-0.2,0.6h-0.5l1.2-2.9h0.6l1.2,2.9h-0.5L533.9,660.6z M532.6,660.2h1.2l-0.6-1.6
			L532.6,660.2z"/>
		<path class="st5" d="M535.4,658.3h1.4c0.5,0,0.8,0.3,0.8,0.8c0,0.4-0.2,0.6-0.5,0.7c0.3,0,0.6,0.4,0.6,0.7c0,0.5-0.3,0.8-0.9,0.8
			h-1.4V658.3z M536.7,659.5c0.3,0,0.5-0.2,0.5-0.4c0-0.2-0.2-0.4-0.5-0.4h-0.9v0.9H536.7z M536.7,660.8c0.3,0,0.5-0.2,0.5-0.5
			c0-0.2-0.2-0.5-0.5-0.5h-0.9v0.9H536.7z"/>
		<path class="st5" d="M539.2,658.9l-0.5,0.5l-0.3-0.3l0.8-0.8h0.4v2.9h-0.4V658.9z"/>
		<path class="st5" d="M542.2,660.9c1.1-0.8,1.6-1.3,1.6-1.8c0-0.3-0.3-0.5-0.6-0.5c-0.3,0-0.6,0.1-0.8,0.4l-0.3-0.3
			c0.2-0.3,0.6-0.5,1.1-0.5c0.5,0,1,0.3,1,0.9c0,0.6-0.6,1.1-1.4,1.7h1.4v0.4h-2.1V660.9z"/>
		<path class="st5" d="M545.2,659.8c0-0.9,0.7-1.5,1.5-1.5c0.6,0,0.9,0.3,1.2,0.6l-0.4,0.2c-0.2-0.2-0.4-0.4-0.8-0.4
			c-0.6,0-1.1,0.5-1.1,1.1c0,0.7,0.5,1.1,1.1,1.1c0.3,0,0.6-0.2,0.8-0.4l0.4,0.2c-0.2,0.3-0.6,0.6-1.2,0.6
			C545.9,661.3,545.2,660.7,545.2,659.8z"/>
		<path class="st5" d="M548.8,658.3h1.1c0.9,0,1.5,0.6,1.5,1.5c0,0.9-0.6,1.5-1.5,1.5h-1.1V658.3z M549.9,660.8
			c0.7,0,1.1-0.5,1.1-1.1c0-0.6-0.4-1.1-1.1-1.1h-0.6v2.2H549.9z"/>
	</g>
	<g>
		<defs>
			<rect id="SVGID_27_" x="440.5" y="587.6" width="133.2" height="86.2"/>
		</defs>
		<clipPath id="SVGID_28_">
			<use xlink:href="#SVGID_27_"  style="overflow:visible;"/>
		</clipPath>
		<path class="st20" d="M558.3,601C558.2,601,558.2,601,558.3,601l-0.1,4.2c0,0,0,0.1,0.1,0c1-0.4,1.9-1.1,1.9-2.4
			c0-0.6-0.3-1.1-0.7-1.4C559.1,601.1,558.7,601,558.3,601 M557.4,611.9c-0.6,0-1.2-0.2-1.7-0.5c-0.8-0.5-1.3-1.5-1.2-2.5
			c0.1-1.4,1.2-2.7,2.8-3.4c0,0,0.1,0,0.1-0.1v-5.2c0-0.1,0-0.1,0.1-0.1l0.3,0c0.9-0.1,1.7,0,2.4,0.6c0.7,0.5,1.1,1.3,1.1,2.1
			c0,1.5-1,2.7-2.8,3.3c0,0-0.1,0-0.1,0.1v2.1c0,0,0,0.1-0.1,0.1l-0.7,0.2c-0.1,0-0.1,0-0.1-0.1v-2c0,0,0-0.1-0.1,0
			c-1.1,0.6-1.8,1.5-1.8,2.5c0,0.7,0.3,1.4,0.8,1.7c0.5,0.3,1.2,0.4,1.9,0.3c0.1,0,0.1,0,0.1,0.1l0,0.7c0,0.1,0,0.1-0.1,0.1
			C557.9,611.9,557.6,611.9,557.4,611.9"/>
	</g>
	<g>
		<path class="st6" d="M454.3,602.5h-0.6v1.1h-0.4v-2.9h1.2c0.6,0,0.9,0.4,0.9,0.9c0,0.5-0.4,0.8-0.7,0.9l0.8,1.2H455L454.3,602.5z
			 M454.5,601.1h-0.7v1h0.7c0.3,0,0.5-0.2,0.5-0.5C455.1,601.3,454.8,601.1,454.5,601.1z"/>
		<path class="st6" d="M458.4,603h-1.4l-0.2,0.6h-0.5l1.2-2.9h0.6l1.2,2.9h-0.5L458.4,603z M457,602.6h1.2l-0.6-1.6L457,602.6z"/>
		<path class="st6" d="M459.9,603c0.1,0.1,0.3,0.3,0.5,0.3c0.3,0,0.6-0.2,0.6-0.6v-2h0.4v2c0,0.7-0.4,1-1,1c-0.3,0-0.6-0.1-0.8-0.3
			L459.9,603z"/>
		<path class="st6" d="M464.1,600.7h1.2c0.6,0,0.9,0.4,0.9,0.9c0,0.5-0.3,0.9-0.9,0.9h-0.8v1.1h-0.4V600.7z M465.3,601.1h-0.7v1h0.7
			c0.3,0,0.5-0.2,0.5-0.5C465.8,601.3,465.6,601.1,465.3,601.1z"/>
		<path class="st6" d="M468.7,603h-1.4l-0.2,0.6h-0.5l1.2-2.9h0.6l1.2,2.9h-0.5L468.7,603z M467.4,602.6h1.2l-0.6-1.6L467.4,602.6z"
			/>
		<path class="st6" d="M470.6,601.1h-0.9v-0.4h2.3v0.4h-0.9v2.6h-0.4V601.1z"/>
		<path class="st6" d="M473.6,601.1h-0.9v-0.4h2.3v0.4H474v2.6h-0.4V601.1z"/>
		<path class="st6" d="M476.3,601.4v2.3h-0.4v-2.9h0.5l1.6,2.2v-2.2h0.4v2.9h-0.4L476.3,601.4z"/>
		<path class="st6" d="M479.5,600.7h0.4v2.9h-0.4V600.7z"/>
	</g>
	<g>
		<path class="st6" d="M455.9,609.6l-1,2.3h-0.2l-1-2.3v2.3h-0.4V609h0.6l0.9,2.1l0.9-2.1h0.6v2.9h-0.4V609.6z"/>
		<path class="st6" d="M459.3,611.3h-1.4l-0.2,0.6h-0.5l1.2-2.9h0.6l1.2,2.9h-0.5L459.3,611.3z M457.9,610.9h1.2l-0.6-1.6
			L457.9,610.9z"/>
		<path class="st6" d="M461.2,609.6v2.3h-0.4V609h0.5l1.6,2.2V609h0.4v2.9h-0.4L461.2,609.6z"/>
		<path class="st6" d="M466.3,611.3h-1.4l-0.2,0.6h-0.5l1.2-2.9h0.6l1.2,2.9h-0.5L466.3,611.3z M464.9,610.9h1.2l-0.6-1.6
			L464.9,610.9z"/>
		<path class="st6" d="M469,608.9c0.6,0,0.9,0.3,1.2,0.6l-0.4,0.2c-0.2-0.2-0.5-0.4-0.8-0.4c-0.6,0-1.1,0.5-1.1,1.1
			c0,0.7,0.5,1.1,1.1,1.1c0.3,0,0.6-0.2,0.7-0.3v-0.5h-0.9v-0.4h1.4v1.1c-0.3,0.3-0.7,0.5-1.2,0.5c-0.8,0-1.5-0.6-1.5-1.5
			C467.5,609.5,468.2,608.9,469,608.9z"/>
		<path class="st6" d="M471.2,609h0.4v2.9h-0.4V609z"/>
		<path class="st6" d="M473.2,609.6v2.3h-0.4V609h0.5l1.6,2.2V609h0.4v2.9h-0.4L473.2,609.6z"/>
		<path class="st6" d="M477.8,608.9c0.6,0,0.9,0.3,1.2,0.6l-0.4,0.2c-0.2-0.2-0.5-0.4-0.8-0.4c-0.6,0-1.1,0.5-1.1,1.1
			c0,0.7,0.5,1.1,1.1,1.1c0.3,0,0.6-0.2,0.7-0.3v-0.5h-0.9v-0.4h1.4v1.1c-0.3,0.3-0.7,0.5-1.2,0.5c-0.8,0-1.5-0.6-1.5-1.5
			C476.2,609.5,476.9,608.9,477.8,608.9z"/>
		<path class="st6" d="M481.5,609h1.1c0.9,0,1.5,0.6,1.5,1.5c0,0.9-0.6,1.5-1.5,1.5h-1.1V609z M482.6,611.5c0.7,0,1.1-0.5,1.1-1.1
			c0-0.6-0.4-1.1-1.1-1.1H482v2.2H482.6z"/>
		<path class="st6" d="M485.1,609h0.4v2.9h-0.4V609z"/>
		<path class="st6" d="M487.6,610.8h-0.6v1.1h-0.4V609h1.2c0.6,0,0.9,0.4,0.9,0.9c0,0.5-0.4,0.8-0.7,0.9l0.8,1.2h-0.5L487.6,610.8z
			 M487.8,609.4h-0.7v1h0.7c0.3,0,0.5-0.2,0.5-0.5C488.4,609.6,488.1,609.4,487.8,609.4z"/>
		<path class="st6" d="M489.8,609h2v0.4h-1.5v0.9h1.5v0.4h-1.5v0.9h1.5v0.4h-2V609z"/>
		<path class="st6" d="M492.7,610.4c0-0.9,0.7-1.5,1.5-1.5c0.6,0,0.9,0.3,1.2,0.6l-0.4,0.2c-0.2-0.2-0.4-0.4-0.8-0.4
			c-0.6,0-1.1,0.5-1.1,1.1c0,0.7,0.5,1.1,1.1,1.1c0.3,0,0.6-0.2,0.8-0.4l0.4,0.2c-0.2,0.3-0.6,0.6-1.2,0.6
			C493.3,612,492.7,611.3,492.7,610.4z"/>
		<path class="st6" d="M496.9,609.4H496V609h2.3v0.4h-0.9v2.6h-0.4V609.4z"/>
		<path class="st6" d="M500.4,608.9c0.9,0,1.5,0.6,1.5,1.5s-0.6,1.5-1.5,1.5c-0.9,0-1.5-0.6-1.5-1.5S499.6,608.9,500.4,608.9z
			 M500.4,609.3c-0.6,0-1,0.5-1,1.1c0,0.6,0.4,1.1,1,1.1c0.6,0,1-0.5,1-1.1C501.5,609.8,501.1,609.3,500.4,609.3z"/>
		<path class="st6" d="M503.9,610.8h-0.6v1.1h-0.4V609h1.2c0.6,0,0.9,0.4,0.9,0.9c0,0.5-0.4,0.8-0.7,0.9l0.8,1.2h-0.5L503.9,610.8z
			 M504.1,609.4h-0.7v1h0.7c0.3,0,0.5-0.2,0.5-0.5C504.6,609.6,504.4,609.4,504.1,609.4z"/>
	</g>
	<path class="st5" d="M453.3,625.3h1.2c0.6,0,0.9,0.4,0.9,0.9s-0.3,0.9-0.9,0.9h-0.8v1.1h-0.4V625.3z M454.5,625.7h-0.7v1h0.7
		c0.3,0,0.5-0.2,0.5-0.5S454.8,625.7,454.5,625.7z M458.5,627h-1.6v1.3h-0.4v-2.9h0.4v1.2h1.6v-1.2h0.4v2.9h-0.4V627z M461.9,627.7
		h-1.4l-0.2,0.6h-0.5l1.2-2.9h0.6l1.2,2.9h-0.5L461.9,627.7z M460.6,627.3h1.2l-0.6-1.6L460.6,627.3z M463.8,626v2.3h-0.4v-2.9h0.5
		l1.6,2.2v-2.2h0.4v2.9h-0.4L463.8,626z M467.7,625.7h-0.9v-0.4h2.3v0.4h-0.9v2.6h-0.4V625.7z M471.2,625.3c0.9,0,1.5,0.6,1.5,1.5
		s-0.6,1.5-1.5,1.5c-0.9,0-1.5-0.6-1.5-1.5S470.3,625.3,471.2,625.3z M471.2,625.7c-0.6,0-1,0.5-1,1.1c0,0.6,0.4,1.1,1,1.1
		c0.6,0,1-0.5,1-1.1C472.3,626.2,471.9,625.7,471.2,625.7z M476.2,625.9l-1,2.3h-0.2l-1-2.3v2.3h-0.4v-2.9h0.6l0.9,2.1l0.9-2.1h0.6
		v2.9h-0.4V625.9z M477.6,626.6h1.1v0.3h-1.1V626.6z M479.4,626.8c0-0.9,0.7-1.5,1.5-1.5c0.6,0,0.9,0.3,1.2,0.6l-0.4,0.2
		c-0.2-0.2-0.4-0.4-0.8-0.4c-0.6,0-1.1,0.5-1.1,1.1c0,0.7,0.5,1.1,1.1,1.1c0.3,0,0.6-0.2,0.8-0.4l0.4,0.2c-0.2,0.3-0.6,0.6-1.2,0.6
		C480.1,628.3,479.4,627.7,479.4,626.8z M484.8,627.7h-1.4l-0.2,0.6h-0.5l1.2-2.9h0.6l1.2,2.9h-0.5L484.8,627.7z M483.5,627.3h1.2
		l-0.6-1.6L483.5,627.3z M486.8,626v2.3h-0.4v-2.9h0.5l1.6,2.2v-2.2h0.4v2.9h-0.4L486.8,626z M490,625.3h1.1c0.9,0,1.5,0.6,1.5,1.5
		c0,0.9-0.6,1.5-1.5,1.5H490V625.3z M491,627.9c0.7,0,1.1-0.5,1.1-1.1c0-0.6-0.4-1.1-1.1-1.1h-0.6v2.2H491z M494.2,627l-1.2-1.7h0.5
		l0.9,1.3l0.9-1.3h0.5l-1.1,1.7v1.2h-0.4V627z M496.4,627.8c0.2,0,0.3,0.1,0.3,0.3s-0.1,0.3-0.3,0.3s-0.3-0.1-0.3-0.3
		S496.2,627.8,496.4,627.8z M497.5,626.8c0-0.9,0.7-1.5,1.5-1.5c0.6,0,0.9,0.3,1.2,0.6l-0.4,0.2c-0.2-0.2-0.4-0.4-0.8-0.4
		c-0.6,0-1.1,0.5-1.1,1.1c0,0.7,0.5,1.1,1.1,1.1c0.3,0,0.6-0.2,0.8-0.4l0.4,0.2c-0.2,0.3-0.6,0.6-1.2,0.6
		C498.2,628.3,497.5,627.7,497.5,626.8z M502.5,625.3c0.9,0,1.5,0.6,1.5,1.5s-0.6,1.5-1.5,1.5s-1.5-0.6-1.5-1.5
		S501.6,625.3,502.5,625.3z M502.5,625.7c-0.6,0-1,0.5-1,1.1c0,0.6,0.4,1.1,1,1.1c0.6,0,1-0.5,1-1.1
		C503.5,626.2,503.1,625.7,502.5,625.7z M505,627.8c0.2,0,0.3,0.1,0.3,0.3s-0.1,0.3-0.3,0.3s-0.3-0.1-0.3-0.3S504.9,627.8,505,627.8
		z M506.2,625.3h0.4v1.8c0,0.5,0.3,0.8,0.8,0.8c0.5,0,0.8-0.3,0.8-0.8v-1.8h0.4v1.8c0,0.7-0.4,1.2-1.2,1.2c-0.8,0-1.2-0.5-1.2-1.2
		V625.3z M510.5,627l-0.3,0.3v1h-0.4v-2.9h0.4v1.5l1.2-1.5h0.5l-1.2,1.4l1.3,1.6h-0.5L510.5,627z"/>
	<path class="st5" d="M454.3,635.4h-0.6v1.1h-0.4v-2.9h1.2c0.6,0,0.9,0.4,0.9,0.9c0,0.5-0.4,0.8-0.7,0.9l0.8,1.2H455L454.3,635.4z
		 M454.5,634h-0.7v1h0.7c0.3,0,0.5-0.2,0.5-0.5S454.8,634,454.5,634z M458.4,636h-1.4l-0.2,0.6h-0.5l1.2-2.9h0.6l1.2,2.9h-0.5
		L458.4,636z M457,635.6h1.2l-0.6-1.6L457,635.6z M459.9,636c0.1,0.1,0.3,0.3,0.5,0.3c0.3,0,0.6-0.2,0.6-0.6v-2h0.4v2
		c0,0.7-0.4,1-1,1c-0.3,0-0.6-0.1-0.8-0.3L459.9,636z M464.1,633.8c0.8,0,1.4,0.6,1.4,1.4c0,0.7-0.4,1.1-0.8,1.1
		c-0.3,0-0.4-0.2-0.4-0.3l0,0c-0.2,0.2-0.4,0.4-0.7,0.4c-0.4,0-0.7-0.3-0.7-0.7c0-0.6,0.5-1.1,1-1.1c0.3,0,0.5,0.1,0.6,0.3l0.1-0.3
		h0.4l-0.2,1.2c0,0,0,0.1,0,0.1c0,0.1,0.1,0.2,0.2,0.2c0.2,0,0.5-0.2,0.5-0.8c0-0.7-0.5-1.2-1.2-1.2c-0.8,0-1.6,0.7-1.6,1.6
		c0,0.7,0.5,1.2,1.3,1.2c0.3,0,0.6-0.1,0.8-0.2l0.1,0.1c-0.3,0.2-0.6,0.3-0.9,0.3c-0.8,0-1.4-0.6-1.4-1.4
		C462.3,634.5,463.2,633.8,464.1,633.8z M464.4,635c0-0.1-0.2-0.3-0.4-0.3c-0.4,0-0.7,0.4-0.7,0.8c0,0.3,0.2,0.5,0.4,0.5
		c0.3,0,0.5-0.2,0.6-0.4L464.4,635z M466.4,633.6h1.2c0.6,0,0.9,0.4,0.9,0.9s-0.3,0.9-0.9,0.9h-0.8v1.1h-0.4V633.6z M467.6,634h-0.7
		v1h0.7c0.3,0,0.5-0.2,0.5-0.5S467.9,634,467.6,634z M471.6,635.3h-1.6v1.3h-0.4v-2.9h0.4v1.2h1.6v-1.2h0.4v2.9h-0.4V635.3z
		 M475,636h-1.4l-0.2,0.6h-0.5l1.2-2.9h0.6l1.2,2.9h-0.5L475,636z M473.6,635.6h1.2l-0.6-1.6L473.6,635.6z M476.9,634.3v2.3h-0.4
		v-2.9h0.5l1.6,2.2v-2.2h0.4v2.9h-0.4L476.9,634.3z M480.8,634h-0.9v-0.4h2.3v0.4h-0.9v2.6h-0.4V634z M484.3,633.6
		c0.9,0,1.5,0.6,1.5,1.5s-0.6,1.5-1.5,1.5s-1.5-0.6-1.5-1.5S483.4,633.6,484.3,633.6z M484.3,634c-0.6,0-1,0.5-1,1.1
		c0,0.6,0.4,1.1,1,1.1c0.6,0,1-0.5,1-1.1C485.3,634.5,484.9,634,484.3,634z M489.3,634.2l-1,2.3h-0.2l-1-2.3v2.3h-0.4v-2.9h0.6
		l0.9,2.1l0.9-2.1h0.6v2.9h-0.4V634.2z M490.7,634.9h1.1v0.3h-1.1V634.9z M492.5,635.1c0-0.9,0.7-1.5,1.5-1.5c0.6,0,0.9,0.3,1.2,0.6
		l-0.4,0.2c-0.2-0.2-0.4-0.4-0.8-0.4c-0.6,0-1.1,0.5-1.1,1.1c0,0.7,0.5,1.1,1.1,1.1c0.3,0,0.6-0.2,0.8-0.4l0.4,0.2
		c-0.2,0.3-0.6,0.6-1.2,0.6C493.2,636.6,492.5,636,492.5,635.1z M497.9,636h-1.4l-0.2,0.6h-0.5l1.2-2.9h0.6l1.2,2.9h-0.5L497.9,636z
		 M496.6,635.6h1.2l-0.6-1.6L496.6,635.6z M499.9,634.3v2.3h-0.4v-2.9h0.5l1.6,2.2v-2.2h0.4v2.9h-0.4L499.9,634.3z M503,633.6h1.1
		c0.9,0,1.5,0.6,1.5,1.5c0,0.9-0.6,1.5-1.5,1.5H503V633.6z M504.1,636.2c0.7,0,1.1-0.5,1.1-1.1c0-0.6-0.4-1.1-1.1-1.1h-0.6v2.2
		H504.1z M507.3,635.3l-1.2-1.7h0.5l0.9,1.3l0.9-1.3h0.5l-1.1,1.7v1.2h-0.4V635.3z M509.4,636.1c0.2,0,0.3,0.1,0.3,0.3
		s-0.1,0.3-0.3,0.3s-0.3-0.1-0.3-0.3S509.3,636.1,509.4,636.1z M510.6,635.1c0-0.9,0.7-1.5,1.5-1.5c0.6,0,0.9,0.3,1.2,0.6l-0.4,0.2
		c-0.2-0.2-0.4-0.4-0.8-0.4c-0.6,0-1.1,0.5-1.1,1.1c0,0.7,0.5,1.1,1.1,1.1c0.3,0,0.6-0.2,0.8-0.4l0.4,0.2c-0.2,0.3-0.6,0.6-1.2,0.6
		C511.3,636.6,510.6,636,510.6,635.1z M515.6,633.6c0.9,0,1.5,0.6,1.5,1.5s-0.6,1.5-1.5,1.5c-0.9,0-1.5-0.6-1.5-1.5
		S514.7,633.6,515.6,633.6z M515.6,634c-0.6,0-1,0.5-1,1.1c0,0.6,0.4,1.1,1,1.1c0.6,0,1-0.5,1-1.1C516.6,634.5,516.2,634,515.6,634z
		 M518.1,636.1c0.2,0,0.3,0.1,0.3,0.3s-0.1,0.3-0.3,0.3s-0.3-0.1-0.3-0.3S517.9,636.1,518.1,636.1z M519.3,633.6h0.4v1.8
		c0,0.5,0.3,0.8,0.8,0.8c0.5,0,0.8-0.3,0.8-0.8v-1.8h0.4v1.8c0,0.7-0.4,1.2-1.2,1.2c-0.8,0-1.2-0.5-1.2-1.2V633.6z M523.6,635.3
		l-0.3,0.3v1h-0.4v-2.9h0.4v1.5l1.2-1.5h0.5l-1.2,1.4l1.3,1.6h-0.5L523.6,635.3z"/>
	<g>
		<path class="st5" d="M454.4,641.9c0.8,0,1.2,0.8,1.2,1.5c0,0.7-0.3,1.5-1.2,1.5c-0.8,0-1.2-0.8-1.2-1.5
			C453.2,642.7,453.5,641.9,454.4,641.9z M454.4,642.3c-0.5,0-0.7,0.6-0.7,1.1c0,0.6,0.2,1.1,0.7,1.1c0.5,0,0.7-0.6,0.7-1.1
			C455.1,642.8,454.9,642.3,454.4,642.3z"/>
		<path class="st5" d="M457,642.5l-0.5,0.5l-0.3-0.3l0.8-0.8h0.4v2.9H457V642.5z"/>
		<path class="st5" d="M458.4,644.5c1.1-0.8,1.6-1.3,1.6-1.8c0-0.3-0.3-0.5-0.6-0.5c-0.3,0-0.6,0.1-0.8,0.4l-0.3-0.3
			c0.2-0.3,0.6-0.5,1.1-0.5c0.5,0,1,0.3,1,0.9c0,0.6-0.6,1.1-1.4,1.7h1.4v0.4h-2.1V644.5z"/>
		<path class="st5" d="M462,642.5l-0.5,0.5l-0.3-0.3l0.8-0.8h0.4v2.9H462V642.5z"/>
		<path class="st5" d="M465.7,642.5l-0.5,0.5l-0.3-0.3l0.8-0.8h0.4v2.9h-0.4V642.5z"/>
		<path class="st5" d="M467.1,644.5c1.1-0.8,1.6-1.3,1.6-1.8c0-0.3-0.3-0.5-0.6-0.5c-0.3,0-0.6,0.1-0.8,0.4l-0.3-0.3
			c0.2-0.3,0.6-0.5,1.1-0.5c0.5,0,1,0.3,1,0.9c0,0.6-0.6,1.1-1.4,1.7h1.4v0.4h-2.1V644.5z"/>
		<path class="st5" d="M470.3,644.2c0.2,0.2,0.5,0.4,0.8,0.4c0.4,0,0.6-0.2,0.6-0.5c0-0.3-0.3-0.5-0.7-0.5c-0.1,0-0.3,0-0.3,0v-0.4
			c0,0,0.2,0,0.3,0c0.4,0,0.6-0.1,0.6-0.4c0-0.3-0.3-0.5-0.6-0.5c-0.3,0-0.6,0.1-0.8,0.3l-0.2-0.3c0.2-0.3,0.6-0.5,1-0.5
			c0.6,0,1,0.3,1,0.8c0,0.4-0.3,0.6-0.6,0.7c0.3,0,0.7,0.3,0.7,0.7c0,0.5-0.4,0.9-1.1,0.9c-0.5,0-0.9-0.2-1.1-0.5L470.3,644.2z"/>
		<path class="st5" d="M474.4,644.2H473v-0.4l1.2-1.9h0.6v1.9h0.4v0.4h-0.4v0.7h-0.4V644.2z M473.4,643.8h1v-1.5L473.4,643.8z"/>
		<path class="st5" d="M477.9,644.2c0.2,0.2,0.5,0.4,0.8,0.4c0.4,0,0.6-0.3,0.6-0.6c0-0.4-0.3-0.6-0.6-0.6c-0.3,0-0.5,0.1-0.7,0.3
			l-0.3-0.1v-1.6h1.9v0.4h-1.4v0.9c0.1-0.1,0.4-0.3,0.7-0.3c0.5,0,0.9,0.3,0.9,0.9c0,0.6-0.5,1-1.1,1c-0.5,0-0.8-0.2-1.1-0.5
			L477.9,644.2z"/>
		<path class="st5" d="M481.9,641.9c0.4,0,0.6,0.1,0.8,0.3l-0.2,0.3c-0.2-0.2-0.3-0.3-0.6-0.3c-0.5,0-0.8,0.5-0.8,1.1
			c0,0,0,0.1,0,0.1c0.1-0.2,0.4-0.4,0.8-0.4c0.5,0,1,0.3,1,0.9c0,0.5-0.4,1-1.1,1c-0.8,0-1.2-0.7-1.2-1.5
			C480.7,642.6,481.1,641.9,481.9,641.9z M481.8,643.4c-0.3,0-0.5,0.2-0.7,0.4c0,0.3,0.2,0.8,0.7,0.8c0.4,0,0.6-0.3,0.6-0.6
			C482.5,643.6,482.2,643.4,481.8,643.4z"/>
		<path class="st5" d="M485.2,642.3h-1.6v-0.4h2.1v0.3l-1.2,2.6h-0.5L485.2,642.3z"/>
	</g>
</g>
</svg>
