<?xml version="1.0" encoding="utf-8"?>
<!-- Generator: Adobe Illustrator 21.1.0, SVG Export Plug-In . SVG Version: 6.00 Build 0)  -->
<svg version="1.1" id="Layer_1" xmlns="http://www.w3.org/2000/svg" xmlns:xlink="http://www.w3.org/1999/xlink" x="0px" y="0px"
	 viewBox="0 0 800 500" style="enable-background:new 0 0 800 500;" xml:space="preserve">
<style type="text/css">
	.st0{fill:#4D4F5B;}
	.st1{fill:#DBE2E6;}
</style>
<rect class="st0" width="800" height="500"/>
<g>
	<path class="st1" d="M330.9,271.9l-9.2,24.7h7.7l-2.8,7.5h-7.3l-3.6,9.4h-9.4l19.2-48.8h10.7l19.2,48.8h-9.4L330.9,271.9z"/>
	<path class="st1" d="M248.8,185.8h21.4c10.2,0,16,7,16,15.3c0,8.3-5.8,15.3-16,15.3h-12.9v18.2h-8.6V185.8z M269.1,193.3h-11.7
		v15.5h11.7c4.8,0,8.3-3.1,8.3-7.8C277.4,196.4,273.9,193.3,269.1,193.3z"/>
	<path class="st1" d="M339.7,213.3h-25.4v21.3h-8.6v-48.8h8.6v20h25.4v-20h8.6v48.8h-8.6V213.3z"/>
	<path class="st1" d="M391.3,193.1l-9.2,24.7h7.7l-2.8,7.5h-7.3l-3.6,9.4h-9.4l19.2-48.8h10.7l19.2,48.8h-9.4L391.3,193.1z"/>
	<path class="st1" d="M442.9,199.1v35.6h-8.6v-48.8h8.8l25,34.6v-34.6h8.6v48.8h-8.3L442.9,199.1z"/>
	<path class="st1" d="M511.8,193.3H497v-7.5h38.1v7.5h-14.8v41.3h-8.6V193.3z"/>
	<path class="st1" d="M576.5,185c14.6,0,25,10.7,25,25.3c0,14.6-10.3,25.3-25,25.3c-14.6,0-25-10.7-25-25.3
		C551.6,195.7,561.9,185,576.5,185z M576.5,192.6c-9.9,0-16.2,7.5-16.2,17.6c0,10,6.3,17.6,16.2,17.6c9.8,0,16.2-7.6,16.2-17.6
		C592.7,200.2,586.3,192.6,576.5,192.6z"/>
	<path class="st1" d="M664.4,197.7l-15,37h-3.7l-14.9-37v37h-8.6v-48.8h12.1l13.3,32.9l13.3-32.9h12.1v48.8h-8.6V197.7z"/>
	<path class="st1" d="M246.6,289.1c0-15,11.2-25.3,25.3-25.3c10.2,0,16.3,5.1,20,11l-7.3,3.7c-2.3-4-7-7.1-12.7-7.1
		c-9.3,0-16.5,7.4-16.5,17.6s7.2,17.6,16.5,17.6c5.6,0,10.3-3,12.7-7.1l7.3,3.7c-3.7,5.9-9.7,11-20,11
		C257.8,314.4,246.6,304.1,246.6,289.1z"/>
	<path class="st1" d="M382.5,277.9v35.6H374v-48.8h8.8l25,34.6v-34.6h8.6v48.8H408L382.5,277.9z"/>
	<path class="st1" d="M440.6,264.6h18.2c15.2,0,25.5,10.1,25.5,24.5c0,14.3-10.3,24.4-25.5,24.4h-18.2V264.6z M458.8,305.9
		c10.6,0,16.8-7.6,16.8-16.8c0-9.4-5.9-16.9-16.8-16.9h-9.6v33.7H458.8z"/>
	<path class="st1" d="M515.9,293.2l-19-28.6h9.8l13.5,20.9l13.3-20.9h9.8l-18.9,28.6v20.3h-8.6V293.2z"/>
	<path class="st1" d="M157.6,315.6c-6.5,0-12.5-1.9-17.6-5.6c-8.3-6-12.9-16.2-12.4-27.2c0.7-15.7,11.8-30.4,28-37.6
		c0.3-0.1,0.5-0.4,0.5-0.8v-57.1c0-0.6,0.4-1.1,1-1.2l2.9-0.5c9-1.6,17.6,0.5,24.3,6.1c6.8,5.7,10.7,14.1,10.7,23.2
		c0,16.6-10.2,29.4-28.9,36.5c-0.3,0.1-0.6,0.4-0.6,0.8l0,23.6c0,0.6-0.4,1-0.9,1.2l-7.5,2c-0.5,0.1-1.1-0.3-1.1-0.8v-21.9
		c0-0.4-0.4-0.6-0.7-0.4c-10.7,6.2-17.8,16.5-18.3,27.3c-0.4,7.8,2.8,15,8.5,19.1c5.1,3.7,11.7,4.7,18.9,2.9
		c0.5-0.1,1.1,0.3,1.1,0.8l0,7.7c0,0.6-0.4,1.1-1,1.2C162.2,315.3,159.8,315.6,157.6,315.6z M166.1,194.5c-0.3,0-0.6,0.3-0.6,0.6
		l0.1,45.5c0,0.4,0.4,0.6,0.7,0.4c9.9-4.5,19.3-12.4,19.3-26.2c0-6.3-2.7-12.1-7.3-15.9C174.8,196.1,170.6,194.6,166.1,194.5z"/>
</g>
</svg>
