<?xml version="1.0" encoding="utf-8"?>
<!-- Generator: Adobe Illustrator 21.1.0, SVG Export Plug-In . SVG Version: 6.00 Build 0)  -->
<svg version="1.1" id="Layer_1" xmlns="http://www.w3.org/2000/svg" xmlns:xlink="http://www.w3.org/1999/xlink" x="0px" y="0px"
	 viewBox="0 0 800 600" style="enable-background:new 0 0 800 600;" xml:space="preserve">
<style type="text/css">
	.st0{fill:#F1F4F6;}
	.st1{fill:#4D4F5B;}
	.st2{clip-path:url(#SVGID_2_);fill:#F4A48F;}
	.st3{fill:#FFFFFF;}
	.st4{clip-path:url(#SVGID_4_);fill:#DBE2E6;}
	.st5{fill:#787C89;}
	.st6{clip-path:url(#SVGID_6_);fill:#787C89;}
	.st7{clip-path:url(#SVGID_8_);fill:#787C89;}
	.st8{clip-path:url(#SVGID_10_);fill:#787C89;}
	.st9{clip-path:url(#SVGID_12_);fill:#787C89;}
	.st10{clip-path:url(#SVGID_14_);fill:#787C89;}
	.st11{fill:#DBE2E6;}
	.st12{fill:#F4A48F;}
	.st13{fill:#D1D9DE;}
	.st14{opacity:0.5;fill:url(#SVGID_15_);}
</style>
<rect x="0.4" y="-0.2" class="st0" width="800" height="600.2"/>
<g>
	<rect x="395.5" y="-0.2" class="st1" width="404.9" height="463.7"/>
	<g>
		<g>
			<g>
				<defs>
					<rect id="SVGID_1_" x="395.5" y="-0.2" width="404.9" height="463.7"/>
				</defs>
				<clipPath id="SVGID_2_">
					<use xlink:href="#SVGID_1_"  style="overflow:visible;"/>
				</clipPath>
				<path class="st2" d="M653.7,73.8c-0.1,0-0.3,0.1-0.3,0.3v22.4c0,0.1,0.1,0.3,0.3,0.1c5.4-2.2,10.3-6.1,10.3-12.8
					c0-3.1-1.5-6-3.9-7.8C658.3,74.7,656.1,74,653.7,73.8 M649.1,133.3c-3.4,0-6.7-0.9-9.4-2.7c-4.5-3-7-7.9-6.7-13.4
					c0.4-7.8,6.4-14.9,15-18.5c0.1,0,0.3-0.1,0.3-0.4v-28c0-0.3,0.3-0.6,0.6-0.6l1.5-0.3c4.8-0.7,9.4,0.3,13.1,3
					c3.6,2.8,5.7,6.9,5.7,11.3c0,8.2-5.5,14.5-15.5,17.9c-0.1,0-0.3,0.1-0.3,0.4v11.6c0,0.3-0.1,0.4-0.4,0.6l-4,1
					c-0.3,0-0.6-0.1-0.6-0.4v-10.6c0-0.1-0.1-0.3-0.4-0.1c-5.8,3-9.5,8.1-9.8,13.4c-0.1,3.9,1.5,7.3,4.6,9.4
					c2.7,1.8,6.2,2.2,10.1,1.3c0.3,0,0.6,0.1,0.6,0.4v3.7c0,0.3-0.1,0.6-0.4,0.6C651.6,133.2,650.3,133.3,649.1,133.3"/>
			</g>
		</g>
	</g>
</g>
<g>
	<rect x="0.8" y="271.6" class="st3" width="362.3" height="328.6"/>
	<g>
		<g>
			<g>
				<defs>
					<rect id="SVGID_3_" x="0.8" y="271.6" width="362.3" height="328.6"/>
				</defs>
				<clipPath id="SVGID_4_">
					<use xlink:href="#SVGID_3_"  style="overflow:visible;"/>
				</clipPath>
				<path class="st4" d="M-114.8,942.8c-0.1,0-0.1,0-0.1,0.1v10.9c0,0.1,0.1,0.1,0.1,0.1c2.5-1,5.1-3,5.1-6.3c0-1.5-0.7-2.8-1.9-3.9
					C-112.4,943.2-113.6,942.8-114.8,942.8 M-117,971.7c-1.6,0-3.3-0.4-4.6-1.3c-2.2-1.5-3.4-3.9-3.3-6.6c0.1-3.7,3.1-7.3,7.3-8.9
					c0.1,0,0.1-0.1,0.1-0.1V941c0-0.1,0.1-0.3,0.3-0.3l0.7-0.1c2.4-0.4,4.6,0.1,6.4,1.5c1.8,1.3,2.8,3.4,2.8,5.5c0,4-2.7,7-7.6,8.8
					c-0.1,0-0.1,0.1-0.1,0.1v5.7c0,0.1-0.1,0.3-0.3,0.3l-1.9,0.4c-0.1,0-0.3,0-0.3-0.1v-5.2c0-0.1-0.1-0.1-0.1-0.1
					c-2.8,1.5-4.6,3.9-4.8,6.6c-0.1,1.9,0.7,3.6,2.2,4.6c1.3,0.9,3.1,1.2,4.9,0.7c0.1,0,0.3,0,0.3,0.1v1.8c0,0.1-0.1,0.3-0.3,0.3
					C-115.8,971.7-116.4,971.7-117,971.7"/>
			</g>
		</g>
	</g>
	<polygon class="st5" points="88.1,357.2 85.6,364.2 87.7,364.2 86.9,366.2 85,366.2 83.9,368.9 81.4,368.9 86.6,355.1 89.6,355.1 
		94.8,368.9 92.3,368.9 	"/>
	<g>
		<g>
			<g>
				<defs>
					<rect id="SVGID_5_" x="0.8" y="271.6" width="362.3" height="328.6"/>
				</defs>
				<clipPath id="SVGID_6_">
					<use xlink:href="#SVGID_5_"  style="overflow:visible;"/>
				</clipPath>
				<path class="st6" d="M71.3,334.9h-3.1v4.3h3.1c1.3,0,2.2-0.9,2.2-2.2C73.6,335.8,72.6,334.9,71.3,334.9 M65.9,332.9h5.8
					c2.8,0,4.3,1.9,4.3,4.3c0,2.4-1.6,4.3-4.3,4.3h-3.4v5.2h-2.4L65.9,332.9L65.9,332.9z"/>
			</g>
		</g>
	</g>
	<polygon class="st5" points="90.5,340.6 83.6,340.6 83.6,346.6 81.3,346.6 81.3,332.9 83.6,332.9 83.6,338.5 90.5,338.5 
		90.5,332.9 92.9,332.9 92.9,346.6 90.5,346.6 	"/>
	<polygon class="st5" points="104.5,334.8 102,341.8 104.1,341.8 103.3,344 101.4,344 100.3,346.6 97.8,346.6 103,332.9 106,332.9 
		111.1,346.6 108.5,346.6 	"/>
	<polygon class="st5" points="118.5,336.6 118.5,346.6 116.1,346.6 116.1,332.9 118.5,332.9 125.4,342.5 125.4,332.9 127.6,332.9 
		127.6,346.6 125.4,346.6 	"/>
	<polygon class="st5" points="137.2,334.9 133.1,334.9 133.1,332.9 143.6,332.9 143.6,334.9 139.5,334.9 139.5,346.6 137.2,346.6 	
		"/>
	<g>
		<g>
			<g>
				<defs>
					<rect id="SVGID_7_" x="0.8" y="271.6" width="362.3" height="328.6"/>
				</defs>
				<clipPath id="SVGID_8_">
					<use xlink:href="#SVGID_7_"  style="overflow:visible;"/>
				</clipPath>
				<path class="st7" d="M154.8,334.8c-2.7,0-4.3,2.1-4.3,4.9s1.6,4.9,4.3,4.9c2.7,0,4.3-2.1,4.3-4.9
					C159.2,336.9,157.4,334.8,154.8,334.8 M154.8,332.6c4,0,6.7,3,6.7,7.2s-2.8,7.2-6.7,7.2c-4,0-6.7-3-6.7-7.2
					S150.7,332.6,154.8,332.6"/>
			</g>
		</g>
	</g>
	<polygon class="st5" points="178.6,336.1 174.6,346.6 173.5,346.6 169.5,336.1 169.5,346.6 167.1,346.6 167.1,332.9 170.4,332.9 
		174,342.1 177.7,332.9 181,332.9 181,346.6 178.6,346.6 	"/>
	<g>
		<g>
			<g>
				<defs>
					<rect id="SVGID_9_" x="0.8" y="271.6" width="362.3" height="328.6"/>
				</defs>
				<clipPath id="SVGID_10_">
					<use xlink:href="#SVGID_9_"  style="overflow:visible;"/>
				</clipPath>
				<path class="st8" d="M65.3,362.1c0-4.2,3-7.2,6.9-7.2c2.8,0,4.5,1.5,5.4,3.1l-1.9,1c-0.6-1.2-1.9-1.9-3.4-1.9
					c-2.5,0-4.5,2.1-4.5,4.9s1.9,4.9,4.5,4.9c1.5,0,2.8-0.9,3.4-1.9l1.9,1c-1,1.6-2.7,3.1-5.4,3.1C68.3,369.2,65.3,366.2,65.3,362.1
					"/>
			</g>
		</g>
	</g>
	<polygon class="st5" points="102.1,358.8 102.1,368.9 99.7,368.9 99.7,355.1 102.1,355.1 109,364.9 109,355.1 111.2,355.1 
		111.2,368.9 109,368.9 	"/>
	<g>
		<g>
			<g>
				<defs>
					<rect id="SVGID_11_" x="0.8" y="271.6" width="362.3" height="328.6"/>
				</defs>
				<clipPath id="SVGID_12_">
					<use xlink:href="#SVGID_11_"  style="overflow:visible;"/>
				</clipPath>
				<path class="st9" d="M122.8,366.8c2.8,0,4.6-2.1,4.6-4.8c0-2.7-1.6-4.8-4.6-4.8h-2.5v9.5C120.3,366.8,122.8,366.8,122.8,366.8z
					 M117.9,355.1h4.9c4.2,0,7,2.8,7,6.9s-2.8,6.9-7,6.9h-4.9V355.1z"/>
			</g>
		</g>
	</g>
	<polygon class="st5" points="138.4,363.1 133.1,355.1 135.8,355.1 139.5,361 143.1,355.1 145.8,355.1 140.6,363.1 140.6,368.9 
		138.4,368.9 	"/>
	<g>
		<g>
			<g>
				<defs>
					<rect id="SVGID_13_" x="0.8" y="271.6" width="362.3" height="328.6"/>
				</defs>
				<clipPath id="SVGID_14_">
					<use xlink:href="#SVGID_13_"  style="overflow:visible;"/>
				</clipPath>
				<path class="st10" d="M43.4,335.2c-0.1,0-0.1,0.1-0.1,0.1v12.8c0,0.1,0.1,0.1,0.1,0.1c2.7-1.3,5.2-3.4,5.2-7.5
					c0-1.8-0.7-3.4-1.9-4.5C45.8,335.7,44.6,335.2,43.4,335.2 M41,369.5c-1.8,0-3.4-0.6-4.8-1.6c-2.2-1.6-3.6-4.6-3.4-7.8
					c0.1-4.5,3.3-8.6,7.6-10.6c0.1,0,0.1-0.1,0.1-0.1v-16.3c0-0.1,0.1-0.3,0.3-0.3l0.7-0.1c2.4-0.4,4.8,0.1,6.6,1.8
					c1.8,1.6,2.8,4,2.8,6.6c0,4.8-2.8,8.3-7.9,10.3c-0.1,0-0.1,0.1-0.1,0.3v6.7c0,0.1-0.1,0.3-0.3,0.3l-2.1,0.6
					c-0.1,0-0.3,0-0.3-0.3v-6.3c0-0.1-0.1-0.1-0.1-0.1c-3,1.8-4.8,4.6-4.9,7.8c-0.1,2.2,0.7,4.2,2.2,5.4c1.3,1,3.1,1.3,5.1,0.7
					c0.1,0,0.3,0.1,0.3,0.3v2.2c0,0.1-0.1,0.3-0.3,0.3C42.3,369.4,41.7,369.5,41,369.5"/>
			</g>
		</g>
	</g>
</g>
<rect x="0.8" y="271.6" class="st11" width="362.3" height="6.7"/>
<g>
	<rect x="395.5" y="495.9" class="st1" width="198.1" height="126.9"/>
	<g>
		<path class="st12" d="M477.7,564.2l-2.2,6h1.9l-0.7,1.8h-1.8l-0.9,2.2h-2.2l4.6-11.8h2.5l4.6,11.8h-2.2L477.7,564.2z"/>
		<path class="st12" d="M457.7,543.3h5.2c2.5,0,3.9,1.6,3.9,3.7c0,1.9-1.3,3.7-3.9,3.7h-3.1v4.5h-2.1V543.3z M462.6,545.1h-2.8v3.7
			h2.8c1.2,0,2.1-0.7,2.1-1.9C464.7,545.9,463.8,545.1,462.6,545.1z"/>
		<path class="st12" d="M479.8,549.9h-6.1v5.2h-2.1v-11.8h2.1v4.9h6.1v-4.9h2.1v11.8h-2.1V549.9z"/>
		<path class="st12" d="M492.3,545l-2.2,6h1.9l-0.7,1.8h-1.8l-0.9,2.2h-2.2l4.6-11.8h2.5l4.6,11.8h-2.2L492.3,545z"/>
		<path class="st12" d="M504.8,546.5v8.6h-2.1v-11.8h2.1l6.1,8.3v-8.3h2.1v11.8h-1.9L504.8,546.5z"/>
		<path class="st12" d="M521.7,545.1h-3.6v-1.8h9.2v1.8h-3.6v10h-2.1L521.7,545.1L521.7,545.1z"/>
		<path class="st12" d="M537.3,543c3.6,0,6.1,2.5,6.1,6.1c0,3.6-2.5,6.1-6.1,6.1c-3.6,0-6.1-2.5-6.1-6.1
			C531.2,545.7,533.7,543,537.3,543z M537.3,545c-2.4,0-3.9,1.8-3.9,4.3c0,2.4,1.5,4.3,3.9,4.3s3.9-1.8,3.9-4.3S539.7,545,537.3,545
			z"/>
		<path class="st12" d="M558.6,546.2l-3.6,8.9h-0.9l-3.6-8.9v8.9h-2.1v-11.8h3l3.3,8.1l3.3-8.1h3v11.8h-2.1v-8.9H558.6z"/>
		<path class="st12" d="M457.3,568.4c0-3.6,2.7-6.1,6.1-6.1c2.5,0,4,1.2,4.9,2.7l-1.8,0.9c-0.6-1-1.6-1.8-3.1-1.8
			c-2.2,0-4,1.8-4,4.3s1.8,4.3,4,4.3c1.3,0,2.5-0.7,3.1-1.8l1.8,0.9c-0.9,1.5-2.4,2.7-4.9,2.7C459.9,574.5,457.3,572,457.3,568.4z"
			/>
		<path class="st12" d="M490.2,565.6v8.6h-2.1v-11.8h2.1l6.1,8.3v-8.3h2.1v11.8h-1.9L490.2,565.6z"/>
		<path class="st12" d="M504.4,562.4h4.5c3.7,0,6.3,2.4,6.3,6c0,3.4-2.5,6-6.3,6h-4.5V562.4z M508.7,572.4c2.5,0,4-1.8,4-4
			s-1.5-4.2-4-4.2h-2.4v8.2H508.7z"/>
		<path class="st12" d="M522.6,569.3l-4.6-6.9h2.4l3.3,5.1l3.3-5.1h2.4l-4.6,6.9v4.9h-2.1V569.3z"/>
		<path class="st12" d="M435.6,574.8c-1.6,0-3-0.4-4.3-1.3c-1.9-1.5-3.1-3.9-3-6.6c0.1-3.9,2.8-7.3,6.9-9.1c0.1,0,0.1-0.1,0.1-0.1
			v-13.9c0-0.1,0.1-0.3,0.3-0.3l0.7-0.1c2.2-0.4,4.3,0.1,6,1.5s2.5,3.4,2.5,5.7c0,4-2.5,7.2-7,8.8c-0.1,0-0.1,0.1-0.1,0.1v5.8
			c0,0.1-0.1,0.3-0.1,0.3l-1.8,0.4c-0.1,0-0.3,0-0.3-0.1v-5.4c0-0.1-0.1-0.1-0.1-0.1c-2.5,1.5-4.3,4-4.5,6.6
			c-0.1,1.9,0.7,3.6,2.1,4.6c1.2,0.9,2.8,1.2,4.6,0.7c0.1,0,0.3,0,0.3,0.1v1.8c0,0.1-0.1,0.3-0.3,0.3
			C436.7,574.6,436.2,574.8,435.6,574.8z M437.7,545.4c-0.1,0-0.1,0-0.1,0.1v11c0,0.1,0.1,0.1,0.1,0.1c2.4-1,4.6-3,4.6-6.4
			c0-1.5-0.6-3-1.8-3.9C439.8,545.7,438.8,545.4,437.7,545.4z"/>
	</g>
</g>
<rect class="st3" width="362.4" height="238.9"/>
<g>
	<g>
		<path class="st13" d="M119.4,184.9l-0.7,0.7l-0.4-0.4l1.2-1.2h0.6v4.6h-0.6V184.9z"/>
		<path class="st13" d="M121.7,188c1.8-1.3,2.5-1.9,2.5-2.7c0-0.6-0.4-0.7-0.9-0.7c-0.6,0-0.9,0.3-1.2,0.6l-0.4-0.4
			c0.4-0.4,1-0.7,1.6-0.7c0.9,0,1.6,0.4,1.6,1.3c0,0.9-0.9,1.6-2.1,2.7h2.1v0.6h-3.3V188z"/>
		<path class="st13" d="M126.7,187.5c0.3,0.3,0.7,0.6,1.3,0.6c0.6,0,1-0.3,1-0.7s-0.4-0.7-1-0.7c-0.1,0-0.4,0-0.4,0V186
			c0.1,0,0.3,0,0.4,0c0.6,0,1-0.1,1-0.7c0-0.4-0.4-0.7-1-0.7c-0.4,0-0.9,0.1-1.2,0.6l-0.3-0.4c0.3-0.4,0.9-0.7,1.6-0.7
			c0.9,0,1.6,0.4,1.6,1.2c0,0.6-0.6,1-1,1c0.4,0,1,0.4,1,1.2s-0.6,1.3-1.6,1.3c-0.7,0-1.3-0.3-1.6-0.7L126.7,187.5z"/>
		<path class="st13" d="M133.7,187.5c0.3,0.3,0.7,0.6,1.5,0.6c0.7,0,1-0.4,1-0.7c0-0.4-0.6-0.6-1-0.7c-0.7-0.1-1.6-0.4-1.6-1.3
			c0-0.7,0.6-1.3,1.6-1.3c0.7,0,1.2,0.3,1.6,0.6l-0.4,0.4c-0.3-0.3-0.9-0.6-1.3-0.6s-0.9,0.3-0.9,0.6c0,0.4,0.4,0.6,1,0.7
			c0.7,0.1,1.6,0.4,1.6,1.3c0,0.7-0.4,1.3-1.8,1.3c-0.7,0-1.3-0.3-1.8-0.7L133.7,187.5z"/>
		<path class="st13" d="M140.4,183.9c1.3,0,2.2,1,2.2,2.4c0,1.3-0.9,2.4-2.2,2.4c-1.3,0-2.2-1-2.2-2.4S139.1,183.9,140.4,183.9z
			 M140.4,184.5c-1,0-1.6,0.7-1.6,1.8s0.6,1.8,1.6,1.8c0.9,0,1.6-0.7,1.6-1.8C142.1,185.2,141.5,184.5,140.4,184.5z"/>
		<path class="st13" d="M148.3,184.9l-1.5,3.6h-0.3l-1.5-3.6v3.6h-0.7v-4.6h1l1.3,3.3l1.3-3.3h1v4.6h-0.7L148.3,184.9L148.3,184.9z"
			/>
		<path class="st13" d="M150.7,184h3.1v0.6h-2.4v1.3h2.4v0.6h-2.4v1.5h2.4v0.6h-3.1V184z"/>
		<path class="st13" d="M157.9,185.1l-0.9,3.6h-0.7l-1.3-4.6h0.7l0.9,3.7l1-3.7h0.6l1,3.7l0.9-3.7h0.7l-1.3,4.6h-0.7L157.9,185.1z"
			/>
		<path class="st13" d="M165.3,186.6h-2.5v2.1h-0.7V184h0.7v1.9h2.5V184h0.7v4.6h-0.7V186.6z"/>
		<path class="st13" d="M167.7,184h3.1v0.6h-2.4v1.3h2.4v0.6h-2.4v1.5h2.4v0.6h-3.1V184z"/>
		<path class="st13" d="M173.8,186.9h-0.7v1.8h-0.7V184h1.9c0.9,0,1.5,0.6,1.5,1.3c0,0.9-0.6,1.2-1.2,1.3l1.2,1.8H175L173.8,186.9z
			 M174.1,184.6h-1v1.6h1.2c0.4,0,0.9-0.3,0.9-0.7C175,184.9,174.7,184.6,174.1,184.6z"/>
		<path class="st13" d="M177.3,184h3.1v0.6H178v1.3h2.4v0.6H178v1.5h2.4v0.6h-3.1V184z"/>
	</g>
	<g>
		<path class="st13" d="M132.4,196.8h2.1c0.7,0,1.3,0.4,1.3,1.2c0,0.6-0.4,0.9-0.7,1c0.4,0.1,0.9,0.6,0.9,1.2c0,0.7-0.4,1.2-1.3,1.2
			h-2.2V196.8z M134.3,198.8c0.4,0,0.7-0.3,0.7-0.6c0-0.4-0.3-0.7-0.7-0.7H133v1.3H134.3z M134.5,200.9c0.4,0,0.7-0.3,0.7-0.7
			c0-0.4-0.3-0.7-0.7-0.7h-1.3v1.5H134.5z"/>
		<path class="st13" d="M137.5,196.8h0.7v4.6h-0.7V196.8z"/>
		<path class="st13" d="M141.3,199.7h-0.9v1.8h-0.7v-4.6h1.9c0.9,0,1.5,0.6,1.5,1.3c0,0.9-0.6,1.2-1.2,1.3l1.2,1.8h-0.7L141.3,199.7
			z M141.6,197.4h-1.2v1.6h1.2c0.4,0,0.9-0.3,0.9-0.7C142.5,197.7,142.2,197.4,141.6,197.4z"/>
		<path class="st13" d="M148.8,197.9l-1.5,3.6H147l-1.5-3.6v3.6h-0.7v-4.6h1l1.3,3.3l1.3-3.3h1v4.6h-0.7L148.8,197.9L148.8,197.9z"
			/>
		<path class="st13" d="M151.2,196.8h0.7v4.6h-0.7V196.8z"/>
		<path class="st13" d="M154.2,197.9v3.6h-0.7v-4.6h0.7l2.5,3.4v-3.4h0.7v4.6h-0.7L154.2,197.9z"/>
		<path class="st13" d="M161.3,196.8c0.9,0,1.5,0.4,1.8,0.9l-0.6,0.3c-0.3-0.3-0.7-0.6-1.2-0.6c-0.9,0-1.6,0.7-1.6,1.8
			s0.7,1.8,1.6,1.8c0.4,0,0.9-0.3,1.2-0.4v-0.9H161v-0.6h2.1v1.6c-0.4,0.4-1,0.7-1.8,0.7c-1.3,0-2.4-0.9-2.4-2.4
			C158.9,197.6,160,196.8,161.3,196.8z"/>
		<path class="st13" d="M167.9,199.4h-2.5v2.1h-0.7v-4.6h0.7v1.9h2.5v-1.9h0.7v4.6h-0.7V199.4z"/>
		<path class="st13" d="M173.2,200.6H171l-0.3,0.9H170l1.8-4.6h0.9l1.8,4.6h-0.7L173.2,200.6z M171.2,200h1.8l-0.9-2.4L171.2,200z"
			/>
		<path class="st13" d="M179.5,197.9l-1.5,3.6h-0.3l-1.5-3.6v3.6h-0.7v-4.6h1l1.3,3.3l1.3-3.3h1v4.6h-0.7V197.9z"/>
	</g>
	<g>
		<path class="st13" d="M153.3,213.4H151l-0.3,0.9H150l1.8-4.6h0.9l1.8,4.6h-0.7L153.3,213.4z M151.2,212.8h1.8l-0.9-2.4
			L151.2,212.8z"/>
		<path class="st13" d="M155.6,209.8h2.1c0.7,0,1.3,0.4,1.3,1.2c0,0.6-0.4,0.9-0.7,1c0.4,0.1,0.9,0.6,0.9,1.2c0,0.7-0.4,1.2-1.3,1.2
			h-2.2V209.8z M157.6,211.8c0.4,0,0.7-0.3,0.7-0.6c0-0.4-0.3-0.7-0.7-0.7h-1.3v1.3H157.6z M157.7,213.7c0.4,0,0.7-0.3,0.7-0.7
			s-0.3-0.7-0.7-0.7h-1.3v1.5H157.7z"/>
		<path class="st13" d="M161.5,210.7l-0.7,0.7l-0.4-0.4l1.2-1.2h0.6v4.6h-0.7v-3.7H161.5z"/>
		<path class="st13" d="M166.1,213.8c1.8-1.3,2.5-1.9,2.5-2.7c0-0.6-0.4-0.7-0.9-0.7c-0.6,0-0.9,0.3-1.2,0.6l-0.4-0.4
			c0.4-0.4,1-0.7,1.6-0.7c0.9,0,1.6,0.4,1.6,1.3c0,0.9-0.9,1.6-2.1,2.7h2.1v0.6h-3.3L166.1,213.8L166.1,213.8z"/>
		<path class="st13" d="M170.9,212.1c0-1.3,1-2.4,2.4-2.4c0.9,0,1.5,0.4,1.8,0.9l-0.6,0.3c-0.3-0.4-0.7-0.6-1.2-0.6
			c-0.9,0-1.6,0.7-1.6,1.8s0.7,1.8,1.6,1.8c0.6,0,1-0.3,1.2-0.6l0.6,0.3c-0.3,0.6-0.9,0.9-1.8,0.9
			C171.9,214.4,170.9,213.5,170.9,212.1z"/>
		<path class="st13" d="M176.4,209.8h1.6c1.5,0,2.4,1,2.4,2.2c0,1.3-0.9,2.2-2.4,2.2h-1.6V209.8z M178,213.7c1,0,1.6-0.7,1.6-1.6
			c0-0.9-0.6-1.6-1.6-1.6h-0.9v3.4h0.9V213.7z"/>
	</g>
	<path class="st13" d="M246.9,184h1.9c0.9,0,1.5,0.6,1.5,1.3s-0.6,1.3-1.5,1.3h-1.2v1.8h-0.7V184z M248.7,184.6h-1.2v1.6h1.2
		c0.4,0,0.9-0.3,0.9-0.7C249.6,184.9,249.1,184.6,248.7,184.6z M254.8,186.6h-2.5v2.1h-0.7V184h0.7v1.9h2.5V184h0.7v4.6h-0.7V186.6z
		 M260.2,187.6h-2.2l-0.3,0.9h-0.7l1.8-4.6h0.9l1.8,4.6h-0.7L260.2,187.6z M258.1,187h1.8l-0.9-2.4L258.1,187z M263.1,185.1v3.6
		h-0.6V184h0.7l2.5,3.4V184h0.7v4.6H266L263.1,185.1z M269.3,184.6h-1.5V184h3.6v0.6H270v4h-0.7V184.6z M274.6,183.9
		c1.3,0,2.2,1,2.2,2.4s-0.9,2.4-2.2,2.4c-1.3,0-2.2-1-2.2-2.4S273.3,183.9,274.6,183.9z M274.6,184.5c-1,0-1.6,0.7-1.6,1.8
		s0.6,1.8,1.6,1.8c0.9,0,1.6-0.7,1.6-1.8S275.7,184.5,274.6,184.5z M282.5,184.9l-1.5,3.6h-0.3l-1.5-3.6v3.6h-0.7v-4.6h1l1.3,3.3
		l1.3-3.3h1v4.6h-0.7V184.9z M284.6,186h1.6v0.6h-1.6V186z M287.4,186.3c0-1.3,1-2.4,2.4-2.4c0.9,0,1.5,0.4,1.8,0.9l-0.6,0.3
		c-0.3-0.4-0.7-0.6-1.2-0.6c-0.9,0-1.6,0.7-1.6,1.8s0.7,1.8,1.6,1.8c0.6,0,1-0.3,1.2-0.6l0.6,0.3c-0.3,0.6-0.9,0.9-1.8,0.9
		C288.5,188.6,287.4,187.8,287.4,186.3z M295.8,187.6h-2.2l-0.3,0.9h-0.7l1.8-4.6h0.9l1.8,4.6h-0.7L295.8,187.6z M293.9,187h1.8
		l-0.9-2.4L293.9,187z M298.9,185.1v3.6h-0.7V184h0.7l2.5,3.4V184h0.7v4.6h-0.6L298.9,185.1z M303.8,184h1.6c1.5,0,2.4,1,2.4,2.2
		c0,1.3-0.9,2.2-2.4,2.2h-1.6V184z M305.5,187.9c1,0,1.6-0.7,1.6-1.6c0-0.9-0.6-1.6-1.6-1.6h-0.9v3.4h0.9V187.9z M310.4,186.7
		l-1.8-2.7h0.7l1.3,2.1l1.3-2.1h0.7l-1.8,2.7v1.9h-0.7v-1.9H310.4z M313.8,187.8c0.3,0,0.4,0.1,0.4,0.4c0,0.3-0.1,0.4-0.4,0.4
		c-0.3,0-0.4-0.1-0.4-0.4C313.4,188,313.5,187.8,313.8,187.8z M315.6,186.3c0-1.3,1-2.4,2.4-2.4c0.9,0,1.5,0.4,1.8,0.9l-0.6,0.4
		c-0.3-0.4-0.7-0.6-1.2-0.6c-0.9,0-1.6,0.7-1.6,1.8s0.7,1.8,1.6,1.8c0.6,0,1-0.3,1.2-0.6l0.6,0.3c-0.3,0.6-0.9,0.9-1.8,0.9
		C316.7,188.6,315.6,187.8,315.6,186.3z M323.2,183.9c1.3,0,2.2,1,2.2,2.4s-0.9,2.4-2.2,2.4c-1.3,0-2.2-1-2.2-2.4
		S321.9,183.9,323.2,183.9z M323.2,184.5c-1,0-1.6,0.7-1.6,1.8s0.6,1.8,1.6,1.8c0.9,0,1.6-0.7,1.6-1.8
		C324.9,185.2,324.3,184.5,323.2,184.5z M327.3,187.8c0.3,0,0.4,0.1,0.4,0.4c0,0.3-0.1,0.4-0.4,0.4s-0.4-0.1-0.4-0.4
		C326.8,188,327,187.8,327.3,187.8z M329,184h0.7v2.8c0,0.7,0.4,1.3,1.2,1.3s1.2-0.4,1.2-1.3V184h0.7v2.8c0,1.2-0.6,1.9-1.9,1.9
		s-1.9-0.7-1.9-1.9V184z M335.8,186.6l-0.4,0.4v1.5h-0.7v-4.6h0.7v2.2l1.9-2.2h0.9l-1.9,2.2l2.1,2.4h-0.9L335.8,186.6z"/>
	<path class="st13" d="M222.3,196.8h0.7v4.6h-0.7V196.8z M225.4,197.9v3.6h-0.7v-4.6h0.7l2.5,3.4v-3.4h0.7v4.6h-0.6L225.4,197.9z
		 M230.3,196.8h3.1v0.6h-2.4v1.3h2.4v0.6h-2.4v2.1h-0.7V196.8z M236.9,196.8c1.3,0,2.2,1,2.2,2.4c0,1.3-0.9,2.4-2.2,2.4
		s-2.2-1-2.2-2.4S235.6,196.8,236.9,196.8z M236.9,197.4c-1,0-1.6,0.7-1.6,1.8s0.6,1.8,1.6,1.8c0.9,0,1.6-0.7,1.6-1.8
		S237.9,197.4,236.9,197.4z M243.2,197.1c1.3,0,2.2,1,2.2,2.1s-0.6,1.6-1.2,1.6c-0.4,0-0.6-0.3-0.6-0.6l0,0c-0.3,0.3-0.6,0.6-1,0.6
		c-0.6,0-1-0.4-1-1.2c0-0.9,0.7-1.6,1.6-1.6c0.4,0,0.7,0.3,0.9,0.4l0.1-0.4h0.6l-0.4,1.8v0.1c0,0.3,0.1,0.3,0.3,0.3
		c0.3,0,0.7-0.3,0.7-1.2c0-1-0.7-1.9-1.9-1.9c-1.3,0-2.4,1.2-2.4,2.4c0,1,0.9,1.9,1.9,1.9c0.4,0,0.9-0.1,1.3-0.4l0.1,0.1
		c-0.4,0.3-0.9,0.4-1.5,0.4c-1.2,0-2.2-0.9-2.2-2.1C240.5,198.3,241.8,197.1,243.2,197.1z M243.8,198.9c-0.1-0.1-0.3-0.4-0.6-0.4
		c-0.6,0-1.2,0.6-1.2,1.2c0,0.4,0.3,0.7,0.6,0.7c0.4,0,0.7-0.3,0.9-0.6L243.8,198.9z M246.9,196.8h1.9c0.9,0,1.5,0.6,1.5,1.3
		s-0.6,1.3-1.5,1.3h-1.2v1.8h-0.7V196.8z M248.7,197.4h-1.2v1.6h1.2c0.4,0,0.9-0.3,0.9-0.7C249.6,197.9,249.1,197.4,248.7,197.4z
		 M254.8,199.4h-2.5v2.1h-0.7v-4.6h0.7v1.9h2.5v-1.9h0.7v4.6h-0.7V199.4z M260.2,200.6h-2.2l-0.3,0.9h-0.7l1.8-4.6h0.9l1.8,4.6h-0.7
		L260.2,200.6z M258.1,200h1.8l-0.9-2.4L258.1,200z M263.1,197.9v3.6h-0.6v-4.6h0.7l2.5,3.4v-3.4h0.7v4.6H266L263.1,197.9z
		 M269.3,197.4h-1.5v-0.6h3.6v0.6H270v4h-0.7V197.4z M274.6,196.8c1.3,0,2.2,1,2.2,2.4c0,1.3-0.9,2.4-2.2,2.4c-1.3,0-2.2-1-2.2-2.4
		S273.3,196.8,274.6,196.8z M274.6,197.4c-1,0-1.6,0.7-1.6,1.8s0.6,1.8,1.6,1.8c0.9,0,1.6-0.7,1.6-1.8S275.7,197.4,274.6,197.4z
		 M282.5,197.9l-1.5,3.6h-0.3l-1.5-3.6v3.6h-0.7v-4.6h1l1.3,3.3l1.3-3.3h1v4.6h-0.7V197.9z M284.6,198.8h1.6v0.6h-1.6V198.8z
		 M287.4,199.2c0-1.3,1-2.4,2.4-2.4c0.9,0,1.5,0.4,1.8,0.9L291,198c-0.3-0.4-0.7-0.6-1.2-0.6c-0.9,0-1.6,0.7-1.6,1.8
		s0.7,1.8,1.6,1.8c0.6,0,1-0.3,1.2-0.6l0.6,0.3c-0.3,0.6-0.9,0.9-1.8,0.9C288.5,201.6,287.4,200.6,287.4,199.2z M295.8,200.6h-2.2
		l-0.3,0.9h-0.7l1.8-4.6h0.9l1.8,4.6h-0.7L295.8,200.6z M293.9,200h1.8l-0.9-2.4L293.9,200z M298.9,197.9v3.6h-0.7v-4.6h0.7l2.5,3.4
		v-3.4h0.7v4.6h-0.6L298.9,197.9z M303.8,196.8h1.6c1.5,0,2.4,1,2.4,2.2c0,1.3-0.9,2.2-2.4,2.2h-1.6V196.8z M305.5,200.9
		c1,0,1.6-0.7,1.6-1.6c0-0.9-0.6-1.6-1.6-1.6h-0.9v3.4h0.9V200.9z M310.4,199.5l-1.8-2.7h0.7l1.3,2.1l1.3-2.1h0.7l-1.8,2.7v1.9h-0.7
		v-1.9H310.4z M313.8,200.7c0.3,0,0.4,0.1,0.4,0.4c0,0.3-0.1,0.4-0.4,0.4c-0.3,0-0.4-0.1-0.4-0.4
		C313.4,200.9,313.5,200.7,313.8,200.7z M315.6,199.2c0-1.3,1-2.4,2.4-2.4c0.9,0,1.5,0.4,1.8,0.9l-0.6,0.3c-0.3-0.4-0.7-0.6-1.2-0.6
		c-0.9,0-1.6,0.7-1.6,1.8s0.7,1.8,1.6,1.8c0.6,0,1-0.3,1.2-0.6l0.6,0.3c-0.3,0.6-0.9,0.9-1.8,0.9
		C316.7,201.6,315.6,200.6,315.6,199.2z M323.2,196.8c1.3,0,2.2,1,2.2,2.4c0,1.3-0.9,2.4-2.2,2.4c-1.3,0-2.2-1-2.2-2.4
		S321.9,196.8,323.2,196.8z M323.2,197.4c-1,0-1.6,0.7-1.6,1.8s0.6,1.8,1.6,1.8c0.9,0,1.6-0.7,1.6-1.8
		C324.9,198.2,324.3,197.4,323.2,197.4z M327.3,200.7c0.3,0,0.4,0.1,0.4,0.4c0,0.3-0.1,0.4-0.4,0.4s-0.4-0.1-0.4-0.4
		C326.8,200.9,327,200.7,327.3,200.7z M329,196.8h0.7v2.8c0,0.7,0.4,1.3,1.2,1.3s1.2-0.4,1.2-1.3v-2.8h0.7v2.8
		c0,1.2-0.6,1.9-1.9,1.9s-1.9-0.7-1.9-1.9V196.8z M335.8,199.5l-0.4,0.4v1.5h-0.7v-4.6h0.7v2.2l1.9-2.2h0.9l-1.9,2.2l2.1,2.4h-0.9
		L335.8,199.5z"/>
	<g>
		<path class="st13" d="M289.2,209.7c1.3,0,1.8,1.2,1.8,2.4c0,1.2-0.6,2.4-1.8,2.4c-1.3,0-1.8-1.2-1.8-2.4
			C287.4,210.9,288,209.7,289.2,209.7z M289.2,210.3c-0.7,0-1,0.9-1,1.8c0,0.9,0.3,1.8,1,1.8s1-0.9,1-1.8
			C290.4,211.2,290.1,210.3,289.2,210.3z"/>
		<path class="st13" d="M293.4,210.7l-0.7,0.7l-0.4-0.4l1.2-1.2h0.6v4.6h-0.7v-3.7H293.4z"/>
		<path class="st13" d="M295.6,213.8c1.8-1.3,2.5-1.9,2.5-2.7c0-0.6-0.4-0.7-0.9-0.7c-0.6,0-0.9,0.3-1.2,0.6l-0.4-0.4
			c0.4-0.4,1-0.7,1.6-0.7c0.9,0,1.6,0.4,1.6,1.3c0,0.9-0.9,1.6-2.1,2.7h2.1v0.6h-3.3L295.6,213.8L295.6,213.8z"/>
		<path class="st13" d="M301.3,210.7l-0.7,0.7l-0.4-0.4l1.2-1.2h0.6v4.6h-0.6V210.7z"/>
		<path class="st13" d="M306.8,210.7l-0.7,0.7l-0.4-0.4l1.2-1.2h0.6v4.6h-0.7v-3.7H306.8z"/>
		<path class="st13" d="M309.1,213.8c1.8-1.3,2.5-1.9,2.5-2.7c0-0.6-0.4-0.7-0.9-0.7c-0.6,0-0.9,0.3-1.2,0.6l-0.4-0.4
			c0.4-0.4,1-0.7,1.6-0.7c0.9,0,1.6,0.4,1.6,1.3c0,0.9-0.9,1.6-2.1,2.7h2.1v0.6h-3.3L309.1,213.8L309.1,213.8z"/>
		<path class="st13" d="M314,213.2c0.3,0.3,0.7,0.6,1.3,0.6c0.6,0,1-0.3,1-0.7c0-0.4-0.4-0.7-1-0.7c-0.1,0-0.4,0-0.4,0v-0.6
			c0.1,0,0.3,0,0.4,0c0.6,0,1-0.1,1-0.7c0-0.4-0.4-0.7-1-0.7c-0.4,0-0.9,0.1-1.2,0.6l-0.3-0.4c0.3-0.4,0.9-0.7,1.6-0.7
			c0.9,0,1.6,0.4,1.6,1.2c0,0.6-0.6,1-1,1c0.4,0,1,0.4,1,1.2c0,0.7-0.6,1.3-1.6,1.3c-0.7,0-1.3-0.3-1.6-0.7L314,213.2z"/>
		<path class="st13" d="M320.4,213.2h-2.2v-0.6l1.9-3h0.9v2.8h0.6v0.6H321v1h-0.7v-0.9H320.4z M318.9,212.6h1.5v-2.2L318.9,212.6z"
			/>
		<path class="st13" d="M325.9,213.2c0.3,0.3,0.7,0.6,1.2,0.6c0.6,0,1-0.4,1-0.9c0-0.6-0.4-0.9-1-0.9c-0.4,0-0.7,0.1-1,0.4l-0.4-0.1
			v-2.5h2.8v0.6h-2.2v1.5c0.1-0.1,0.6-0.4,1-0.4c0.7,0,1.5,0.6,1.5,1.5s-0.7,1.5-1.6,1.5c-0.7,0-1.3-0.3-1.6-0.7L325.9,213.2z"/>
		<path class="st13" d="M332.2,209.7c0.6,0,1,0.1,1.3,0.6l-0.3,0.6c-0.3-0.3-0.4-0.4-0.9-0.4c-0.9,0-1.2,0.7-1.2,1.6v0.1
			c0.1-0.3,0.7-0.7,1.2-0.7c0.9,0,1.5,0.4,1.5,1.5c0,0.9-0.6,1.5-1.6,1.5c-1.3,0-1.8-1-1.8-2.4C330.2,210.9,330.8,209.7,332.2,209.7
			z M332,212.1c-0.4,0-0.9,0.3-1,0.6c0,0.6,0.3,1.2,1,1.2c0.6,0,1-0.4,1-0.9C332.9,212.4,332.5,212.1,332,212.1z"/>
		<path class="st13" d="M337.2,210.4h-2.4v-0.6h3.3v0.4l-1.8,4.2h-0.7L337.2,210.4z"/>
	</g>
	<polygon class="st5" points="245.6,46.4 243.2,53.4 245.3,53.4 244.5,55.5 242.4,55.5 241.5,58.2 239,58.2 244.2,44.3 247,44.3 
		252.3,58.2 249.7,58.2 	"/>
	<g>
		<g>
			<path class="st5" d="M228.9,24.2h-3.1v4.3h3.1c1.3,0,2.2-0.9,2.2-2.2C231.1,25.1,230.2,24.2,228.9,24.2 M223.3,22.1h5.8
				c2.8,0,4.3,1.9,4.3,4.3c0,2.4-1.6,4.3-4.3,4.3h-3.4V36h-2.4V22.1z"/>
		</g>
	</g>
	<polygon class="st5" points="247.9,29.9 241.1,29.9 241.1,36 238.8,36 238.8,22.1 241.1,22.1 241.1,27.8 247.9,27.8 247.9,22.1 
		250.3,22.1 250.3,36 247.9,36 	"/>
	<polygon class="st5" points="262,24.2 259.4,31.2 261.7,31.2 260.8,33.3 258.8,33.3 257.9,36 255.4,36 260.5,22.1 263.4,22.1 
		268.7,36 266.1,36 	"/>
	<polygon class="st5" points="276,25.8 276,36 273.6,36 273.6,22.1 276,22.1 282.8,32 282.8,22.1 285.1,22.1 285.1,36 282.8,36 	"/>
	<polygon class="st5" points="294.6,24.2 290.6,24.2 290.6,22.1 301,22.1 301,24.2 297,24.2 297,36 294.6,36 	"/>
	<g>
		<g>
			<path class="st5" d="M312.2,24c-2.7,0-4.3,2.1-4.3,4.9c0,2.8,1.6,4.9,4.3,4.9s4.3-2.1,4.3-4.9C316.5,26.1,314.9,24,312.2,24
				 M312.2,22c4,0,6.7,3,6.7,7.2s-2.8,7.2-6.7,7.2c-4,0-6.7-3-6.7-7.2S308.2,22,312.2,22"/>
		</g>
	</g>
	<polygon class="st5" points="336.1,25.5 331.9,36 331,36 326.8,25.5 326.8,36 324.6,36 324.6,22.1 327.9,22.1 331.4,31.4 335,22.1 
		338.3,22.1 338.3,36 336.1,36 	"/>
	<g>
		<g>
			<path class="st5" d="M222.7,51.3c0-4.2,3-7.2,6.9-7.2c2.8,0,4.5,1.5,5.4,3.1l-1.9,1c-0.6-1.2-1.9-1.9-3.4-1.9
				c-2.5,0-4.5,2.1-4.5,4.9c0,2.8,1.9,4.9,4.5,4.9c1.5,0,2.8-0.9,3.4-1.9l1.9,1c-1,1.6-2.7,3.1-5.4,3.1
				C225.9,58.5,222.7,55.5,222.7,51.3"/>
		</g>
	</g>
	<polygon class="st5" points="259.6,48.2 259.6,58.2 257.3,58.2 257.3,44.3 259.7,44.3 266.4,54.2 266.4,44.3 268.8,44.3 
		268.8,58.2 266.6,58.2 	"/>
	<g>
		<g>
			<path class="st5" d="M280.3,56.1c2.8,0,4.5-2.1,4.5-4.8s-1.6-4.8-4.5-4.8h-2.5v9.5H280.3z M275.4,44.3h4.9c4.2,0,6.9,2.8,6.9,6.9
				c0,4-2.8,6.9-6.9,6.9h-4.9V44.3z"/>
		</g>
	</g>
	<polygon class="st5" points="295.8,52.5 290.6,44.3 293.3,44.3 297,50.3 300.6,44.3 303.3,44.3 298,52.5 298,58.2 295.8,58.2 	"/>
	<g>
		<g>
			<path class="st5" d="M201,24.6c-0.1,0-0.1,0.1-0.1,0.1v12.8c0,0.1,0.1,0.1,0.1,0.1c2.7-1.3,5.2-3.4,5.2-7.5
				c0-1.8-0.7-3.4-1.9-4.5C203.4,25.1,202.2,24.6,201,24.6 M198.6,58.8c-1.8,0-3.4-0.6-4.8-1.6c-2.2-1.6-3.4-4.6-3.4-7.8
				c0.1-4.5,3.3-8.6,7.6-10.6c0.1,0,0.1-0.1,0.1-0.1V22.6c0-0.1,0.1-0.3,0.3-0.3l0.7-0.1c2.4-0.4,4.8,0.1,6.6,1.8
				c1.8,1.6,2.8,4,2.8,6.6c0,4.6-2.8,8.3-7.8,10.3c-0.1,0-0.1,0.1-0.1,0.3v6.7c0,0.1-0.1,0.3-0.3,0.3l-2.1,0.6c-0.1,0-0.3,0-0.3-0.3
				v-6.3c0-0.1-0.1-0.1-0.1-0.1c-2.8,1.8-4.8,4.6-4.9,7.8c-0.1,2.2,0.7,4.2,2.2,5.4c1.3,1,3.1,1.3,5.1,0.7c0.1,0,0.3,0.1,0.3,0.3
				v2.2c0,0.1-0.1,0.3-0.3,0.3C199.9,58.8,199.3,58.8,198.6,58.8"/>
		</g>
	</g>
</g>
<rect x="634.6" y="498.8" class="st3" width="165.8" height="101.2"/>
<g>
	<g>
		<path class="st5" d="M655.2,520.2h-0.9v1.6h-0.6v-4.3h1.8c0.9,0,1.3,0.6,1.3,1.3c0,0.7-0.6,1.2-1,1.3l1.2,1.8h-0.7L655.2,520.2z
			 M655.5,518.1h-1v1.5h1c0.4,0,0.7-0.3,0.7-0.7C656.4,518.4,656,518.1,655.5,518.1z"/>
		<path class="st5" d="M661.3,521h-2.1l-0.3,0.9h-0.7l1.8-4.3h0.9l1.8,4.3h-0.7L661.3,521z M659.2,520.4h1.8l-0.9-2.4L659.2,520.4z"
			/>
		<path class="st5" d="M663.6,521c0.1,0.1,0.4,0.4,0.7,0.4c0.4,0,0.9-0.3,0.9-0.9v-3h0.6v3c0,1-0.6,1.5-1.5,1.5
			c-0.4,0-0.9-0.1-1.2-0.4L663.6,521z"/>
		<path class="st5" d="M669.8,517.5h1.8c0.9,0,1.3,0.6,1.3,1.3c0,0.7-0.4,1.3-1.3,1.3h-1.2v1.6h-0.6L669.8,517.5L669.8,517.5z
			 M671.6,518.1h-1v1.5h1c0.4,0,0.7-0.3,0.7-0.7S672.1,518.1,671.6,518.1z"/>
		<path class="st5" d="M676.7,521h-2.1l-0.3,0.9h-0.7l1.8-4.3h0.9l1.8,4.3h-0.7L676.7,521z M674.7,520.4h1.8l-0.9-2.4L674.7,520.4z"
			/>
		<path class="st5" d="M679.5,518.1h-1.3v-0.6h3.4v0.6h-1.3v3.9h-0.6v-3.9H679.5z"/>
		<path class="st5" d="M684,518.1h-1.3v-0.6h3.4v0.6h-1.5v3.9H684V518.1z"/>
		<path class="st5" d="M688,518.6v3.4h-0.6v-4.3h0.7l2.4,3.3v-3.3h0.6v4.3h-0.6L688,518.6z"/>
		<path class="st5" d="M692.8,517.5h0.6v4.3h-0.6V517.5z"/>
	</g>
	<g>
		<path class="st5" d="M657.6,530.8l-1.5,3.4h-0.3l-1.5-3.4v3.4h-0.6v-4.3h0.9l1.3,3.1l1.3-3.1h0.9v4.3h-0.6V530.8z"/>
		<path class="st5" d="M662.7,533.3h-2.1l-0.3,0.9h-0.7l1.8-4.3h0.9l1.8,4.3h-0.7L662.7,533.3z M660.6,532.8h1.8l-0.9-2.4
			L660.6,532.8z"/>
		<path class="st5" d="M665.5,530.8v3.4h-0.6v-4.3h0.7l2.4,3.3v-3.3h0.6v4.3H668L665.5,530.8z"/>
		<path class="st5" d="M673.1,533.3H671l-0.3,0.9H670l1.8-4.3h0.9l1.8,4.3h-0.7L673.1,533.3z M671,532.8h1.8l-0.9-2.4L671,532.8z"/>
		<path class="st5" d="M677.1,529.8c0.9,0,1.3,0.4,1.8,0.9l-0.6,0.3c-0.3-0.3-0.7-0.6-1.2-0.6c-0.9,0-1.6,0.7-1.6,1.6
			c0,1,0.7,1.6,1.6,1.6c0.4,0,0.9-0.3,1-0.4v-0.7h-1.3v-0.6h2.1v1.6c-0.4,0.4-1,0.7-1.8,0.7c-1.2,0-2.2-0.9-2.2-2.2
			C674.9,530.7,675.9,529.8,677.1,529.8z"/>
		<path class="st5" d="M680.4,529.9h0.6v4.3h-0.6V529.9z"/>
		<path class="st5" d="M683.4,530.8v3.4h-0.6v-4.3h0.7l2.4,3.3v-3.3h0.6v4.3h-0.6L683.4,530.8z"/>
		<path class="st5" d="M690.2,529.8c0.9,0,1.3,0.4,1.8,0.9l-0.6,0.3c-0.3-0.3-0.7-0.6-1.2-0.6c-0.9,0-1.6,0.7-1.6,1.6
			c0,1,0.7,1.6,1.6,1.6c0.4,0,0.9-0.3,1-0.4v-0.7h-1.3v-0.6h2.1v1.6c-0.4,0.4-1,0.7-1.8,0.7c-1.2,0-2.2-0.9-2.2-2.2
			C687.9,530.7,688.9,529.8,690.2,529.8z"/>
		<path class="st5" d="M695.8,529.9h1.6c1.3,0,2.2,0.9,2.2,2.2s-0.9,2.2-2.2,2.2h-1.6V529.9z M697.4,533.6c1,0,1.6-0.7,1.6-1.6
			c0-0.9-0.6-1.6-1.6-1.6h-0.9v3.3L697.4,533.6L697.4,533.6z"/>
		<path class="st5" d="M701.1,529.9h0.6v4.3h-0.6V529.9z"/>
		<path class="st5" d="M704.9,532.6H704v1.6h-0.6v-4.3h1.8c0.9,0,1.3,0.6,1.3,1.3c0,0.7-0.6,1.2-1,1.3l1.2,1.8h-0.7L704.9,532.6z
			 M705.2,530.5h-1v1.5h1c0.4,0,0.7-0.3,0.7-0.7C706,530.8,705.6,530.5,705.2,530.5z"/>
		<path class="st5" d="M708.1,529.9h3v0.6h-2.2v1.3h2.2v0.6h-2.2v1.3h2.2v0.6h-3V529.9z"/>
		<path class="st5" d="M712.5,532c0-1.3,1-2.2,2.2-2.2c0.9,0,1.3,0.4,1.8,0.9l-0.6,0.3c-0.3-0.3-0.6-0.6-1.2-0.6
			c-0.9,0-1.6,0.7-1.6,1.6c0,1,0.7,1.6,1.6,1.6c0.4,0,0.9-0.3,1.2-0.6l0.6,0.3c-0.3,0.4-0.9,0.9-1.8,0.9
			C713.4,534.4,712.5,533.3,712.5,532z"/>
		<path class="st5" d="M718.7,530.5h-1.3v-0.6h3.4v0.6h-1.3v3.9h-0.6v-3.9H718.7z"/>
		<path class="st5" d="M723.9,529.8c1.3,0,2.2,0.9,2.2,2.2s-0.9,2.2-2.2,2.2s-2.2-0.9-2.2-2.2S722.7,529.8,723.9,529.8z
			 M723.9,530.4c-0.9,0-1.5,0.7-1.5,1.6c0,0.9,0.6,1.6,1.5,1.6s1.5-0.7,1.5-1.6C725.6,531.1,725,530.4,723.9,530.4z"/>
		<path class="st5" d="M729.2,532.6h-0.9v1.6h-0.6v-4.3h1.8c0.9,0,1.3,0.6,1.3,1.3c0,0.7-0.6,1.2-1,1.3l1.2,1.8h-0.7L729.2,532.6z
			 M729.5,530.5h-1v1.5h1c0.4,0,0.7-0.3,0.7-0.7C730.2,530.8,729.9,530.5,729.5,530.5z"/>
	</g>
	<path class="st13" d="M653.7,554.2h1.8c0.9,0,1.3,0.6,1.3,1.3c0,0.7-0.4,1.3-1.3,1.3h-1.2v1.6h-0.6L653.7,554.2L653.7,554.2z
		 M655.5,554.8h-1v1.5h1c0.4,0,0.7-0.3,0.7-0.7C656.2,555.1,656,554.8,655.5,554.8z M661.5,556.8h-2.4v1.9h-0.6v-4.3h0.6v1.8h2.4
		v-1.8h0.6v4.3h-0.6V556.8z M666.5,557.8h-2.1l-0.3,0.9h-0.7l1.8-4.3h0.9l1.8,4.3h-0.7L666.5,557.8z M664.6,557.2h1.8l-0.9-2.4
		L664.6,557.2z M669.4,555.3v3.4h-0.6v-4.3h0.7l2.4,3.3v-3.3h0.6v4.3h-0.6L669.4,555.3z M675.2,554.8h-1.3v-0.6h3.4v0.6h-1.3v3.9
		h-0.6v-3.9H675.2z M680.4,554.2c1.3,0,2.2,0.9,2.2,2.2s-0.9,2.2-2.2,2.2s-2.2-0.9-2.2-2.2S679.1,554.2,680.4,554.2z M680.4,554.8
		c-0.9,0-1.5,0.7-1.5,1.6c0,0.9,0.6,1.6,1.5,1.6c0.9,0,1.5-0.7,1.5-1.6C682,555.6,681.4,554.8,680.4,554.8z M687.9,555.1l-1.5,3.4
		h-0.3l-1.5-3.4v3.4H684v-4.3h0.9l1.3,3.1l1.3-3.1h0.9v4.3h-0.6V555.1z M689.9,556.2h1.6v0.4h-1.6V556.2z M692.6,556.5
		c0-1.3,1-2.2,2.2-2.2c0.9,0,1.3,0.4,1.8,0.9l-0.6,0.3c-0.3-0.3-0.6-0.6-1.2-0.6c-0.9,0-1.6,0.7-1.6,1.6c0,1,0.7,1.6,1.6,1.6
		c0.4,0,0.9-0.3,1.2-0.6l0.6,0.3c-0.3,0.4-0.9,0.9-1.8,0.9C693.7,558.7,692.6,557.8,692.6,556.5z M700.7,557.8h-2.1l-0.3,0.9h-0.7
		l1.8-4.3h0.9l1.8,4.3h-0.7L700.7,557.8z M698.7,557.2h1.8l-0.9-2.4L698.7,557.2z M703.7,555.3v3.4h-0.6v-4.3h0.7l2.4,3.3v-3.3h0.6
		v4.3h-0.6L703.7,555.3z M708.4,554.2h1.6c1.3,0,2.2,0.9,2.2,2.2s-0.9,2.2-2.2,2.2h-1.6V554.2z M709.9,558.1c1,0,1.6-0.7,1.6-1.6
		c0-0.9-0.6-1.6-1.6-1.6H709v3.3L709.9,558.1L709.9,558.1z M714.7,556.8l-1.8-2.5h0.7l1.3,1.9l1.3-1.9h0.7l-1.6,2.5v1.8h-0.6v-1.8
		H714.7z M718,557.9c0.3,0,0.4,0.1,0.4,0.4s-0.1,0.4-0.4,0.4s-0.4-0.1-0.4-0.4S717.7,557.9,718,557.9z M719.6,556.5
		c0-1.3,1-2.2,2.2-2.2c0.9,0,1.3,0.4,1.8,0.9l-0.6,0.3c-0.3-0.3-0.6-0.6-1.2-0.6c-0.9,0-1.6,0.7-1.6,1.6c0,1,0.7,1.6,1.6,1.6
		c0.4,0,0.9-0.3,1.2-0.6l0.6,0.3c-0.3,0.4-0.9,0.9-1.8,0.9C720.7,558.7,719.6,557.8,719.6,556.5z M727.1,554.2
		c1.3,0,2.2,0.9,2.2,2.2s-0.9,2.2-2.2,2.2s-2.2-0.9-2.2-2.2S725.7,554.2,727.1,554.2z M727.1,554.8c-0.9,0-1.5,0.7-1.5,1.6
		c0,0.9,0.6,1.6,1.5,1.6s1.5-0.7,1.5-1.6C728.6,555.6,728,554.8,727.1,554.8z M730.8,557.9c0.3,0,0.4,0.1,0.4,0.4s-0.1,0.4-0.4,0.4
		s-0.4-0.1-0.4-0.4S730.6,557.9,730.8,557.9z M732.6,554.2h0.6v2.7c0,0.7,0.4,1.2,1.2,1.2c0.7,0,1.2-0.4,1.2-1.2v-2.7h0.6v2.7
		c0,1-0.6,1.8-1.8,1.8s-1.8-0.7-1.8-1.8L732.6,554.2L732.6,554.2z M739,556.8l-0.4,0.4v1.5H738v-4.3h0.6v2.2l1.8-2.2h0.7l-1.8,2.1
		l1.9,2.4h-0.7L739,556.8z"/>
	<path class="st13" d="M655.2,569.3h-0.9v1.6h-0.6v-4.3h1.8c0.9,0,1.3,0.6,1.3,1.3c0,0.7-0.6,1.2-1,1.3l1.2,1.8h-0.7L655.2,569.3z
		 M655.5,567.2h-1v1.5h1c0.4,0,0.7-0.3,0.7-0.7S656,567.2,655.5,567.2z M661.3,570.2h-2.1l-0.3,0.9h-0.7l1.8-4.3h0.9l1.8,4.3h-0.7
		L661.3,570.2z M659.2,569.6h1.8l-0.9-2.4L659.2,569.6z M663.6,570.2c0.1,0.1,0.4,0.4,0.7,0.4c0.4,0,0.9-0.3,0.9-0.9v-3h0.6v3
		c0,1-0.6,1.5-1.5,1.5c-0.4,0-0.9-0.1-1.2-0.4L663.6,570.2z M669.8,566.9c1.2,0,2.1,0.9,2.1,2.1c0,1-0.6,1.6-1.2,1.6
		c-0.4,0-0.6-0.3-0.6-0.4l0,0c-0.3,0.3-0.6,0.6-1,0.6c-0.6,0-1-0.4-1-1c0-0.9,0.7-1.6,1.5-1.6c0.4,0,0.7,0.1,0.9,0.4l0.1-0.4h0.6
		l-0.3,1.8v0.1c0,0.1,0.1,0.3,0.3,0.3c0.3,0,0.7-0.3,0.7-1.2c0-1-0.7-1.8-1.8-1.8c-1.2,0-2.4,1-2.4,2.4c0,1,0.7,1.8,1.9,1.8
		c0.4,0,0.9-0.1,1.2-0.3l0.1,0.1c-0.4,0.3-0.9,0.4-1.3,0.4c-1.2,0-2.1-0.9-2.1-2.1C667.1,567.9,668.5,566.9,669.8,566.9z
		 M670.3,568.7c0-0.1-0.3-0.4-0.6-0.4c-0.6,0-1,0.6-1,1.2c0,0.4,0.3,0.7,0.6,0.7c0.4,0,0.7-0.3,0.9-0.6L670.3,568.7z M673.2,566.6
		h1.8c0.9,0,1.3,0.6,1.3,1.3c0,0.7-0.4,1.3-1.3,1.3h-1.2v1.6h-0.6L673.2,566.6L673.2,566.6z M675,567.2h-1v1.5h1
		c0.4,0,0.7-0.3,0.7-0.7S675.5,567.2,675,567.2z M681,569.1h-2.4v1.9H678v-4.3h0.6v1.8h2.4v-1.8h0.6v4.3H681V569.1z M686.1,570.2
		H684l-0.3,0.9h-0.7l1.8-4.3h0.9l1.8,4.3h-0.7L686.1,570.2z M684,569.6h1.8l-0.9-2.4L684,569.6z M688.9,567.6v3.4h-0.6v-4.3h0.7
		l2.4,3.3v-3.3h0.6v4.3h-0.6L688.9,567.6z M694.7,567.2h-1.3v-0.6h3.4v0.6h-1.3v3.9h-0.6v-3.9H694.7z M699.9,566.6
		c1.3,0,2.2,0.9,2.2,2.2s-0.9,2.2-2.2,2.2s-2.2-0.9-2.2-2.2S698.6,566.6,699.9,566.6z M699.9,567.2c-0.9,0-1.5,0.7-1.5,1.6
		c0,0.9,0.6,1.6,1.5,1.6c0.9,0,1.5-0.7,1.5-1.6C701.4,567.9,700.8,567.2,699.9,567.2z M707.4,567.5l-1.5,3.4h-0.3l-1.5-3.4v3.4h-0.6
		v-4.3h0.9l1.3,3.1l1.3-3.1h0.9v4.3h-0.6V567.5z M709.5,568.5h1.6v0.4h-1.6V568.5z M712.2,568.8c0-1.3,1-2.2,2.2-2.2
		c0.9,0,1.3,0.4,1.8,0.9l-0.6,0.3c-0.3-0.3-0.6-0.6-1.2-0.6c-0.9,0-1.6,0.7-1.6,1.6c0,1,0.7,1.6,1.6,1.6c0.4,0,0.9-0.3,1.2-0.6
		l0.6,0.3c-0.3,0.4-0.9,0.9-1.8,0.9C713.2,571.1,712.2,570.2,712.2,568.8z M720.2,570.2h-2.1l-0.3,0.9h-0.7l1.8-4.3h0.9l1.8,4.3
		h-0.7L720.2,570.2z M718.3,569.6h1.8l-0.9-2.4L718.3,569.6z M723.2,567.6v3.4h-0.6v-4.3h0.7l2.4,3.3v-3.3h0.6v4.3h-0.6L723.2,567.6
		z M727.8,566.6h1.6c1.3,0,2.2,0.9,2.2,2.2s-0.9,2.2-2.2,2.2h-1.6V566.6z M729.5,570.5c1,0,1.6-0.7,1.6-1.6s-0.6-1.6-1.6-1.6h-0.9
		v3.3L729.5,570.5L729.5,570.5z M734.2,569.1l-1.8-2.5h0.7l1.3,1.9l1.3-1.9h0.7l-1.6,2.5v1.8h-0.6v-1.8H734.2z M737.4,570.3
		c0.3,0,0.4,0.1,0.4,0.4c0,0.3-0.1,0.4-0.4,0.4s-0.4-0.1-0.4-0.4C736.9,570.5,737.2,570.3,737.4,570.3z M739.1,568.8
		c0-1.3,1-2.2,2.2-2.2c0.9,0,1.3,0.4,1.8,0.9l-0.6,0.3c-0.3-0.3-0.6-0.6-1.2-0.6c-0.9,0-1.6,0.7-1.6,1.6c0,1,0.7,1.6,1.6,1.6
		c0.4,0,0.9-0.3,1.2-0.6l0.6,0.3c-0.3,0.4-0.9,0.9-1.8,0.9C740.2,571.1,739.1,570.2,739.1,568.8z M746.6,566.6
		c1.3,0,2.2,0.9,2.2,2.2s-0.9,2.2-2.2,2.2s-2.2-0.9-2.2-2.2S745.3,566.6,746.6,566.6z M746.6,567.2c-0.9,0-1.5,0.7-1.5,1.6
		c0,0.9,0.6,1.6,1.5,1.6s1.5-0.7,1.5-1.6C748.1,567.9,747.5,567.2,746.6,567.2z M750.3,570.3c0.3,0,0.4,0.1,0.4,0.4
		c0,0.3-0.1,0.4-0.4,0.4c-0.3,0-0.4-0.1-0.4-0.4C749.9,570.5,750,570.3,750.3,570.3z M752.1,566.6h0.6v2.7c0,0.7,0.4,1.2,1.2,1.2
		c0.7,0,1.2-0.4,1.2-1.2v-2.7h0.6v2.7c0,1-0.6,1.8-1.8,1.8c-1.2,0-1.8-0.7-1.8-1.8V566.6z M758.5,569.1l-0.4,0.4v1.5h-0.6v-4.3h0.6
		v2.2l1.8-2.2h0.7l-1.8,2.1l1.9,2.4H760L758.5,569.1z"/>
	<g>
		<path class="st13" d="M655.4,579c1.2,0,1.8,1.2,1.8,2.2c0,1-0.4,2.2-1.8,2.2c-1.2,0-1.8-1.2-1.8-2.2
			C653.6,580.2,654,579,655.4,579z M655.4,579.6c-0.7,0-1,0.9-1,1.6c0,0.9,0.3,1.6,1,1.6c0.7,0,1-0.9,1-1.6
			C656.4,580.3,656.1,579.6,655.4,579.6z"/>
		<path class="st13" d="M659.2,579.9l-0.7,0.7l-0.4-0.4l1.2-1.2h0.6v4.3h-0.6V579.9z"/>
		<path class="st13" d="M661.3,582.8c1.6-1.2,2.4-1.9,2.4-2.7c0-0.4-0.4-0.7-0.9-0.7c-0.4,0-0.9,0.1-1.2,0.6l-0.4-0.4
			c0.3-0.4,0.9-0.7,1.6-0.7c0.7,0,1.5,0.4,1.5,1.3c0,0.9-0.9,1.6-2.1,2.5h2.1v0.6h-3.1v-0.4H661.3z"/>
		<path class="st13" d="M666.7,579.9l-0.7,0.7l-0.4-0.4l1.2-1.2h0.6v4.3h-0.6V579.9z"/>
		<path class="st13" d="M672.2,579.9l-0.7,0.7l-0.4-0.4l1.2-1.2h0.6v4.3h-0.6V579.9z"/>
		<path class="st13" d="M674.3,582.8c1.6-1.2,2.4-1.9,2.4-2.7c0-0.4-0.4-0.7-0.9-0.7c-0.4,0-0.9,0.1-1.2,0.6l-0.4-0.4
			c0.3-0.4,0.9-0.7,1.6-0.7c0.7,0,1.5,0.4,1.5,1.3c0,0.9-0.9,1.6-2.1,2.5h2.1v0.6h-3.1v-0.4H674.3z"/>
		<path class="st13" d="M679.1,582.4c0.3,0.3,0.7,0.6,1.2,0.6c0.6,0,0.9-0.3,0.9-0.7c0-0.4-0.4-0.7-1-0.7c-0.1,0-0.4,0-0.4,0v-0.6
			c0,0,0.3,0,0.4,0c0.6,0,0.9-0.1,0.9-0.6c0-0.4-0.4-0.7-0.9-0.7s-0.9,0.1-1.2,0.4l-0.3-0.4c0.3-0.4,0.9-0.7,1.5-0.7
			c0.9,0,1.5,0.4,1.5,1.2c0,0.6-0.4,0.9-0.9,1c0.4,0,1,0.4,1,1c0,0.7-0.6,1.3-1.6,1.3c-0.7,0-1.3-0.3-1.6-0.7L679.1,582.4z"/>
		<path class="st13" d="M685.2,582.4h-2.1v-0.6l1.8-2.8h0.9v2.8h0.6v0.6h-0.6v1h-0.6L685.2,582.4L685.2,582.4z M683.7,581.8h1.5
			v-2.2L683.7,581.8z"/>
		<path class="st13" d="M690.4,582.4c0.3,0.3,0.7,0.6,1.2,0.6c0.6,0,0.9-0.4,0.9-0.9c0-0.6-0.4-0.9-0.9-0.9c-0.4,0-0.7,0.1-1,0.4
			l-0.4-0.1v-2.4h2.8v0.6h-2.1v1.3c0.1-0.1,0.6-0.4,1-0.4c0.7,0,1.3,0.4,1.3,1.3c0,0.9-0.7,1.5-1.6,1.5c-0.7,0-1.2-0.3-1.6-0.7
			L690.4,582.4z"/>
		<path class="st13" d="M696.4,579c0.6,0,0.9,0.1,1.2,0.4l-0.3,0.4c-0.3-0.3-0.4-0.4-0.9-0.4c-0.7,0-1.2,0.7-1.2,1.6v0.1
			c0.1-0.3,0.6-0.6,1.2-0.6c0.7,0,1.5,0.4,1.5,1.3c0,0.7-0.6,1.5-1.6,1.5c-1.2,0-1.8-1-1.8-2.2C694.6,580,695.2,579,696.4,579z
			 M696.2,581.2c-0.4,0-0.7,0.3-1,0.6c0,0.4,0.3,1.2,1,1.2c0.6,0,0.9-0.4,0.9-0.9C697.2,581.5,696.8,581.2,696.2,581.2z"/>
		<path class="st13" d="M701.3,579.6h-2.4V579h3.1v0.4l-1.8,3.9h-0.7L701.3,579.6z"/>
	</g>
</g>
<radialGradient id="SVGID_15_" cx="400.2" cy="300" r="590.9097" gradientTransform="matrix(1 0 0 0.7738 0 67.8485)" gradientUnits="userSpaceOnUse">
	<stop  offset="0" style="stop-color:#413E4B;stop-opacity:0"/>
	<stop  offset="1" style="stop-color:#413E4B;stop-opacity:0.2"/>
</radialGradient>
<rect class="st14" width="800.4" height="600"/>
</svg>
