<?xml version="1.0" encoding="utf-8"?>
<!-- Generator: Adobe Illustrator 21.1.0, SVG Export Plug-In . SVG Version: 6.00 Build 0)  -->
<svg version="1.1" id="Layer_1" xmlns="http://www.w3.org/2000/svg" xmlns:xlink="http://www.w3.org/1999/xlink" x="0px" y="0px"
	 viewBox="0 0 800 500" style="enable-background:new 0 0 800 500;" xml:space="preserve">
<style type="text/css">
	.st0{fill:#F1F4F6;}
	.st1{fill:#787C89;}
	.st2{clip-path:url(#SVGID_2_);fill:#787C89;}
	.st3{clip-path:url(#SVGID_4_);fill:#787C89;}
	.st4{clip-path:url(#SVGID_6_);fill:#787C89;}
	.st5{clip-path:url(#SVGID_8_);fill:#787C89;}
	.st6{clip-path:url(#SVGID_10_);fill:#787C89;}
	.st7{opacity:0.2;clip-path:url(#SVGID_10_);}
	.st8{clip-path:url(#SVGID_12_);fill:#2BAEE5;}
	.st9{clip-path:url(#SVGID_14_);fill:#2BAEE5;}
	.st10{clip-path:url(#SVGID_16_);fill:#2BAEE5;}
	.st11{clip-path:url(#SVGID_18_);}
	.st12{fill:#009EE2;}
	.st13{clip-path:url(#SVGID_20_);fill:#2BAEE5;}
	.st14{clip-path:url(#SVGID_22_);}
	.st15{clip-path:url(#SVGID_24_);fill:#2BAEE5;}
	.st16{clip-path:url(#SVGID_26_);}
	.st17{clip-path:url(#SVGID_28_);fill:#2BAEE5;}
	.st18{clip-path:url(#SVGID_30_);fill:#2BAEE5;}
	.st19{clip-path:url(#SVGID_32_);}
	.st20{clip-path:url(#SVGID_34_);fill:#2BAEE5;}
	.st21{clip-path:url(#SVGID_36_);}
	.st22{clip-path:url(#SVGID_38_);fill:#2BAEE5;}
	.st23{clip-path:url(#SVGID_40_);}
	.st24{clip-path:url(#SVGID_42_);fill:#2BAEE5;}
	.st25{clip-path:url(#SVGID_44_);fill:#2BAEE5;}
	.st26{clip-path:url(#SVGID_46_);fill:#2BAEE5;}
	.st27{clip-path:url(#SVGID_48_);}
	.st28{clip-path:url(#SVGID_50_);fill:#2BAEE5;}
	.st29{clip-path:url(#SVGID_52_);}
	.st30{clip-path:url(#SVGID_54_);fill:#2BAEE5;}
	.st31{clip-path:url(#SVGID_56_);}
	.st32{clip-path:url(#SVGID_58_);fill:#2BAEE5;}
	.st33{clip-path:url(#SVGID_60_);}
</style>
<rect class="st0" width="800" height="500"/>
<g>
	<polygon class="st1" points="277.5,264.3 271.5,280.4 276.6,280.4 274.7,285.4 269.9,285.4 267.6,291.5 261.5,291.5 274,259.5 
		281,259.5 293.6,291.5 287.4,291.5 	"/>
	<g>
		<defs>
			<rect id="SVGID_1_" x="58" y="162" width="685.4" height="176"/>
		</defs>
		<clipPath id="SVGID_2_">
			<use xlink:href="#SVGID_1_"  style="overflow:visible;"/>
		</clipPath>
		<path class="st2" d="M237,212.9h-7.7V223h7.7c3.2,0,5.5-2,5.5-5.1S240.2,212.9,237,212.9 M223.8,207.9h14c6.7,0,10.4,4.6,10.4,10
			c0,5.4-3.8,10-10.4,10h-8.4v11.9h-5.6V207.9z"/>
	</g>
	<polygon class="st1" points="283.3,226 266.6,226 266.6,239.9 261,239.9 261,207.9 266.6,207.9 266.6,221 283.3,221 283.3,207.9 
		288.9,207.9 288.9,239.9 283.3,239.9 	"/>
	<polygon class="st1" points="317,212.7 311,228.8 316.1,228.8 314.2,233.8 309.4,233.8 307.1,239.9 300.9,239.9 313.5,207.9 
		320.5,207.9 333,239.9 326.9,239.9 	"/>
	<polygon class="st1" points="350.8,216.6 350.8,239.9 345.2,239.9 345.2,207.9 350.9,207.9 367.2,230.6 367.2,207.9 372.8,207.9 
		372.8,239.9 367.4,239.9 	"/>
	<polygon class="st1" points="395.9,212.9 386.2,212.9 386.2,207.9 411.2,207.9 411.2,212.9 401.5,212.9 401.5,239.9 395.9,239.9 	
		"/>
	<g>
		<defs>
			<rect id="SVGID_3_" x="58" y="162" width="685.4" height="176"/>
		</defs>
		<clipPath id="SVGID_4_">
			<use xlink:href="#SVGID_3_"  style="overflow:visible;"/>
		</clipPath>
		<path class="st3" d="M438.2,212.4c-6.5,0-10.6,4.9-10.6,11.5c0,6.6,4.1,11.5,10.6,11.5c6.4,0,10.6-5,10.6-11.5
			C448.8,217.3,444.6,212.4,438.2,212.4 M438.2,207.4c9.6,0,16.3,7,16.3,16.5c0,9.5-6.8,16.5-16.3,16.5c-9.6,0-16.3-7-16.3-16.5
			C421.9,214.4,428.6,207.4,438.2,207.4"/>
	</g>
	<polygon class="st1" points="495.7,215.7 485.9,239.9 483.5,239.9 473.7,215.7 473.7,239.9 468.1,239.9 468.1,207.9 476,207.9 
		484.7,229.5 493.4,207.9 501.3,207.9 501.3,239.9 495.7,239.9 	"/>
	<g>
		<defs>
			<rect id="SVGID_5_" x="58" y="162" width="685.4" height="176"/>
		</defs>
		<clipPath id="SVGID_6_">
			<use xlink:href="#SVGID_5_"  style="overflow:visible;"/>
		</clipPath>
		<path class="st4" d="M222.3,275.5c0-9.8,7.3-16.5,16.5-16.5c6.7,0,10.7,3.4,13.1,7.2l-4.8,2.4c-1.5-2.6-4.6-4.6-8.3-4.6
			c-6.1,0-10.8,4.8-10.8,11.5s4.7,11.5,10.8,11.5c3.7,0,6.8-2,8.3-4.6l4.8,2.4c-2.4,3.8-6.4,7.2-13.1,7.2
			C229.7,292.1,222.3,285.4,222.3,275.5"/>
	</g>
	<polygon class="st1" points="311.3,268.2 311.3,291.5 305.7,291.5 305.7,259.5 311.4,259.5 327.8,282.2 327.8,259.5 333.4,259.5 
		333.4,291.5 328,291.5 	"/>
	<g>
		<defs>
			<rect id="SVGID_7_" x="58" y="162" width="685.4" height="176"/>
		</defs>
		<clipPath id="SVGID_8_">
			<use xlink:href="#SVGID_7_"  style="overflow:visible;"/>
		</clipPath>
		<path class="st5" d="M361.2,286.6c6.9,0,11-5,11-11c0-6.2-3.8-11.1-11-11.1h-6.3v22.1H361.2z M349.3,259.5h11.9
			c10,0,16.7,6.6,16.7,16c0,9.4-6.8,16-16.7,16h-11.9V259.5z"/>
	</g>
	<polygon class="st1" points="398.6,278.2 386.2,259.5 392.6,259.5 401.4,273.2 410.1,259.5 416.5,259.5 404.2,278.2 404.2,291.5 
		398.6,291.5 	"/>
	<g>
		<defs>
			<rect id="SVGID_9_" x="58" y="162" width="685.4" height="176"/>
		</defs>
		<clipPath id="SVGID_10_">
			<use xlink:href="#SVGID_9_"  style="overflow:visible;"/>
		</clipPath>
		<path class="st6" d="M169.6,213.7c-0.2,0-0.4,0.2-0.4,0.4l0.1,29.8c0,0.2,0.2,0.4,0.5,0.3c6.5-2.9,12.6-8.1,12.6-17.1
			c0-4.1-1.7-7.9-4.8-10.4C175.4,214.7,172.6,213.7,169.6,213.7 M164.1,292.9c-4.2,0-8.2-1.2-11.5-3.7c-5.4-3.9-8.5-10.6-8.1-17.8
			c0.5-10.3,7.7-19.9,18.3-24.6c0.2-0.1,0.3-0.3,0.3-0.5v-37.4c0-0.4,0.3-0.7,0.7-0.8l1.9-0.3c5.9-1.1,11.5,0.3,15.9,4
			c4.4,3.7,7,9.2,7,15.2c0,10.9-6.7,19.3-18.9,23.9c-0.2,0.1-0.4,0.3-0.4,0.5v15.5c0,0.4-0.2,0.7-0.6,0.8l-4.9,1.3
			c-0.4,0.1-0.7-0.2-0.7-0.5v-14.3c0-0.2-0.3-0.4-0.5-0.3c-7,4.1-11.7,10.8-12,17.9c-0.2,5.1,1.8,9.8,5.6,12.5
			c3.3,2.4,7.7,3.1,12.4,1.9c0.3-0.1,0.7,0.2,0.7,0.5l0,5c0,0.4-0.3,0.7-0.6,0.8C167.1,292.7,165.5,292.9,164.1,292.9"/>
		<path class="st6" d="M678.6,213.3c-0.2,0-0.4,0.2-0.4,0.4l0.1,29.8c0,0.2,0.2,0.4,0.5,0.3c6.5-2.9,12.6-8.1,12.6-17.1
			c0-4.1-1.7-7.9-4.8-10.4C684.3,214.4,681.5,213.4,678.6,213.3 M673,292.5c-4.2,0-8.2-1.2-11.5-3.7c-5.4-3.9-8.5-10.6-8.1-17.8
			c0.5-10.3,7.7-19.9,18.3-24.6c0.2-0.1,0.3-0.3,0.3-0.5v-37.4c0-0.4,0.3-0.7,0.7-0.8l1.9-0.3c5.9-1.1,11.5,0.3,15.9,4
			c4.4,3.7,7,9.2,7,15.2c0,10.9-6.7,19.3-18.9,23.9c-0.2,0.1-0.4,0.3-0.4,0.5v15.5c0,0.4-0.2,0.7-0.6,0.8l-4.9,1.3
			c-0.4,0.1-0.7-0.2-0.7-0.5v-14.3c0-0.2-0.3-0.4-0.5-0.3c-7,4.1-11.7,10.8-12,17.9c-0.2,5.1,1.8,9.8,5.6,12.5
			c3.3,2.4,7.7,3.1,12.4,1.9c0.3-0.1,0.7,0.2,0.7,0.5l0,5c0,0.4-0.3,0.7-0.6,0.8C676,292.4,674.5,292.5,673,292.5"/>
		<g class="st7">
			<g>
				<defs>
					<rect id="SVGID_11_" x="135.4" y="200.4" width="374.9" height="93.4"/>
				</defs>
				<clipPath id="SVGID_12_">
					<use xlink:href="#SVGID_11_"  style="overflow:visible;"/>
				</clipPath>
				<path class="st8" d="M501.3,292.9H144.4v-85.4h356.9V292.9z M145.4,291.9h354.9v-83.4H145.4V291.9z"/>
			</g>
		</g>
		<g class="st7">
			<g>
				<defs>
					<rect id="SVGID_13_" x="49" y="155.3" width="545.4" height="183.7"/>
				</defs>
				<clipPath id="SVGID_14_">
					<use xlink:href="#SVGID_13_"  style="overflow:visible;"/>
				</clipPath>
				<path class="st9" d="M585.4,338H58V162.3h527.4V338z M59,337h525.4V163.3H59V337z"/>
			</g>
		</g>
		<g class="st7">
			<g>
				<defs>
					<rect id="SVGID_15_" x="311.3" y="285.9" width="23.1" height="53.1"/>
				</defs>
				<clipPath id="SVGID_16_">
					<use xlink:href="#SVGID_15_"  style="overflow:visible;"/>
				</clipPath>
				<rect x="322.4" y="298.3" class="st10" width="1" height="34.2"/>
				<polygon class="st10" points="322.9,292.9 320.3,299.9 325.4,299.9 				"/>
				<polygon class="st10" points="322.9,338 325.4,331 320.3,331 				"/>
			</g>
		</g>
		<g class="st7">
			<g>
				<defs>
					<rect id="SVGID_17_" x="320.5" y="303.7" width="30.7" height="21"/>
				</defs>
				<clipPath id="SVGID_18_">
					<use xlink:href="#SVGID_17_"  style="overflow:visible;"/>
				</clipPath>
				<g class="st11">
					<path class="st12" d="M330.5,312.2h3.3c1.3,0,2.2,0.8,2.2,2c0,1-0.7,1.7-1.4,1.8c0.9,0.1,1.6,1,1.6,2c0,1.3-0.9,2.2-2.3,2.2
						h-3.4V312.2z M333.7,315.8c1,0,1.6-0.6,1.6-1.5c0-0.8-0.5-1.5-1.6-1.5h-2.5v3H333.7z M333.8,319.5c1.1,0,1.7-0.6,1.7-1.6
						c0-0.8-0.6-1.6-1.7-1.6h-2.6v3.2H333.8z"/>
				</g>
			</g>
		</g>
		<g class="st7">
			<g>
				<defs>
					<rect id="SVGID_19_" x="311.3" y="155.9" width="23.1" height="53.1"/>
				</defs>
				<clipPath id="SVGID_20_">
					<use xlink:href="#SVGID_19_"  style="overflow:visible;"/>
				</clipPath>
				<rect x="322.4" y="168.3" class="st13" width="1" height="34.2"/>
				<polygon class="st13" points="322.9,162.9 320.3,169.9 325.4,169.9 				"/>
				<polygon class="st13" points="322.9,208 325.4,201 320.3,201 				"/>
			</g>
		</g>
		<g class="st7">
			<g>
				<defs>
					<rect id="SVGID_21_" x="320.5" y="173.7" width="30.7" height="21"/>
				</defs>
				<clipPath id="SVGID_22_">
					<use xlink:href="#SVGID_21_"  style="overflow:visible;"/>
				</clipPath>
				<g class="st14">
					<path class="st12" d="M330.5,182.2h3.3c1.3,0,2.2,0.8,2.2,2c0,1-0.7,1.7-1.4,1.8c0.9,0.1,1.6,1,1.6,2c0,1.3-0.9,2.2-2.3,2.2
						h-3.4V182.2z M333.7,185.8c1,0,1.6-0.6,1.6-1.5c0-0.8-0.5-1.5-1.6-1.5h-2.5v3H333.7z M333.8,189.6c1.1,0,1.7-0.6,1.7-1.6
						c0-0.8-0.6-1.6-1.7-1.6h-2.6v3.2H333.8z"/>
				</g>
			</g>
		</g>
		<g class="st7">
			<g>
				<defs>
					<rect id="SVGID_23_" x="143.4" y="289.4" width="53.1" height="23.1"/>
				</defs>
				<clipPath id="SVGID_24_">
					<use xlink:href="#SVGID_23_"  style="overflow:visible;"/>
				</clipPath>
				<rect x="149.9" y="300.4" class="st15" width="34.2" height="1"/>
				<polygon class="st15" points="189.6,300.9 182.5,298.4 182.5,303.5 				"/>
				<polygon class="st15" points="144.4,300.9 151.4,303.5 151.4,298.4 				"/>
			</g>
		</g>
		<g class="st7">
			<g>
				<defs>
					<rect id="SVGID_25_" x="154.3" y="299.5" width="30.7" height="21"/>
				</defs>
				<clipPath id="SVGID_26_">
					<use xlink:href="#SVGID_25_"  style="overflow:visible;"/>
				</clipPath>
				<g class="st16">
					<path class="st12" d="M164.3,308h3.3c1.3,0,2.2,0.8,2.2,2c0,1-0.7,1.7-1.4,1.8c0.9,0.1,1.6,1,1.6,2c0,1.3-0.9,2.2-2.3,2.2h-3.4
						V308z M167.5,311.6c1,0,1.6-0.6,1.6-1.5c0-0.8-0.5-1.5-1.6-1.5H165v3H167.5z M167.5,315.4c1.1,0,1.7-0.6,1.7-1.6
						c0-0.8-0.6-1.6-1.7-1.6H165v3.2H167.5z"/>
				</g>
			</g>
		</g>
		<g class="st7">
			<g>
				<defs>
					<rect id="SVGID_27_" x="180.1" y="201.7" width="19" height="90.7"/>
				</defs>
				<clipPath id="SVGID_28_">
					<use xlink:href="#SVGID_27_"  style="overflow:visible;"/>
				</clipPath>
				<rect x="189.1" y="208.7" class="st17" width="1" height="82.7"/>
			</g>
		</g>
		<g class="st7">
			<g>
				<defs>
					<rect id="SVGID_29_" x="184.6" y="201.7" width="23.1" height="92.1"/>
				</defs>
				<clipPath id="SVGID_30_">
					<use xlink:href="#SVGID_29_"  style="overflow:visible;"/>
				</clipPath>
				<rect x="195.6" y="214.2" class="st18" width="1" height="73.2"/>
				<polygon class="st18" points="196.1,208.7 193.6,215.7 198.7,215.7 				"/>
				<polygon class="st18" points="196.1,292.9 198.7,285.8 193.6,285.8 				"/>
			</g>
		</g>
		<g class="st7">
			<g>
				<defs>
					<rect id="SVGID_31_" x="192.4" y="239" width="31.1" height="21"/>
				</defs>
				<clipPath id="SVGID_32_">
					<use xlink:href="#SVGID_31_"  style="overflow:visible;"/>
				</clipPath>
				<g class="st19">
					<path class="st12" d="M207.4,253.6h-4.3l-0.8,2h-0.8l3.3-8h0.9l3.3,8h-0.8L207.4,253.6z M203.3,252.9h3.8l-1.9-4.7L203.3,252.9
						z"/>
				</g>
			</g>
		</g>
		<g class="st7">
			<g>
				<defs>
					<rect id="SVGID_33_" x="58.6" y="238.3" width="92.1" height="23.1"/>
				</defs>
				<clipPath id="SVGID_34_">
					<use xlink:href="#SVGID_33_"  style="overflow:visible;"/>
				</clipPath>
				<rect x="65" y="249.3" class="st20" width="73.2" height="1"/>
				<polygon class="st20" points="143.7,249.8 136.7,247.3 136.7,252.4 				"/>
				<polygon class="st20" points="59.6,249.8 66.6,252.4 66.6,247.3 				"/>
			</g>
		</g>
		<g class="st7">
			<g>
				<defs>
					<rect id="SVGID_35_" x="88.6" y="247.3" width="31.1" height="21"/>
				</defs>
				<clipPath id="SVGID_36_">
					<use xlink:href="#SVGID_35_"  style="overflow:visible;"/>
				</clipPath>
				<g class="st21">
					<path class="st12" d="M103.6,261.8h-4.3l-0.8,2h-0.8l3.3-8h0.9l3.3,8h-0.8L103.6,261.8z M99.6,261.2h3.8l-1.9-4.7L99.6,261.2z"
						/>
				</g>
			</g>
		</g>
		<g class="st7">
			<g>
				<defs>
					<rect id="SVGID_37_" x="500.3" y="238.3" width="92.1" height="23.1"/>
				</defs>
				<clipPath id="SVGID_38_">
					<use xlink:href="#SVGID_37_"  style="overflow:visible;"/>
				</clipPath>
				<rect x="506.8" y="249.3" class="st22" width="73.2" height="1"/>
				<polygon class="st22" points="585.4,249.8 578.4,247.3 578.4,252.4 				"/>
				<polygon class="st22" points="501.3,249.8 508.3,252.4 508.3,247.3 				"/>
			</g>
		</g>
		<g class="st7">
			<g>
				<defs>
					<rect id="SVGID_39_" x="530.4" y="247.3" width="31.1" height="21"/>
				</defs>
				<clipPath id="SVGID_40_">
					<use xlink:href="#SVGID_39_"  style="overflow:visible;"/>
				</clipPath>
				<g class="st23">
					<path class="st12" d="M545.4,261.8h-4.3l-0.8,2h-0.8l3.3-8h0.9l3.3,8h-0.8L545.4,261.8z M541.3,261.2h3.8l-1.9-4.7L541.3,261.2
						z"/>
				</g>
			</g>
		</g>
		<g class="st7">
			<g>
				<defs>
					<rect id="SVGID_41_" x="644.4" y="200.1" width="62.1" height="93.4"/>
				</defs>
				<clipPath id="SVGID_42_">
					<use xlink:href="#SVGID_41_"  style="overflow:visible;"/>
				</clipPath>
				<path class="st24" d="M697.5,292.5h-44.1v-85.4h44.1V292.5z M654.4,291.5h42.1v-83.4h-42.1V291.5z"/>
			</g>
		</g>
		<g class="st7">
			<g>
				<defs>
					<rect id="SVGID_43_" x="596.9" y="155" width="155.4" height="183.7"/>
				</defs>
				<clipPath id="SVGID_44_">
					<use xlink:href="#SVGID_43_"  style="overflow:visible;"/>
				</clipPath>
				<path class="st25" d="M743.4,337.7H605.9V162h137.4V337.7z M606.9,336.7h135.4V163H606.9V336.7z"/>
			</g>
		</g>
		<g class="st7">
			<g>
				<defs>
					<rect id="SVGID_45_" x="606.5" y="238" width="53.1" height="23.1"/>
				</defs>
				<clipPath id="SVGID_46_">
					<use xlink:href="#SVGID_45_"  style="overflow:visible;"/>
				</clipPath>
				<rect x="612.9" y="249" class="st26" width="34.2" height="1"/>
				<polygon class="st26" points="652.6,249.5 645.6,247 645.6,252.1 				"/>
				<polygon class="st26" points="607.5,249.5 614.5,252.1 614.5,247 				"/>
			</g>
		</g>
		<g class="st7">
			<g>
				<defs>
					<rect id="SVGID_47_" x="617.3" y="248.1" width="30.7" height="21"/>
				</defs>
				<clipPath id="SVGID_48_">
					<use xlink:href="#SVGID_47_"  style="overflow:visible;"/>
				</clipPath>
				<g class="st27">
					<path class="st12" d="M627.3,256.6h3.3c1.3,0,2.2,0.8,2.2,2c0,1-0.7,1.7-1.4,1.8c0.9,0.1,1.6,1,1.6,2c0,1.3-0.9,2.2-2.3,2.2
						h-3.4V256.6z M630.5,260.2c1,0,1.6-0.6,1.6-1.5c0-0.8-0.5-1.5-1.6-1.5H628v3H630.5z M630.6,264c1.1,0,1.7-0.6,1.7-1.6
						c0-0.8-0.6-1.6-1.7-1.6H628v3.2H630.6z"/>
				</g>
			</g>
		</g>
		<g class="st7">
			<g>
				<defs>
					<rect id="SVGID_49_" x="697.2" y="238" width="53.1" height="23.1"/>
				</defs>
				<clipPath id="SVGID_50_">
					<use xlink:href="#SVGID_49_"  style="overflow:visible;"/>
				</clipPath>
				<rect x="703.6" y="249" class="st28" width="34.2" height="1"/>
				<polygon class="st28" points="743.3,249.5 736.3,247 736.3,252.1 				"/>
				<polygon class="st28" points="698.2,249.5 705.2,252.1 705.2,247 				"/>
			</g>
		</g>
		<g class="st7">
			<g>
				<defs>
					<rect id="SVGID_51_" x="708.1" y="248.1" width="30.7" height="21"/>
				</defs>
				<clipPath id="SVGID_52_">
					<use xlink:href="#SVGID_51_"  style="overflow:visible;"/>
				</clipPath>
				<g class="st29">
					<path class="st12" d="M718,256.6h3.3c1.3,0,2.2,0.8,2.2,2c0,1-0.7,1.7-1.4,1.8c0.9,0.1,1.6,1,1.6,2c0,1.3-0.9,2.2-2.3,2.2H718
						V256.6z M721.2,260.2c1,0,1.6-0.6,1.6-1.5c0-0.8-0.5-1.5-1.6-1.5h-2.5v3H721.2z M721.3,264c1.1,0,1.7-0.6,1.7-1.6
						c0-0.8-0.6-1.6-1.7-1.6h-2.6v3.2H721.3z"/>
				</g>
			</g>
		</g>
		<g class="st7">
			<g>
				<defs>
					<rect id="SVGID_53_" x="663.8" y="285.9" width="23.1" height="53.1"/>
				</defs>
				<clipPath id="SVGID_54_">
					<use xlink:href="#SVGID_53_"  style="overflow:visible;"/>
				</clipPath>
				<rect x="674.9" y="298.3" class="st30" width="1" height="34.2"/>
				<polygon class="st30" points="675.4,292.9 672.8,299.9 677.9,299.9 				"/>
				<polygon class="st30" points="675.4,338 677.9,331 672.8,331 				"/>
			</g>
		</g>
		<g class="st7">
			<g>
				<defs>
					<rect id="SVGID_55_" x="673" y="303.7" width="30.7" height="21"/>
				</defs>
				<clipPath id="SVGID_56_">
					<use xlink:href="#SVGID_55_"  style="overflow:visible;"/>
				</clipPath>
				<g class="st31">
					<path class="st12" d="M683,312.2h3.3c1.3,0,2.2,0.8,2.2,2c0,1-0.7,1.7-1.4,1.8c0.9,0.1,1.6,1,1.6,2c0,1.3-0.9,2.2-2.3,2.2H683
						V312.2z M686.2,315.8c1,0,1.6-0.6,1.6-1.5c0-0.8-0.5-1.5-1.6-1.5h-2.5v3H686.2z M686.3,319.5c1.1,0,1.7-0.6,1.7-1.6
						c0-0.8-0.6-1.6-1.7-1.6h-2.6v3.2H686.3z"/>
				</g>
			</g>
		</g>
		<g class="st7">
			<g>
				<defs>
					<rect id="SVGID_57_" x="663.8" y="155.9" width="23.1" height="53.1"/>
				</defs>
				<clipPath id="SVGID_58_">
					<use xlink:href="#SVGID_57_"  style="overflow:visible;"/>
				</clipPath>
				<rect x="674.9" y="168.3" class="st32" width="1" height="34.2"/>
				<polygon class="st32" points="675.4,162.9 672.8,169.9 677.9,169.9 				"/>
				<polygon class="st32" points="675.4,208 677.9,201 672.8,201 				"/>
			</g>
		</g>
		<g class="st7">
			<g>
				<defs>
					<rect id="SVGID_59_" x="673" y="173.7" width="30.7" height="21"/>
				</defs>
				<clipPath id="SVGID_60_">
					<use xlink:href="#SVGID_59_"  style="overflow:visible;"/>
				</clipPath>
				<g class="st33">
					<path class="st12" d="M683,182.2h3.3c1.3,0,2.2,0.8,2.2,2c0,1-0.7,1.7-1.4,1.8c0.9,0.1,1.6,1,1.6,2c0,1.3-0.9,2.2-2.3,2.2H683
						V182.2z M686.2,185.8c1,0,1.6-0.6,1.6-1.5c0-0.8-0.5-1.5-1.6-1.5h-2.5v3H686.2z M686.3,189.6c1.1,0,1.7-0.6,1.7-1.6
						c0-0.8-0.6-1.6-1.7-1.6h-2.6v3.2H686.3z"/>
				</g>
			</g>
		</g>
	</g>
</g>
</svg>
