<?xml version="1.0" encoding="utf-8"?>
<!-- Generator: Adobe Illustrator 21.1.0, SVG Export Plug-In . SVG Version: 6.00 Build 0)  -->
<svg version="1.1" id="Layer_1" xmlns="http://www.w3.org/2000/svg" xmlns:xlink="http://www.w3.org/1999/xlink" x="0px" y="0px"
	 viewBox="0 0 800 600" style="enable-background:new 0 0 800 600;" xml:space="preserve">
<style type="text/css">
	.st0{fill:#F5F5F5;}
	.st1{fill:#E6E6E6;}
</style>
<g>
	<rect class="st0" width="800" height="600"/>
</g>
<g>
	<path class="st1" d="M456,264.8c3,0,5.5,1,7.7,3s3.2,4.5,3.2,7.5v64.5c0,3-1.1,5.5-3.2,7.7s-4.7,3.2-7.7,3.2H344.9
		c-3,0-5.5-1.1-7.7-3.2c-2.1-2.1-3.2-4.7-3.2-7.7v-64.5c0-3,1.1-5.5,3.2-7.5c2.1-2,4.7-3,7.7-3h22l12.5-12.8c1.9-2.3,4.6-3.5,8-3.5
		h26.8c2.8,0,5.2,1.1,7.3,3.2l13.1,13.1H456z M379.7,325.9c5.7,5.9,12.7,8.8,20.8,8.8c8.1,0,15-2.9,20.8-8.8
		c5.7-5.9,8.6-12.8,8.6-20.9c0-8.1-2.9-15.1-8.6-20.9c-5.7-5.9-12.7-8.8-20.8-8.8c-8.1,0-15,2.9-20.8,8.8
		c-5.7,5.9-8.6,12.8-8.6,20.9C371.1,313.1,373.9,320,379.7,325.9z M384.6,289.2c4.4-4.4,9.6-6.5,15.8-6.5s11.4,2.2,15.8,6.5
		c4.4,4.4,6.5,9.6,6.5,15.8s-2.2,11.4-6.5,15.8c-4.4,4.4-9.6,6.5-15.8,6.5s-11.4-2.2-15.8-6.5c-4.4-4.4-6.5-9.6-6.5-15.8
		S380.3,293.5,384.6,289.2z M449.6,277.2c0,3,1.5,4.5,4.5,4.5c3,0,4.5-1.5,4.5-4.5s-1.5-4.5-4.5-4.5
		C451.1,272.7,449.6,274.2,449.6,277.2z"/>
</g>
</svg>
