<?xml version="1.0" encoding="utf-8"?>
<!-- Generator: Adobe Illustrator 21.1.0, SVG Export Plug-In . SVG Version: 6.00 Build 0)  -->
<svg version="1.1" id="Layer_1" xmlns="http://www.w3.org/2000/svg" xmlns:xlink="http://www.w3.org/1999/xlink" x="0px" y="0px"
	 viewBox="0 0 800 600" style="enable-background:new 0 0 800 600;" xml:space="preserve">
<style type="text/css">
	.st0{fill:#696773;}
	.st1{opacity:0.2;fill:#CDCDCD;}
	.st2{fill:#CDCDCD;}
	.st3{stroke:#E2A0FF;stroke-width:0.75;stroke-miterlimit:10;}
	.st4{fill:none;stroke:#E2A0FF;stroke-width:0.75;stroke-miterlimit:10;}
</style>
<rect class="st0" width="800" height="600"/>
<path class="st1" d="M36.2,213.2v95.3c0,43.6-14.1,70.9-36.2,84v49.9c15.2-7.4,27.7-19.2,36.2-35.1l7.5,36.7h42.2V213.2H36.2z"/>
<path class="st1" d="M258.1,253.4c-36.7,0-73,37.7-73,86.4V444h-49.6V213.2h49.6v40.2c11.9-26.8,44.2-49.6,73-49.6V253.4z"/>
<path class="st2" d="M508.3,409.3c0,76.9-32.3,154.9-136.5,168.3l-8.4-48.7c69.5-7,95.3-57.1,95.3-115.7
	c-14.4,21.3-42.2,38.2-74,38.2c-66,0-114.2-49.6-114.2-123.6c0-68,47.2-124.1,118.2-124.1c33.8,0,60.1,17.9,70,36.2v-26.8h49.6
	V409.3z M458.7,296.1c-12.9-27.3-40.7-42.7-66.5-42.7c-43.2,0-72,32.8-72,74c0,49.6,31.8,74.5,69.5,74.5c28.8,0,59.1-16.4,69-42.7
	V296.1z"/>
<path class="st1" d="M538.5,526c17.9-7.9,41.7-21.3,43.2-62.6V349.7h-38.2l15.9-47.2h22.3V195.3c-0.5-57.6,17.9-94.3,71.5-94.3
	c24.3,0,46.2,13.9,53.6,23.3l-25.3,36.7c-8.9-7.9-16.4-11.4-25.3-10.9c-24.8,1-25.3,31.8-24.8,63v89.4h64.5l-17.4,47.2h-47.2v97.8
	c0,75.5-26.8,101.8-70,123.1L538.5,526z"/>
<path class="st1" d="M800,265.2v-56.9c-49.5,16.3-83.7,63.9-83.7,119.6c0,55.7,34.2,102.3,83.7,118.2v-55.7
	c-20.1-13.2-32.6-36.4-32.6-62.1C767.4,302.8,780.3,279,800,265.2z"/>
<line class="st3" x1="0" y1="443" x2="800" y2="443"/>
<line class="st3" x1="0" y1="214" x2="800" y2="214"/>
<circle class="st4" cx="384.4" cy="309.6" r="106.1"/>
<circle class="st4" cx="484" cy="237.9" r="24.7"/>
<line class="st3" x1="459.5" y1="197" x2="459.5" y2="579"/>
<line class="st3" x1="509.5" y1="197" x2="509.5" y2="579"/>
<line class="st3" x1="0" y1="563" x2="800" y2="563"/>
<circle class="st4" cx="393.6" cy="548.3" r="24.7"/>
</svg>
